<svg width="24" height="24" viewBox="0 0 24 24" fill="none" xmlns="http://www.w3.org/2000/svg">
<path d="M15.55 13C16.77 13 17.29 11.99 17.3 11.97L20.85 5.53C21.08 5.08 21.03 4.69 20.84 4.42C20.66 4.16 20.33 4 20 4C19.99 4 5.21 4 5.21 4L4.54 2.57C4.38 2.22 4.02 2 3.64 2H2C1.45 2 1 2.45 1 3C1 3.55 1.45 4 2 4H3L6.6 11.59L5.25 14.03C4.52 15.37 5.48 17 7 17H18C18.55 17 19 16.55 19 16C19 15.45 18.55 15 18 15H7L8.1 13H15.55Z" fill="black"/>
<path d="M7 22C8.10457 22 9 21.1046 9 20C9 18.8954 8.10457 18 7 18C5.89543 18 5 18.8954 5 20C5 21.1046 5.89543 22 7 22Z" fill="black"/>
<path d="M17 22C18.1046 22 19 21.1046 19 20C19 18.8954 18.1046 18 17 18C15.8954 18 15 18.8954 15 20C15 21.1046 15.8954 22 17 22Z" fill="black"/>
</svg>
