<?xml version="1.0" encoding="UTF-8"?><svg id="Layer_1" xmlns="http://www.w3.org/2000/svg" viewBox="0 0 205 205"><defs><style>.cls-1{fill:#fff;}</style></defs><path class="cls-1" d="m170.13,109.38c-9.92,17.07-26.8,26.44-47.61,26.44h-22.93v56.42c0,5.64-4.59,10.25-10.25,10.25h-51.32c-5.66,0-10.25-4.61-10.25-10.25v-114.13c0-5.66,4.59-10.25,10.25-10.25h44.41c2.36-4.38,6.28-7.89,11.1-9.94,0,0-1.92-6.2-1.77-6.35.31,0,5.59,3.82,5.59,3.82,0,0,5.12-4.23,5.46-4.23.23,0,6.25,4.64,6.25,4.64,0,0,4.77-3,5.05-3,.13.1-2.08,5.12-2.08,5.12,7.97,3.41,13.5,10.71,13.5,19.58,0,12.02-9.76,21.75-22.75,21.75-8.43,0-15.78-4.38-19.73-10.89h-34.77v93.63h30.83v-56.42c0-5.66,4.59-10.25,10.25-10.25h33.11c16.96,0,25.65-8.81,29.98-16.25,7.94-13.66,7.69-33.98-.61-48.3-4.56-7.87-13.35-17.22-29.44-17.22h-.18l-52.14-.23c-.56,4.61-4.48,8.2-9.28,8.2h-14.99c-.33,1.36-1.54,2.36-3,2.36-1.69,0-3.07-1.38-3.07-3.07v-3.82h-11.2c-1.69,0-3.07-1.36-3.07-3.07,0-.85.33-1.61.9-2.18.56-.56,1.33-.9,2.18-.9h11.2v-15.68h-11.2c-1.69,0-3.07-1.38-3.07-3.07,0-.85.33-1.61.9-2.18.56-.56,1.33-.9,2.18-.9h11.2v-3.77c0-1.72,1.38-3.1,3.07-3.1.85,0,1.61.36,2.18.9.41.41.69.9.82,1.46h14.99c4.84,0,8.79,3.64,9.3,8.33l52.09.23h.31c19.78,0,36.98,9.99,47.07,27.44,12.12,20.96,12.38,48.63.59,68.88Z"/></svg>