<?xml version="1.0" encoding="UTF-8"?>
<svg width="7px" height="5px" viewBox="0 0 7 5" version="1.1" xmlns="http://www.w3.org/2000/svg" xmlns:xlink="http://www.w3.org/1999/xlink">
    <!-- Generator: Sketch 52.3 (67297) - http://www.bohemiancoding.com/sketch -->
    <title>Path</title>
    <desc>Created with Sketch.</desc>
    <g id="Page-1" stroke="none" stroke-width="1" fill="none" fill-rule="evenodd">
        <g id="Services-add-2" transform="translate(-378.000000, -575.000000)" fill="#ADBFC7">
            <g id="Group-15-Copy-11" transform="translate(35.000000, 525.000000)">
                <path d="M348.930323,52.3627451 L344.252903,49.0293309 C344.203387,48.9941634 344.139194,48.9904966 344.08629,49.0189973 C344.033226,49.0478313 344,49.1044994 344,49.1665009 L344,55.8333293 C344,55.8953308 344.033226,55.9521655 344.08629,55.9809995 C344.109839,55.9936665 344.135645,56 344.16129,56 C344.193387,56 344.225323,55.9899998 344.252903,55.9704993 L348.930323,52.6370851 C348.974032,52.6059177 349,52.5547497 349,52.4999151 C349,52.4450804 348.973871,52.3939125 348.930323,52.3627451 Z" id="Path" transform="translate(346.500000, 52.500000) scale(1, -1) rotate(-90.000000) translate(-346.500000, -52.500000) "></path>
            </g>
        </g>
    </g>
</svg>