<svg width="24" height="24" viewBox="0 0 24 24" fill="none" xmlns="http://www.w3.org/2000/svg">
<path d="M9.51488 8.71783V9.0807C9.51192 9.01849 9.50896 8.96073 9.50896 8.9C9.50896 8.83928 9.51192 8.78003 9.51488 8.71931V8.71783Z" fill="url(#paint0_linear_2842_101899)"/>
<path d="M16.3825 12.5702H9.51637V18.8561H16.3825L23.25 12.5702H16.3825Z" fill="url(#paint1_linear_2842_101899)"/>
<path d="M23.2485 0H16.3824L16.3825 12.5702L23.2485 12.5702V0Z" fill="url(#paint2_linear_2842_101899)"/>
<path d="M3.72387 14.8393L7.61609 14.472V20.3594C7.61609 22.0553 6.32805 23.4727 4.64221 23.6327L0.75 24V18.1126C0.75 16.4167 2.03804 14.9992 3.72387 14.8393Z" fill="url(#paint3_linear_2842_101899)"/>
<path d="M12.119 6.28436C10.7393 6.28436 9.60655 7.35817 9.51635 8.71784C9.51339 8.78004 9.51043 8.83781 9.51043 8.89853C9.51043 8.95926 9.51339 9.0185 9.51635 9.07923L9.51637 12.5702L2.64878 12.5702V6.28436H12.119Z" fill="url(#paint4_linear_2842_101899)"/>
<path d="M23.2485 0L23.2485 6.28585H2.6473L9.51339 0H23.2485Z" fill="url(#paint5_linear_2842_101899)"/>
<defs>
<linearGradient id="paint0_linear_2842_101899" x1="12" y1="26.0571" x2="12" y2="2.44898" gradientUnits="userSpaceOnUse">
<stop stop-color="#9A5DA0"/>
<stop offset="1" stop-color="#7D2F85"/>
</linearGradient>
<linearGradient id="paint1_linear_2842_101899" x1="0.75" y1="12" x2="23.25" y2="12" gradientUnits="userSpaceOnUse">
<stop stop-color="#9A5DA0"/>
<stop offset="1" stop-color="#6F1877"/>
</linearGradient>
<linearGradient id="paint2_linear_2842_101899" x1="17.6274" y1="-1.18011" x2="17.6274" y2="13.6524" gradientUnits="userSpaceOnUse">
<stop stop-color="#9A5DA0"/>
<stop offset="1" stop-color="#6F1877"/>
</linearGradient>
<linearGradient id="paint3_linear_2842_101899" x1="0.75" y1="12.0019" x2="23.25" y2="12.0019" gradientUnits="userSpaceOnUse">
<stop stop-color="#9A5DA0"/>
<stop offset="1" stop-color="#6F1877"/>
</linearGradient>
<linearGradient id="paint4_linear_2842_101899" x1="12" y1="25.753" x2="12" y2="3.10462" gradientUnits="userSpaceOnUse">
<stop stop-color="#9A5DA0"/>
<stop offset="1" stop-color="#6F1877"/>
</linearGradient>
<linearGradient id="paint5_linear_2842_101899" x1="2.6473" y1="3.14293" x2="23.2485" y2="3.14293" gradientUnits="userSpaceOnUse">
<stop stop-color="#9A5DA0"/>
<stop offset="1" stop-color="#6F1877"/>
</linearGradient>
</defs>
</svg>
