<svg xmlns="http://www.w3.org/2000/svg" xmlns:xlink="http://www.w3.org/1999/xlink" viewBox="0 0 48 48"><defs><style>.cls-1{fill:url(#linear-gradient);}.cls-2{fill:url(#linear-gradient-2);}.cls-3{fill:#9aa6e2;}.cls-4{fill:url(#linear-gradient-3);}.cls-5{fill:url(#linear-gradient-4);}.cls-6{fill:url(#linear-gradient-5);}.cls-7{fill:url(#linear-gradient-6);}.cls-8{fill:url(#linear-gradient-7);}.cls-9{fill:url(#linear-gradient-8);}.cls-10{fill:url(#linear-gradient-9);}.cls-11{fill:url(#linear-gradient-10);}</style><linearGradient id="linear-gradient" x1="24" y1="3.25" x2="24" y2="44.787" gradientUnits="userSpaceOnUse"><stop offset="0" stop-color="#eaecf7"/><stop offset="1" stop-color="#cdd3f1"/></linearGradient><linearGradient id="linear-gradient-2" x1="24" y1="39.824" x2="24" y2="46" gradientUnits="userSpaceOnUse"><stop offset="0" stop-color="#e2e5f4" stop-opacity="0"/><stop offset="1" stop-color="#9aa6e2"/></linearGradient><linearGradient id="linear-gradient-3" x1="24" y1="17.167" x2="24" y2="35.019" gradientUnits="userSpaceOnUse"><stop offset="0" stop-color="#14a5ff"/><stop offset="1" stop-color="#037cff"/></linearGradient><linearGradient id="linear-gradient-4" x1="14" y1="20.583" x2="14" y2="31.339" gradientUnits="userSpaceOnUse"><stop offset="0" stop-color="#037cff"/><stop offset="1" stop-color="#14a5ff" stop-opacity="0"/></linearGradient><linearGradient id="linear-gradient-5" x1="24" y1="20.583" x2="24" y2="31.339" xlink:href="#linear-gradient-4"/><linearGradient id="linear-gradient-6" x1="33.561" y1="20.583" x2="33.561" y2="31.339" xlink:href="#linear-gradient-4"/><linearGradient id="linear-gradient-7" x1="24" y1="30.046" x2="24" y2="35.005" gradientUnits="userSpaceOnUse"><stop offset="0" stop-color="#037cff" stop-opacity="0"/><stop offset="1" stop-color="#0063cc"/></linearGradient><linearGradient id="linear-gradient-8" x1="14" y1="21.917" x2="14" y2="29.979" xlink:href="#linear-gradient"/><linearGradient id="linear-gradient-9" x1="24" y1="21.917" x2="24" y2="29.979" xlink:href="#linear-gradient"/><linearGradient id="linear-gradient-10" x1="33.561" y1="21.917" x2="33.561" y2="29.979" xlink:href="#linear-gradient"/></defs><title>File And Document GRadieant</title><g id="Document"><path class="cls-1" d="M39,46H9a2,2,0,0,1-2-2V4A2,2,0,0,1,9,2H35V6a2,2,0,0,0,2,2h4V44A2,2,0,0,1,39,46Z"/><path class="cls-2" d="M39,46H9a2,2,0,0,1-2-2V39H41v5A2,2,0,0,1,39,46Z"/><path class="cls-3" d="M41,8H37a2,2,0,0,1-2-2V2Z"/><path class="cls-3" d="M23,20H15a1,1,0,0,1,0-2h8a1,1,0,0,1,0,2Z"/><path class="cls-3" d="M33,25H15a1,1,0,0,1,0-2H33a1,1,0,0,1,0,2Z"/><path class="cls-3" d="M30,30H15a1,1,0,0,1,0-2H30a1,1,0,0,1,0,2Z"/><rect class="cls-4" x="5" y="17" width="38" height="18" rx="2" ry="2"/><path class="cls-5" d="M14,21H11a2,2,0,0,0-2,2v6a2,2,0,0,0,2,2h3a5,5,0,0,0,0-10Zm0,6H13V25h1a1,1,0,0,1,0,2Z"/><path class="cls-6" d="M24,21a5,5,0,1,0,5,5A5.006,5.006,0,0,0,24,21Zm0,6a1,1,0,1,1,1-1A1,1,0,0,1,24,27Z"/><path class="cls-7" d="M36.121,26.121a1.984,1.984,0,0,0-1.414.586,1.049,1.049,0,0,1-1.414,0,1,1,0,0,1,0-1.414,1.049,1.049,0,0,1,1.414,0,2,2,0,0,0,2.829-2.828A5,5,0,1,0,34,31a4.965,4.965,0,0,0,3.535-1.465,2,2,0,0,0-1.415-3.414Z"/><path class="cls-8" d="M41,35H7a2,2,0,0,1-2-2V30H43v3A2,2,0,0,1,41,35Z"/><path class="cls-9" d="M14,22H11a1,1,0,0,0-1,1v6a1,1,0,0,0,1,1h3a4,4,0,0,0,0-8Zm0,6H12V24h2a2,2,0,0,1,0,4Z"/><path class="cls-10" d="M24,22a4,4,0,1,0,4,4A4,4,0,0,0,24,22Zm0,6a2,2,0,1,1,2-2A2,2,0,0,1,24,28Z"/><path class="cls-11" d="M35.414,27.414a2.047,2.047,0,0,1-2.828,0,2,2,0,0,1,0-2.828,2.047,2.047,0,0,1,2.828,0,1,1,0,0,0,1.414-1.414,4.094,4.094,0,0,0-5.656,0,4,4,0,1,0,5.656,5.656,1,1,0,0,0-1.414-1.414Z"/></g></svg>