<svg xmlns="http://www.w3.org/2000/svg" xmlns:xlink="http://www.w3.org/1999/xlink" viewBox="0 0 48 48"><defs><style>.cls-1{fill:url(#linear-gradient);}.cls-2{fill:url(#linear-gradient-2);}.cls-3{fill:url(#linear-gradient-3);}.cls-4{fill:url(#linear-gradient-4);}.cls-5{fill:url(#linear-gradient-5);}.cls-6{fill:url(#linear-gradient-6);}.cls-7{fill:url(#linear-gradient-7);}</style><linearGradient id="linear-gradient" x1="29" y1="11.917" x2="29" y2="4.415" gradientUnits="userSpaceOnUse"><stop offset="0" stop-color="#f7ae30"/><stop offset="1" stop-color="#ffca4f"/></linearGradient><linearGradient id="linear-gradient-2" x1="21.413" y1="15.217" x2="24.372" y2="12.134" gradientUnits="userSpaceOnUse"><stop offset="0" stop-color="#f4901f"/><stop offset="0.199" stop-color="#f69c29" stop-opacity="0.801"/><stop offset="1" stop-color="#ffca4f" stop-opacity="0"/></linearGradient><linearGradient id="linear-gradient-3" x1="29" y1="12.555" x2="29" y2="9.281" gradientUnits="userSpaceOnUse"><stop offset="0" stop-color="#f4901f"/><stop offset="1" stop-color="#ffca4f" stop-opacity="0"/></linearGradient><linearGradient id="linear-gradient-4" x1="24" y1="13.809" x2="24" y2="41.473" gradientUnits="userSpaceOnUse"><stop offset="0" stop-color="#ffca4f"/><stop offset="1" stop-color="#f7ae30"/></linearGradient><linearGradient id="linear-gradient-5" x1="24" y1="36.777" x2="24" y2="40.942" gradientUnits="userSpaceOnUse"><stop offset="0" stop-color="#ffca4f" stop-opacity="0"/><stop offset="1" stop-color="#f4901f"/></linearGradient><linearGradient id="linear-gradient-6" x1="11" y1="28.042" x2="11" y2="30.333" gradientUnits="userSpaceOnUse"><stop offset="0" stop-color="#e28b5a"/><stop offset="1" stop-color="#b35e3e"/></linearGradient><linearGradient id="linear-gradient-7" x1="15.5" y1="33.083" x2="15.5" y2="35.007" xlink:href="#linear-gradient-6"/></defs><title>File And Document GRadieant</title><g id="Folder"><path class="cls-1" d="M14,7H42a2,2,0,0,1,2,2v8a0,0,0,0,1,0,0H14a0,0,0,0,1,0,0V7A0,0,0,0,1,14,7Z"/><polygon class="cls-2" points="35 17 14 17 14 7 22 7 35 17"/><rect class="cls-3" x="14" y="9" width="30" height="8"/><path class="cls-4" d="M44,42H4a2,2,0,0,1-2-2V8A2,2,0,0,1,4,6h8.333a2,2,0,0,1,1.2.4l6.933,5.2a2,2,0,0,0,1.2.4H44a2,2,0,0,1,2,2V40A2,2,0,0,1,44,42Z"/><path class="cls-5" d="M2,35v5a2,2,0,0,0,2,2H44a2,2,0,0,0,2-2V35Z"/><path class="cls-6" d="M14,30H8a1,1,0,0,1,0-2h6a1,1,0,0,1,0,2Z"/><path class="cls-7" d="M23,35H8a1,1,0,0,1,0-2H23a1,1,0,0,1,0,2Z"/></g></svg>