<svg id="Layer_1" data-name="Layer 1" xmlns="http://www.w3.org/2000/svg" viewBox="0 0 180.82683 238.63256"><defs><style>.cls-1{fill:#665ba2;}</style></defs><title>gecko_logo</title><path class="cls-1" d="M409.74827,292.83552a25.2521,25.2521,0,0,1-4.14888,10.16855,29.27133,29.27133,0,0,1-4.23323,4.98662,33.28216,33.28216,0,0,1-9.18709,6.10392,55.97842,55.97842,0,0,1-8.88983,2.69357,16.4093,16.4093,0,0,1-2.98534.15363,30.552,30.552,0,0,1-10.98758-.99946,37.47349,37.47349,0,0,1-9.57855-4.23464c-2.01506-1.27774-3.84859-2.759-5.74375-4.18633-4.27272-3.21792-7.328-7.38769-10.09025-11.85642a55.58506,55.58506,0,0,1-6.4269-16.53375,50.08727,50.08727,0,0,1-1.13693-13.32412,38.39007,38.39007,0,0,1,3.04832-14.16315,66.16825,66.16825,0,0,1,3.51649-7.00052c.636-1.08835,1.5861-2.13671,2.17332-3.2227.92623-1.713,2.39058-2.93764,3.43341-4.53491a17.03326,17.03326,0,0,1,4.78081-4.9727,3.625,3.625,0,0,0,.71637-.61875,42.72623,42.72623,0,0,1,6.89447-5.84161c5.45146-4.03027,11.5272-6.87979,17.7336-9.51766a75.53274,75.53274,0,0,0,8.446-3.91326,17.841,17.841,0,0,0,6.1546-5.19375,19.63384,19.63384,0,0,0,2.96418-7.12358c1.18846-5.92512,1.49407-12.02716,3.56142-17.77708a1.0832,1.0832,0,0,0-.29828-1.407c-.55039-.35911-.98992-.03434-1.35875.37332a36.78354,36.78354,0,0,1-6.75278,5.6188c-2.37846,1.61746-3.03141,4.05823-2.54223,6.73452A55.17,55.17,0,0,0,390.493,199.363c.4321,1.41552.30094,1.92129-1.11319,3.05492a2.13234,2.13234,0,0,1-2.36293.28348,3.15078,3.15078,0,0,1-1.64123-2.96733c.39377-2.87517,1.205-5.69849,1.00252-8.64932a8.98672,8.98672,0,0,0-.63409-2.787c-.90881-2.23036-3.63424-2.65417-5.9514-1.01556a14.96638,14.96638,0,0,0-4.50962,4.81818,3.3572,3.3572,0,0,1-3.18869,1.952,2.27443,2.27443,0,0,1-2.17681-1.52,2.05772,2.05772,0,0,1,.31821-2.61882,9.54218,9.54218,0,0,1,3.35131-2.02006c2.44085-.98516,4.92346-1.88418,6.64551-4.06809,1.76019-2.23227,1.38828-4.31286-1.07524-5.7679a34.30811,34.30811,0,0,0-3.35992-1.785,8.22971,8.22971,0,0,0-4.12588-.98848,2.42348,2.42348,0,0,1-2.50742-1.83251,3.05959,3.05959,0,0,1,1.03153-3.10565,2.49416,2.49416,0,0,1,3.25937.49022c1.312,1.23074,2.59183,2.50051,3.96378,3.66093a10.48257,10.48257,0,0,0,3.03223,1.8247,2.30661,2.30661,0,0,0,2.49393-.34927,2.3371,2.3371,0,0,0,.31216-2.47548,18.14686,18.14686,0,0,0-2.38041-4.25955,3.45749,3.45749,0,0,1-.0441-3.49945,3.59379,3.59379,0,0,1,3.2552-.62684,2.6558,2.6558,0,0,1,1.31506,3.16994,15.42353,15.42353,0,0,0-.53414,5.32833c.11544,1.391,1.25381,2.28768,2.2894,1.84174a1.22917,1.22917,0,0,0,.67955-.62638,11.90214,11.90214,0,0,0,1.22153-5.43349c-.03021-1.62481,1.03315-2.51795,3.04075-2.55882,1.3028-.02652,1.96813.81947,2.12889,2.34237.18135,1.7181-.91489,2.58345-2.09359,3.3188a5.11,5.11,0,0,0-2.00323,3.23536c-.29612.98836.66071,1.60766,1.71762,1.07624a20.43294,20.43294,0,0,0,3.97042-2.40689c1.3357-1.11607,2.57345-2.42381,3.93625-3.45674,1.62614-1.2325,2.66469-3.20135,4.81427-3.7922,2.56552-.70518,6.35862.79753,6.46591,4.356.06624,2.19707.16244,4.39322.2446,6.58981.00748.19983.00316.40033.01687.59966a2.14335,2.14335,0,0,0,1.60285,2.02532c.97423.25548,1.47858-.63615,1.87835-1.366,1.4369-2.62341,2.28464-5.52383,3.71173-8.14367a25.86065,25.86065,0,0,1,3.4293-5.22541c3.69625-4.04027,7.26907-8.213,11.20844-12.00312,1.97877-1.90378,3.757-4.02937,5.87738-5.74712a13.07137,13.07137,0,0,0,2.54985-2.87124,1.62893,1.62893,0,0,0-.58755-2.582,9.2197,9.2197,0,0,0-3.833-.7274c-1.1527-.11524-2.29707-.27944-3.43633-.45561-2.14878-.33228-3.12092-1.68912-3.453-4.17248a94.78028,94.78028,0,0,1-.68446-10.26541,3.1599,3.1599,0,0,0-2.49311-3.25c-1.36343-.30171-2.33673.59513-3.29139,1.34221a21.32124,21.32124,0,0,0-1.7609,1.79775,2.41974,2.41974,0,0,1-4.24912-1.64173c-.0296-1.97088,1.086-2.93246,3.02975-2.71894a11.16374,11.16374,0,0,0,4.42824-.64934,1.64557,1.64557,0,0,0,1.15621-1.66385c.00877-.76152-.45513-1.192-1.14017-1.638a5.5451,5.5451,0,0,0-4.90577-.59593c-1.03178.29864-2.17671-.5367-2.70544-1.74159a2.5929,2.5929,0,0,1,3.9057-3.05129,7.51363,7.51363,0,0,1,1.85541,2.00157,3.99393,3.99393,0,0,0,4.71568,1.2821c1.44842-.73944,1.87354-2.33182.9795-4.15279a10.6797,10.6797,0,0,0-2.52195-3.60363c-1.14-.97369-1.23642-3.29595-.14936-4.04017a2.63085,2.63085,0,0,1,3.91548.51058,2.551,2.551,0,0,1,.4236,2.15887,14.99572,14.99572,0,0,0,.24231,5.4443,2.09851,2.09851,0,0,0,.559,1.03793c1.41911,1.54824,2.2057,1.51932,3.60208-.07027a8.87458,8.87458,0,0,0,2.10957-4.32119,3.47787,3.47787,0,0,1,2.60143-2.044c1.19909-.03739,2.06263.74877,2.43186,2.214.27694,1.099-.237,2.59318-1.2405,2.80954-1.76227.38-2.79671,1.78084-4.20757,2.63652a1.88979,1.88979,0,0,0-.16554,2.96367,2.77746,2.77746,0,0,0,3.524.44341,13.38465,13.38465,0,0,0,2.25516-1.53445,2.532,2.532,0,0,1,2.77321-.596,3.06512,3.06512,0,0,1,1.71826,2.92985,2.80688,2.80688,0,0,1-2.79872,2.11966c-1.34455-.15561-2.67917-.40717-4.01235-.64871-2.20242-.399-3.73037.8286-3.6616,3.08164a53.06269,53.06269,0,0,0,.92183,8.54506c.32521,1.6698,1.65438,1.85555,2.86422,2.054,1.96431.32214,3.95312.50576,5.92882.78134,2.83285.39515,4.72494-.84448,6.12949-3.32477,1.66847-2.94639,1.335-6.01222.926-9.09907-.34966-2.63843-1.13851-5.24376-1.24289-7.88311a23.58225,23.58225,0,0,1,1.35784-9.38933,37.90906,37.90906,0,0,1,3.22934-6.62227,2.83451,2.83451,0,0,0,.27948-2.74324c-.71657-2.49655-.22065-5.31726,3.53445-5.4834a4.05634,4.05634,0,0,0,3.48333-2.27086,26.53,26.53,0,0,1,4.64867-5.42027,16.61007,16.61007,0,0,1,6.60882-4.36313c2.31672-.6729,5.45276-.51065,7.32507,2.17553,2.72262,3.9061,4.03638,8.289,5.03562,12.82991.28254,1.284.50875,2.58051.79841,3.86279a1.78328,1.78328,0,0,0,1.43292,1.44569,3.56429,3.56429,0,0,1,2.82292,3.18614,3.87282,3.87282,0,0,1-2.00206,4.46933,1.29391,1.29391,0,0,0-.77169,1.75057,10.65643,10.65643,0,0,1,.38723,3.316c.07254,1.83678.21031,3.67319.21492,5.51.01122,4.45544-1.12742,8.43561-4.4897,11.66186q-2.57906,2.47469-5.16762,4.94093a10.833,10.833,0,0,0-1.01375,12.93084c1.65215,2.782,3.11773,5.67411,4.70525,8.49538.99346,1.76552,1.78608,2.14128,3.71893,1.56152,2.28829-.68636,4.61994-1.23879,6.84353-2.14246,2.73341-1.11086,3.25585-2.76362,1.6205-5.2291-.61676-.92983-1.241-1.85842-1.79086-2.82784a2.94426,2.94426,0,0,1,.12608-3.16647,3.29057,3.29057,0,0,1,3.47854-.47586,2.91306,2.91306,0,0,1,1.03459,3.201c-.15653.57869-.36174,1.1454-.49523,1.7289a3.88594,3.88594,0,0,0,1.78276,4.13043,1.89447,1.89447,0,0,0,2.20342-.644c.61043-1.64786,1.65977-3.194,1.1128-5.13351-.27577-.97776.83886-2.53509,1.82483-2.81522a2.7716,2.7716,0,0,1,3.35692,1.604,2.58673,2.58673,0,0,1-1.14645,3.07372,7.56648,7.56648,0,0,0-3.22553,4.83209c-.23628.89007,1.06775,2.09141,2.16105,2.058a10.21475,10.21475,0,0,0,5.69256-1.92383,3.27108,3.27108,0,0,1,3.58138-.02106,3.0152,3.0152,0,0,1,.57631,3.20468,2.5327,2.5327,0,0,1-3.36806,1.23356,18.5965,18.5965,0,0,0-3.55985-.89423,4.73231,4.73231,0,0,0-3.60129.88775c-.619.40534-.84117,2.07863-.41294,2.90275a5.08491,5.08491,0,0,0,4.07147,2.90755,2.899,2.899,0,0,1,2.33925,1.97287,2.03032,2.03032,0,0,1-.54035,2.40874,2.69877,2.69877,0,0,1-2.91729.82933,2.3881,2.3881,0,0,1-1.52388-2.11242,6.13419,6.13419,0,0,0-2.11475-3.65819c-.69082-.59777-1.5175-1.05567-2.38526-.46483a2.06415,2.06415,0,0,0-1.01218,2.54925A19.16509,19.16509,0,0,0,503.198,168.485a2.68843,2.68843,0,0,1-.80181,3.60112,2.4351,2.4351,0,0,1-2.95915-.17c-1.38335-1.28971-1.51191-2.17723-.625-3.65554a5.2887,5.2887,0,0,0,.40885-5.33478,1.77542,1.77542,0,0,0-1.69254-1.09451,8.499,8.499,0,0,0-4.03329.96291,40.02921,40.02921,0,0,1-8.78632,3.04759,3.33262,3.33262,0,0,1-4.05964-1.62341c-1.40043-2.18185-2.7565-4.39214-4.13631-6.58727a2.143,2.143,0,0,0-2.87979-.73814,4.6433,4.6433,0,0,0-1.81644,1.87241,75.27311,75.27311,0,0,0-3.46972,9.16343,66.503,66.503,0,0,1-4.57477,11.93928,43.81065,43.81065,0,0,1-3.04956,4.788c-1.76864,2.43339-3.71776,4.73015-5.45829,7.15918a47.35474,47.35474,0,0,1-5.89931,6.70835,42.37662,42.37662,0,0,1-13.26858,9.09563,29.80679,29.80679,0,0,0-5.0626,2.43776c-1.07146.68851-1.21625,1.52317-.29263,2.41888a7.16392,7.16392,0,0,0,2.87845,1.63638c3.4666,1.08215,6.83808,2.40832,10.21926,3.719,1.56918.60823,2.94007,1.573,4.44652,2.29332,1.09153.52191,1.55307,2.86617,1.34336,4.466-.29452,2.24684-1.7221,3.31455-3.58948,4.14365a52.13985,52.13985,0,0,0-8.37694,4.32025,13.788,13.788,0,0,0-2.83132,2.17125c-.83991.96823-.58437,1.78636.68077,2.06773a5.03751,5.03751,0,0,0,3.23336-.57706c.72457-.33135,1.40638-.763,2.1445-1.05628a2.37448,2.37448,0,0,1,2.7588.56518,2.5289,2.5289,0,0,1,.59089,2.77027,2.43034,2.43034,0,0,1-2.409,1.62659,8.33736,8.33736,0,0,1-3.024-.66913,7.46,7.46,0,0,0-3.43639-.18781,1.3805,1.3805,0,0,0-1.33715,1.02363,1.49277,1.49277,0,0,0,.54026,1.4896c1.45456,1.48308,3.4542,1.515,5.27745,1.97742,1.09305.27722,2.1823.3894,2.86453,1.48068a2.61715,2.61715,0,0,1-.21853,3.29571,2.5688,2.5688,0,0,1-3.17846.45983,3.423,3.423,0,0,1-1.53834-1.42673c-.89193-1.75062-2.55231-2.82359-3.87833-4.19253a1.02893,1.02893,0,0,0-1.58-.02385,3.45585,3.45585,0,0,0-1.085,3.8015,33.78281,33.78281,0,0,0,2.4155,6.63126,2.42878,2.42878,0,0,1-1.18071,3.47793c-1.80031.68675-3.253.07292-3.7626-1.56384a2.354,2.354,0,0,1,.16408-1.62573c1.18348-3.05713.76792-6.13941-.15593-9.121-.593-1.914-2.27839-2.59286-4.184-2.23375a6.27059,6.27059,0,0,0-4.09992,2.43287c-1.2684,1.71658-3.21606,2.70413-4.61012,4.31363-.78852.91037-2.63952.73547-3.51349-.05019a3.46451,3.46451,0,0,1-.51333-3.58121,2.89031,2.89031,0,0,1,1.80612-1.06093,21.19761,21.19761,0,0,0,7.6815-3.18724,4.23316,4.23316,0,0,0,1.81308-3.19626c.12179-1.58588-1.19287-2.47686-2.36325-3.22078-2.92664-1.86032-6.35237-2.22243-9.6266-3.03606a2.37222,2.37222,0,0,1-1.93644-2.01545c-.23908-1.6666.17251-2.54883,1.37058-2.92881a3.137,3.137,0,0,1,3.18127.61185,31.14044,31.14044,0,0,0,6.59186,4.40288,5.4332,5.4332,0,0,0,5.52286-.72535,42.15313,42.15313,0,0,1,7.09923-3.8849,2.748,2.748,0,0,0,.799-.51406c.76808-.70947.64676-1.27567-.39119-1.48068a23.39244,23.39244,0,0,0-4.12874-.56918,23.14914,23.14914,0,0,1-4.933-.83335c-2.1708-.5083-4.3402-1.067-6.50585-1.59535a29.25436,29.25436,0,0,0-6.97872-.5223c-5.87237.00961-11.51,1.41851-17.16978,2.73186a88.95455,88.95455,0,0,0-14.76608,4.84194,61.57483,61.57483,0,0,0-10.83212,5.8032c-1.93325,1.32917-3.70691,2.83765-5.55871,4.25218a37.44052,37.44052,0,0,0-6.31582,6.49286,36.05883,36.05883,0,0,0-4.91451,8.38619,47.68012,47.68012,0,0,0-3.46354,12.24634c-1.06859,7.588-1.18766,15.15886,2.01719,22.363,4.93466,11.09256,13.39573,17.90139,25.37619,19.87616,11.557,1.90494,21.44791-1.69053,29.5965-10.08171a29.531,29.531,0,0,0,3.79072-4.93592C408.92685,293.96157,409.34983,293.40624,409.74827,292.83552Z" transform="translate(-336.30072 -78.41841)"/></svg>