<svg version="1.1" xmlns="http://www.w3.org/2000/svg" x="0" y="0" viewBox="0 0 1366 768" xml:space="preserve"><style>.mailster{fill:#2bb2e8}</style><path class="mailster" d="M805.11-5l-119.7 146.33L565.66-5H352.82v545.41h186.24V234.45l146.35 199.54 146.3-199.54v305.96h186.24V-5H805.11zM268.5 636.33c1.24 0 2.48 1.24 2.48 2.49v128.6c0 1.24-1.24 2.48-2.48 2.48h-12.42c-1.24 0-2.49-1.24-2.49-2.48V667.08h-.62s-5.28 9.94-9.63 15.84l-45.35 63.68-45.35-63.68c-4.35-5.9-9.63-15.84-9.63-15.84h-.62v100.33c0 1.24-1.24 2.48-2.49 2.48h-12.42c-1.24 0-2.49-1.24-2.49-2.48v-128.6c0-1.24 1.24-2.49 2.49-2.49h8.08c1.86 0 3.42.93 4.97 3.11l57.15 80.14h.62l57.15-80.14c1.55-2.17 3.11-3.11 4.97-3.11h8.08v.01zM439.33 765.23c.93 1.86 1.24 2.48 1.24 3.11 0 .93-.62 1.55-1.87 1.55h-12.73c-2.17 0-3.11-.31-4.35-2.79l-13.05-25.78h-77.03L318.5 767.1c-1.25 2.48-2.17 2.79-4.35 2.79h-12.74c-1.24 0-1.86-.62-1.86-1.55 0-.62.31-1.24 1.24-3.11l65.54-128.91h7.46l65.54 128.91zm-100.02-39.45h61.19l-17.71-35.1c-6.21-12.42-12.11-28.26-12.11-28.26h-1.24s-5.9 15.84-12.12 28.26l-18.01 35.1zM486.53 767.41c0 1.24-1.24 2.48-2.48 2.48h-12.42c-1.24 0-2.49-1.24-2.49-2.48v-128.6c0-1.24 1.24-2.49 2.49-2.49h12.42c1.24 0 2.48 1.24 2.48 2.49v128.6zM548.64 754.36h82.93c1.25 0 2.8 1.55 2.8 2.8v9.94c0 1.24-1.55 2.79-2.8 2.79h-97.84c-1.24 0-2.49-1.24-2.49-2.48v-128.6c0-1.24 1.25-2.49 2.49-2.49h12.43c1.24 0 2.48 1.24 2.48 2.49v115.55zM671.94 726.1c2.18 0 3.1.62 3.1 2.79 0 18.64 13.05 28.58 47.84 28.58 29.19 0 41.93-11.18 41.93-25.47 0-11.18-8.39-19.26-31.68-21.43l-34.48-3.11c-28.89-2.79-40.69-14.6-40.69-32.61 0-19.57 19.26-41.62 58.71-41.62 42.25 0 59.02 18.33 59.02 41.31 0 1.24-.93 2.49-2.49 2.49h-11.49c-2.17 0-3.41-.93-3.41-3.11 0-15.53-13.98-25.16-41.62-25.16-29.2 0-41.31 13.67-41.31 26.09 0 9.01 7.14 16.15 24.54 17.7l34.17 3.11c35.72 3.42 48.15 16.77 48.15 36.03S765.46 773 722.9 773c-44.42 0-64.92-17.4-64.92-44.11 0-2.17.93-2.79 2.79-2.79h11.17zM802.39 651.86c-1.24 0-2.8-1.55-2.8-2.8v-9.94c0-1.24 1.56-2.8 2.8-2.8h131.7c1.24 0 2.8 1.55 2.8 2.8v9.94c0 1.24-1.56 2.8-2.8 2.8h-57.16v115.55c0 1.24-1.24 2.48-2.48 2.48h-12.42c-1.25 0-2.49-1.24-2.49-2.48V651.86h-57.15zM982.85 709.32v45.04h93.81c1.24 0 2.79 1.55 2.79 2.8v9.94c0 1.24-1.55 2.79-2.79 2.79H967.94c-1.24 0-2.49-1.24-2.49-2.48v-128.6c0-1.24 1.24-2.49 2.49-2.49h105.61c1.24 0 2.79 1.55 2.79 2.8v9.94c0 1.24-1.55 2.8-2.79 2.8h-90.7v41.93h86.04c1.24 0 2.79 1.55 2.79 2.8v9.94c0 1.24-1.55 2.8-2.79 2.8h-86.04v-.01zM1115.77 638.81c0-1.24 1.24-2.49 2.49-2.49h67.09c30.44 0 52.8 16.46 52.8 44.42 0 22.06-13.66 36.34-35.4 41v.31s4.65 4.66 9 10.25l25.16 32.62c.94 1.24 2.17 2.79 2.17 3.42 0 .93-.61 1.55-1.86 1.55h-15.52c-1.87 0-2.8-.62-3.74-1.86l-34.47-44.73h-50.32v44.11c0 1.24-1.25 2.48-2.49 2.48h-12.42c-1.25 0-2.49-1.24-2.49-2.48v-128.6zm17.4 13.05v56.53h51.87c21.43 0 35.72-9.32 35.72-27.65 0-18.02-14.91-28.89-36.03-28.89h-51.56v.01z"/></svg>