<svg id="Layer_1" data-name="Layer 1" xmlns="http://www.w3.org/2000/svg" viewBox="0 0 100 100"><defs><style>.cls-1,.cls-3{fill:#231f20;}.cls-1{opacity:0;}.cls-2{fill:none;stroke:#231f20;stroke-linecap:round;stroke-linejoin:round;stroke-width:5px;}</style></defs><title>Artboard 1 copy 2</title><rect class="cls-1" width="100" height="100"/><path class="cls-2" d="M34.83,42.78a9.77,9.77,0,1,0-.56,19.16"/><path class="cls-2" d="M66.43,38.46a11.44,11.44,0,0,0-1.59.14"/><path class="cls-2" d="M67,61.22a11.39,11.39,0,0,0-.45-22.77h-.14"/><path class="cls-2" d="M59,41.35a11.34,11.34,0,0,1,5.85-2.75,16,16,0,0,0-30.12,4.54"/><g id="Arrow_30" data-name="Arrow 30"><path class="cls-3" d="M47,68.29H45.86a.87.87,0,0,0-.67,1.42l5.59,6.71a.87.87,0,0,0,1.33,0l5.59-6.71a.87.87,0,0,0-.67-1.42H55.93a1.39,1.39,0,0,1-1.39-1.39V51a.87.87,0,0,0-.87-.87H49.24a.87.87,0,0,0-.87.87V66.9A1.39,1.39,0,0,1,47,68.29Z"/></g></svg>