<svg id="Layer_1" data-name="Layer 1" xmlns="http://www.w3.org/2000/svg" viewBox="0 0 100 100"><defs><style>.cls-1{fill:#231f20;opacity:0;}.cls-2{fill:none;stroke:#231f20;stroke-linecap:round;stroke-linejoin:round;stroke-width:5px;}</style></defs><title>Artboard 1 copy 21</title><rect class="cls-1" width="100" height="100"/><path class="cls-2" d="M75,36.48a7.38,7.38,0,0,1-1.37,4.21,13.27,13.27,0,0,1-3.4,3.43L57.17,53.19,56,54q-.91.66-1.51,1.06T53,56a8.45,8.45,0,0,1-1.6.75A4.46,4.46,0,0,1,50,57H50a4.46,4.46,0,0,1-1.39-.25A8.43,8.43,0,0,1,47,56q-.85-.5-1.45-.91T44,54l-1.19-.85q-2.54-1.79-7.31-5.09l-5.72-4a13.84,13.84,0,0,1-3.26-3.22A6.52,6.52,0,0,1,25,37.09a5.63,5.63,0,0,1,1.16-3.63A4,4,0,0,1,29.46,32H70.54A4.5,4.5,0,0,1,75,36.48Z"/><path class="cls-2" d="M75,41.37V63.52A4.48,4.48,0,0,1,70.54,68H29.46A4.48,4.48,0,0,1,25,63.52V41.37"/></svg>