<svg id="Layer_1" data-name="Layer 1" xmlns="http://www.w3.org/2000/svg" viewBox="0 0 100 100"><defs><style>.cls-1{fill:#231f20;opacity:0;}.cls-2{fill:none;stroke:#231f20;stroke-linecap:round;stroke-linejoin:round;stroke-width:5px;}</style></defs><title>Artboard 1 copy 18</title><rect class="cls-1" width="100" height="100"/><path class="cls-2" d="M37,31.67a5.15,5.15,0,0,1-1.64,4A6.13,6.13,0,0,1,31,37.24h-.07a5.87,5.87,0,0,1-4.3-1.6,5.33,5.33,0,0,1-1.63-4,5.24,5.24,0,0,1,1.68-4,6.13,6.13,0,0,1,4.38-1.58,6,6,0,0,1,4.33,1.58A5.43,5.43,0,0,1,37,31.67Zm-.68,10V73.89H25.62V41.63ZM75,55.4V73.89H64.29V56.64A9.42,9.42,0,0,0,63,51.29a4.63,4.63,0,0,0-4.12-1.94,5.27,5.27,0,0,0-3.43,1.12,6.92,6.92,0,0,0-2.07,2.78A7.86,7.86,0,0,0,53,55.89v18H42.28q.06-13,.07-21.06t0-9.64l0-1.56H53v4.69h-.07a14.16,14.16,0,0,1,1.33-1.82,13.89,13.89,0,0,1,1.84-1.69,8.47,8.47,0,0,1,2.83-1.42,12.91,12.91,0,0,1,3.73-.5,11.56,11.56,0,0,1,9,3.69Q75,48.28,75,55.4Z"/></svg>