<svg id="Layer_1" data-name="Layer 1" xmlns="http://www.w3.org/2000/svg" viewBox="0 0 100 100"><defs><style>.cls-1{fill:#231f20;opacity:0;}.cls-2{fill:none;stroke:#231f20;stroke-linecap:round;stroke-linejoin:round;stroke-width:5px;}</style></defs><title>Artboard 1 copy 19</title><rect class="cls-1" width="100" height="100"/><path class="cls-2" d="M75,34.52a21.48,21.48,0,0,1-5.14,5.3q0,.44,0,1.33a29.11,29.11,0,0,1-1.21,8.23A29.75,29.75,0,0,1,65,57.26a31,31,0,0,1-5.85,6.68A26.06,26.06,0,0,1,51,68.58,30,30,0,0,1,40.74,70.3,28.45,28.45,0,0,1,25,65.7a21.75,21.75,0,0,0,2.47.13A20.07,20.07,0,0,0,40.2,61.45a10.27,10.27,0,0,1-9.58-7.11,13,13,0,0,0,1.94.16,10.59,10.59,0,0,0,2.7-.35,10.08,10.08,0,0,1-5.89-3.54A9.9,9.9,0,0,1,27,44.1V44a10.16,10.16,0,0,0,4.63,1.3,10.23,10.23,0,0,1-3.33-3.65,10.27,10.27,0,0,1,.16-10.06,29,29,0,0,0,9.34,7.57,28.54,28.54,0,0,0,11.79,3.16,11.38,11.38,0,0,1-.25-2.35,10.26,10.26,0,0,1,17.73-7,20.07,20.07,0,0,0,6.5-2.48,10,10,0,0,1-4.5,5.65A20.41,20.41,0,0,0,75,34.52Z"/></svg>