<svg id="Layer_1" data-name="Layer 1" xmlns="http://www.w3.org/2000/svg" viewBox="0 0 100 100"><defs><style>.cls-1,.cls-2{fill:#fff;stroke:#fff;stroke-miterlimit:10;}.cls-1{opacity:0;}</style></defs><title>Artboard 1 copy 17</title><rect class="cls-1" width="100" height="100"/><path class="cls-2" d="M56.18,50.37a16.77,16.77,0,0,1-1.89,8,13.62,13.62,0,0,1-5.38,5.51,15.92,15.92,0,0,1-8,2,15.6,15.6,0,0,1-6.18-1.26,15.56,15.56,0,0,1-8.46-8.46,15.83,15.83,0,0,1,0-12.37,15.56,15.56,0,0,1,8.46-8.46,15.6,15.6,0,0,1,6.18-1.26,15.18,15.18,0,0,1,7.88,2.07,2.72,2.72,0,0,1,.49,4.29l-.37.35a2.73,2.73,0,0,1-3.29.35A9.09,9.09,0,0,0,40.91,40,9.5,9.5,0,0,0,36,41.3a10.14,10.14,0,0,0,0,17.4A9.5,9.5,0,0,0,40.91,60a10.47,10.47,0,0,0,3.31-.5A8.4,8.4,0,0,0,46.7,58.3a9.06,9.06,0,0,0,1.7-1.7,7.77,7.77,0,0,0,1.06-1.8,8,8,0,0,0,.47-1.61H43.62a2.71,2.71,0,0,1-2.71-2.71v0a2.71,2.71,0,0,1,2.71-2.71h9.85a2.68,2.68,0,0,1,2.71,2.62Z"/><polygon class="cls-2" points="75 47.72 75 52.28 70.46 52.28 70.46 56.81 65.91 56.81 65.91 52.28 61.37 52.28 61.37 47.72 65.91 47.72 65.91 43.19 70.46 43.19 70.46 47.72 75 47.72"/></svg>