<svg id="Layer_1" data-name="Layer 1" xmlns="http://www.w3.org/2000/svg" viewBox="0 0 100 100"><defs><style>.cls-1{fill:#231f20;stroke-miterlimit:10;opacity:0;}.cls-1,.cls-2{stroke:#fff;}.cls-2{fill:none;stroke-linecap:round;stroke-linejoin:round;stroke-width:5px;}</style></defs><title>Artboard 1 copy 24</title><rect class="cls-1" width="100" height="100"/><path class="cls-2" d="M72.95,36.43V66.7a7.91,7.91,0,0,1-2.49,5.86A8.15,8.15,0,0,1,64.55,75H49.41a8.1,8.1,0,0,1-6-2.44L27.05,55.86q2.64-2.54,2.73-2.54a2.46,2.46,0,0,1,1.66-.59,2.8,2.8,0,0,1,1.27.29l9,5.08V33.3a3.13,3.13,0,0,1,6.25,0V47.95H50V28.12a3.13,3.13,0,1,1,6.25,0V47.95H58.3V30.18a3.13,3.13,0,0,1,6.25,0V47.95H66.7V36.43a3.12,3.12,0,0,1,6.25,0Z"/></svg>