<svg id="Layer_1" data-name="Layer 1" xmlns="http://www.w3.org/2000/svg" viewBox="0 0 100 100"><defs><style>.cls-1{fill:#231f20;stroke-miterlimit:10;opacity:0;}.cls-1,.cls-2{stroke:#fff;}.cls-2{fill:none;stroke-linecap:round;stroke-linejoin:round;stroke-width:5px;}</style></defs><title>Artboard 1 copy 14</title><rect class="cls-1" width="100" height="100"/><polyline class="cls-2" points="75.99 24.85 58.99 24.85 58.99 41.84"/><line class="cls-2" x1="75.99" y1="24.85" x2="75.99" y2="41.78"/><line class="cls-2" x1="75.99" y1="74.88" x2="75.99" y2="57.88"/><line class="cls-2" x1="75.99" y1="74.88" x2="59.06" y2="74.88"/><line class="cls-2" x1="25.99" y1="74.88" x2="42.99" y2="74.88"/><line class="cls-2" x1="25.99" y1="74.88" x2="25.99" y2="57.94"/><line class="cls-2" x1="25.99" y1="57.88" x2="25.99" y2="74.88"/><polyline class="cls-2" points="25.99 57.88 42.92 57.88 42.92 74.88"/><polyline class="cls-2" points="75.99 57.88 58.99 57.88 58.99 74.88"/><line class="cls-2" x1="75.99" y1="57.88" x2="75.99" y2="74.81"/><line class="cls-2" x1="25.99" y1="24.85" x2="25.99" y2="41.84"/><polyline class="cls-2" points="25.99 24.85 42.92 24.85 42.92 41.84"/><line class="cls-2" x1="25.99" y1="41.84" x2="42.99" y2="41.84"/><line class="cls-2" x1="25.99" y1="41.84" x2="25.99" y2="24.91"/><line class="cls-2" x1="75.99" y1="41.84" x2="75.99" y2="24.85"/><line class="cls-2" x1="75.99" y1="41.84" x2="59.06" y2="41.84"/></svg>