<svg id="Layer_1" data-name="Layer 1" xmlns="http://www.w3.org/2000/svg" viewBox="0 0 100 100"><defs><style>.cls-1{fill:#231f20;stroke-miterlimit:10;opacity:0;}.cls-1,.cls-2{stroke:#fff;}.cls-2{fill:none;stroke-linecap:round;stroke-linejoin:round;stroke-width:5px;}</style></defs><title>Artboard 1 copy 16</title><rect class="cls-1" width="100" height="100"/><path class="cls-2" d="M61.86,34.63,36.15,58.33a4.19,4.19,0,0,0-1.7,3.22,3.53,3.53,0,0,0,2.22,3.32,4.25,4.25,0,0,0,4.44-.32,44,44,0,0,0,3.47-3.07Q57.4,49.67,70.22,37.85c2-1.79,3.13-3.83,2.81-6.41-.71-3.68-1.83-4.84-5-5.94a8.18,8.18,0,0,0-8.61,1.91c-10.23,9.42-20.5,18.8-30.68,28.26C22,62,24.8,72.07,33.92,74.51a12,12,0,0,0,11.57-2.65c9.91-9,19.68-18.06,29.51-27.1"/></svg>