<svg id="Layer_1" data-name="Layer 1" xmlns="http://www.w3.org/2000/svg" viewBox="0 0 100 100"><defs><style>.cls-1{fill:#231f20;stroke-miterlimit:10;opacity:0;}.cls-1,.cls-2{stroke:#fff;}.cls-2{fill:none;stroke-linecap:round;stroke-linejoin:round;stroke-width:5px;}</style></defs><title>Artboard 1 copy 4</title><rect class="cls-1" width="100" height="100"/><path class="cls-2" d="M38.36,25H61.74a4.9,4.9,0,0,1,4.9,4.9v9.67a0,0,0,0,1,0,0H33.46a0,0,0,0,1,0,0V29.9A4.9,4.9,0,0,1,38.36,25Z"/><path class="cls-2" d="M70.1,39.56H29.9a4.9,4.9,0,0,0-4.9,4.9v8.32a4.9,4.9,0,0,0,4.9,4.9h3.56V55.3a4.9,4.9,0,0,1,4.9-4.9H61.74a4.9,4.9,0,0,1,4.9,4.9v2.38H70.1a4.9,4.9,0,0,0,4.9-4.9V44.46A4.9,4.9,0,0,0,70.1,39.56Z"/><path class="cls-2" d="M33.46,57.68V70.1a4.9,4.9,0,0,0,4.9,4.9H61.74a4.9,4.9,0,0,0,4.9-4.9V57.68"/><path class="cls-2" d="M66.64,57.68V55.3a4.9,4.9,0,0,0-4.9-4.9H38.36a4.9,4.9,0,0,0-4.9,4.9v2.38"/></svg>