<?xml version="1.0" encoding="utf-8"?>
<!-- Generator: Adobe Illustrator 24.1.3, SVG Export Plug-In . SVG Version: 6.00 Build 0)  -->
<svg version="1.1" id="Layer_1" xmlns="http://www.w3.org/2000/svg" xmlns:xlink="http://www.w3.org/1999/xlink" x="0px" y="0px"
	 viewBox="0 0 100 100" style="enable-background:new 0 0 100 100;" xml:space="preserve">
<style type="text/css">
	.st0{fill:#FFFFFF;}
</style>
<g id="WA_Logo">
	<g>
		<path class="st0" d="M72.2,27.7c-6-6-14-9.3-22.5-9.3C32.3,18.4,18,32.6,18,50.1c0,5.6,1.5,11,4.2,15.9l-4.5,16.4L34.6,78
			c4.6,2.5,9.8,3.9,15.2,3.9l0,0l0,0c17.5-0.1,31.7-14.3,31.7-31.8C81.5,41.7,78.1,33.7,72.2,27.7z M49.7,76.5L49.7,76.5
			c-4.7,0-9.4-1.3-13.5-3.7l-1-0.6l-10,2.6l2.7-9.7l-0.6-1c-2.6-4.2-4-9.1-4-14c0-14.5,11.8-26.3,26.4-26.3c7,0,13.7,2.8,18.6,7.7
			S76,43.1,76,50.2C76.1,64.7,64.3,76.5,49.7,76.5z M64.2,56.8c-0.8-0.4-4.7-2.3-5.5-2.5c-0.7-0.3-1.3-0.4-1.8,0.4
			c-0.5,0.8-2.1,2.5-2.5,3.1c-0.5,0.5-0.9,0.6-1.7,0.2c-0.8-0.4-3.3-1.2-6.4-4c-2.3-2.1-4-4.7-4.4-5.5c-0.5-0.8-0.1-1.2,0.4-1.6
			c0.4-0.4,0.8-0.9,1.2-1.4s0.5-0.8,0.8-1.3s0.1-1-0.1-1.4c-0.2-0.4-1.8-4.3-2.5-5.9c-0.6-1.6-1.3-1.3-1.8-1.3s-1,0-1.5,0
			s-1.4,0.2-2.1,1s-2.8,2.7-2.8,6.6s2.8,7.6,3.3,8.2c0.4,0.5,5.6,8.6,13.5,12c1.9,0.8,3.4,1.3,4.5,1.7c1.9,0.6,3.6,0.5,5,0.3
			c1.6-0.2,4.7-1.9,5.4-3.8c0.6-1.8,0.6-3.5,0.5-3.8C65.5,57.3,65,57.1,64.2,56.8z"/>
	</g>
</g>
</svg>
