<svg width="64" height="64" xmlns="http://www.w3.org/2000/svg" xml:space="preserve" enable-background="new 0 0 64 64" preserveAspectRatio="xMinYMid" version="1.1">
 <g>
  <title>Layer 1</title>
  <g id="svg_11">

  </g>
  <path transform="rotate(180 21.8989 31.8916)" id="svg_7" d="m10.82923,4.03428c0,0 3.88707,-2.02804 6.92913,0c3.71807,2.36604 5.07009,6.25311 5.07009,11.15421c0,1.85903 -0.169,3.71807 -0.50701,5.2391s-0.33801,3.04206 -0.50701,3.88707l16.2243,0c2.70405,0 5.07009,1.85903 5.5771,4.56308c0.50701,2.36604 -0.50701,4.39408 -2.19704,5.5771c1.35202,1.01402 2.36604,2.70405 2.36604,4.56308c0,2.19704 -1.18302,4.05607 -3.04206,4.90109c0.67601,0.84502 1.01402,2.02804 1.01402,3.21106c0,2.70405 -2.02804,5.07009 -4.56308,5.4081c0.50701,1.01402 0.84502,2.19704 0.67601,3.38006c-0.33801,2.70405 -2.87305,4.73209 -5.5771,4.73209l-26.36448,0c-3.04206,0 -5.91511,-2.02804 -5.91511,-5.07009l0,-20.95639c0,-0.169 0,-0.33801 0,-0.33801l0,0l11.83022,-18.92835c0.169,-0.169 0.169,-0.33801 0.169,-0.50701l-1.18302,-10.8162l0,0.00001z" fill="#d1bc9e" stroke="null"/>
  <path transform="rotate(180 53.6041 17.8533)" id="svg_10" d="m60.02627,2.64306c1.85903,0 3.38006,1.35202 3.71807,2.87305c0,0.169 0,0.33801 0,0.33801l0,20.95639l0,2.87305c0,1.85903 -1.69003,3.38006 -3.71807,3.38006l-12.84424,0c-2.02804,0 -3.71807,-1.52103 -3.71807,-3.38006l0,-23.66043c0,-1.85903 1.69003,-3.38006 3.71807,-3.38006l12.84424,0l0,-0.00001z" fill="#be5032" stroke="null"/>
 </g>

</svg>