<svg width="20" height="20" viewBox="0 0 20 20" fill="none" xmlns="http://www.w3.org/2000/svg">
<path fill-rule="evenodd" clip-rule="evenodd" d="M13.6796 7.49917L15.8338 7.5C16.2938 7.5 16.6671 7.87334 16.6671 8.33417C16.6663 8.79417 16.2929 9.16667 15.8338 9.16667H15.8329L11.6871 9.16417C11.2287 9.16417 10.8562 8.79334 10.8537 8.335L10.8337 4.17084C10.8312 3.71084 11.2021 3.33584 11.6629 3.33334H11.6671C12.1254 3.33334 12.4979 3.70334 12.5004 4.1625L12.5104 6.31084L15.2438 3.5775C15.5696 3.25167 16.0971 3.25167 16.4229 3.5775C16.7479 3.90334 16.7479 4.43 16.4229 4.75584L13.6796 7.49917ZM4.17042 10.8337L8.33458 10.8545C8.79292 10.857 9.16375 11.2287 9.16375 11.687L9.16708 15.8328C9.16708 16.2928 8.79375 16.667 8.33375 16.667C7.87292 16.667 7.50042 16.2937 7.50042 15.8345L7.49875 13.6803L4.75625 16.4228C4.59292 16.5853 4.37958 16.667 4.16708 16.667C3.95375 16.667 3.74042 16.5853 3.57792 16.4228C3.25208 16.097 3.25208 15.5695 3.57792 15.2445L6.31042 12.5112L4.16292 12.5003C3.70208 12.4978 3.33125 12.122 3.33375 11.6628C3.33542 11.2037 3.70875 10.8337 4.16708 10.8337H4.17042Z" fill="white"/>
</svg>
