<svg xmlns="http://www.w3.org/2000/svg" viewBox="0 0 146.63 121.15"><defs><style>.cls-1{fill:#fff;}</style></defs><g id="Layer_2" data-name="Layer 2"><g id="Layer_1-2" data-name="Layer 1"><path class="cls-1" d="M36.88,77.18C34.94,49.68,41.62,19.45,62.4,0c4.9,3.94,9.81,7.89,14.66,11.89C61.82,22.9,49.42,38.1,42.92,55.83,39.93,62.66,39,70.1,36.88,77.18Z"/><path class="cls-1" d="M27.07,78.7C16.75,68.82,8.07,57.37,0,45.63A75.27,75.27,0,0,0,9.66,50C14.92,59.85,19.92,70,27.07,78.7Z"/><path class="cls-1" d="M13.25,10.57C19.65,13.63,26,16.83,32.32,20c-1.44,10.61-3,21.27-2.53,32-.4,9.55,1.7,18.91,3,28.3C22,58.64,14,35,13.25,10.57Z"/><path class="cls-1" d="M68.45,36.93a122.69,122.69,0,0,1,34.27-19c4.84,5,9.8,9.86,14.7,14.8C126.6,43.3,136.89,52.87,146.63,63q-3.3,2.2-6.56,4.49C126.8,56.1,115.16,43,102.43,31.06a4,4,0,0,0-4.14-.85C80.24,37.63,63.59,49,51.14,64.14c-4.15,5-7.35,10.77-10.81,16.3,2.72-8.13,5.39-16.44,10.3-23.57C55.69,49.52,61.33,42.4,68.45,36.93Z"/><path class="cls-1" d="M63.85,63.32A145.53,145.53,0,0,1,99.14,41.51c12.25,12.12,25.12,23.6,37.72,35.35C121.2,85.06,107,96.22,96.22,110.3a84.29,84.29,0,0,1,29.15-31.85c-.35-1.51-.33-3.28-1.8-4.19-7.53-6.52-15-13.1-22.35-19.85A83.73,83.73,0,0,0,65.6,76.34c-11.06,11.94-19.25,26.32-25.46,41.3l-1.1.83C33.32,106.84,26,95.81,16.41,87,12.14,82.88,7,79.93,2,76.71,10.4,78.81,18.89,81.2,26.17,86c4.62,2.59,8,7,13,9A107.32,107.32,0,0,1,63.85,63.32Z"/><path class="cls-1" d="M73.85,109l-4.27,4.62,4.82,4.45-2.85,3.08-16.36-15.1c2.37-2.57,4.72-5.16,7.1-7.73C69.67,90.32,81.26,101,73.85,109Zm-7.09,2L71,106.39c3.64-4-2.17-9.28-5.8-5.35L61,105.66Z"/><path class="cls-1" d="M91.12,83.27c4.2,3.75,6,10.14.76,15.86L86,105.56,69.59,90.45,75.52,84C80.7,78.42,87,79.61,91.12,83.27ZM85.81,99.76l3.1-3.37c3.44-3.71,2.08-7.69-.65-10.08s-6.53-3.14-9.81.42l-3.11,3.36Z"/><path class="cls-1" d="M101.77,88.42,85.44,73.34,96.29,61.58l3,2.74-8,8.67,4.47,4.12,7.57-8.2,2.85,2.63-7.57,8.21,6.05,5.58Z"/></g></g></svg>