<svg xmlns="http://www.w3.org/2000/svg" viewBox="0 0 545.22 450.51"><defs><style>.cls-1{fill:#00aeef;}.cls-2{fill:#006838;}.cls-3{fill:#662d91;}</style></defs><g id="Layer_2" data-name="Layer 2"><g id="Layer_1-2" data-name="Layer 1"><path class="cls-1" d="M137.12,287C129.93,184.72,154.76,72.34,232,0c18.22,14.67,36.48,29.33,54.53,44.21-56.68,40.94-102.78,97.46-127,163.39C148.48,233,145.05,260.65,137.12,287Z"/><path class="cls-1" d="M100.64,292.63C62.3,255.9,30,213.35,0,169.68c11.69,5.91,23.47,11.81,35.9,16.07C55.48,222.56,74.08,260.11,100.64,292.63Z"/><path class="cls-2" d="M49.29,39.29c23.79,11.4,47.34,23.3,70.89,35.2-5.37,39.45-11.19,79.07-9.42,119C109.28,229,117.08,263.83,122,298.74,81.8,218.06,52,130.1,49.29,39.29Z"/><path class="cls-2" d="M254.54,137.33A456.92,456.92,0,0,1,382,66.47c18,18.55,36.44,36.69,54.66,55C470.77,161,509,196.61,545.22,234.17q-12.27,8.18-24.37,16.69c-49.33-42.26-92.63-91-140-135.35-3.85-4.33-10.17-4.71-15.37-3.18-67.14,27.6-129.07,69.78-175.34,126.18-15.45,18.75-27.35,40-40.2,60.6,10.12-30.24,20-61.14,38.3-87.62C207.07,184.14,228.05,157.65,254.54,137.33Z"/><path class="cls-3" d="M237.43,235.45c39.25-33.47,84.16-60.11,131.22-81.1,45.57,45.07,93.41,87.75,140.26,131.46-58.21,30.49-111,72-151.13,124.36,24.83-48.26,63-88.95,108.41-118.45-1.32-5.62-1.24-12.19-6.69-15.58-28-24.25-55.86-48.71-83.13-73.82-50.24,15.08-95.93,44-132.45,81.55-41.11,44.41-71.56,97.87-94.65,153.56l-4.09,3.1c-21.28-43.25-48.46-84.28-84.16-117C45.16,308.2,26,297.21,7.6,285.23c31.07,7.81,62.63,16.69,89.69,34.42,17.19,9.62,29.87,25.94,48.34,33.5C168.89,308.86,199.38,268.13,237.43,235.45Z"/><path class="cls-2" d="M274.63,405.3l-15.89,17.21L276.64,439l-10.59,11.47-60.83-56.17c8.83-9.55,17.57-19.19,26.4-28.75C259.06,335.87,302.15,375.5,274.63,405.3Zm-26.4,7.5,15.88-17.2c13.56-14.69-8.06-34.5-21.55-19.9l-15.88,17.2Z"/><path class="cls-2" d="M338.81,309.64c15.62,13.94,22.51,37.69,2.85,59l-22.06,23.9-60.83-56.17,22.06-23.9C300.09,291.6,323.53,296,338.81,309.64ZM319.07,371l11.56-12.52c12.76-13.82,7.73-28.6-2.42-37.48-9.71-8.49-24.31-11.67-36.51,1.54L280.14,335Z"/><path class="cls-2" d="M378.44,328.78,317.7,272.7,358.06,229l11,10.19-29.76,32.24,16.6,15.33,28.16-30.5,10.6,9.78-28.16,30.5L389,317.32Z"/></g></g></svg>