<?xml version="1.0" encoding="iso-8859-1"?>
<!-- Generator: Adobe Illustrator 19.0.0, SVG Export Plug-In . SVG Version: 6.00 Build 0)  -->
<svg version="1.1" id="Layer_1" xmlns="http://www.w3.org/2000/svg" xmlns:xlink="http://www.w3.org/1999/xlink" x="0px" y="0px"
	 viewBox="0 0 473.931 473.931" style="enable-background:new 0 0 473.931 473.931;" xml:space="preserve">
<circle style="fill:#49A0AE;" cx="236.966" cy="236.966" r="236.966"/>
<path style="fill:#C90018;" d="M158.441,360.844c-8.071,10.975-28.647,17.863-35.072,13.684c-6.417-4.191,0.449-60.706-9.643-67.281
	c-10.088-6.578-66.218,14.383-72.654,6.514c-6.428-7.861-2.627-14.87,5.429-25.822l102.322-109.566
	c8.067-10.956,24.46-13.425,36.621-5.504l38.54,25.103c12.157,7.918,15.483,23.229,7.412,34.192L158.441,360.844z"/>
<path style="fill:#EF0012;" d="M145.745,361.742c-8.756,10.425-18.443,16.857-24.494,12.161c-6.05-4.711-6.387-62.109-15.902-69.488
	c-9.504-7.383-66.476,9.433-72.268,1.018c-5.803-8.393-1.553-15.154,7.192-25.567l108.919-102.453
	c8.756-10.413,25.141-11.652,36.598-2.754l36.31,28.187c11.457,8.894,13.654,24.557,4.905,34.978L145.745,361.742z"/>
<path style="fill:#C90018;" d="M317.316,360.844c8.071,10.975,28.647,17.863,35.072,13.684c6.417-4.191-0.449-60.706,9.643-67.281
	c10.088-6.578,66.218,14.383,72.654,6.514c6.428-7.861,2.627-14.87-5.429-25.822L326.933,178.373
	c-8.067-10.956-24.46-13.425-36.621-5.504l-38.54,25.103c-12.157,7.918-15.483,23.229-7.412,34.192L317.316,360.844z"/>
<path style="fill:#EF0012;" d="M330.016,361.742c8.756,10.425,18.443,16.857,24.494,12.161c6.05-4.711,6.387-62.109,15.902-69.488
	c9.504-7.383,66.476,9.433,72.268,1.018c5.803-8.393,1.553-15.154-7.192-25.567L326.57,177.412
	c-8.756-10.413-25.141-11.652-36.598-2.754l-36.31,28.187c-11.457,8.894-13.654,24.557-4.905,34.978L330.016,361.742z"/>
<g>
	<path style="fill:#C90018;" d="M330.079,263.895c0,16.531-13.399,29.927-29.927,29.927H175.447
		c-16.527,0-29.927-13.396-29.927-29.927V139.19c0-16.524,13.399-29.927,29.927-29.927h124.705
		c16.527,0,29.927,13.403,29.927,29.927V263.895z"/>
	<path style="fill:#C90018;" d="M258.964,310.888c-11.689,11.686-30.641,11.686-42.331,0l-88.178-88.178
		c-11.682-11.689-11.682-30.638,0-42.331l88.178-88.175c11.686-11.686,30.638-11.686,42.331,0l88.178,88.175
		c11.682,11.693,11.682,30.641,0,42.331L258.964,310.888z"/>
</g>
<circle style="fill:#FFC50B;" cx="237.789" cy="201.542" r="82.307"/>
<polygon style="fill:#FFF800;" points="237.789,139.916 255.884,176.562 296.329,182.448 267.053,210.972 273.964,251.255 
	237.789,232.236 201.606,251.255 208.521,210.972 179.257,182.448 219.701,176.562 "/>
<g>
</g>
<g>
</g>
<g>
</g>
<g>
</g>
<g>
</g>
<g>
</g>
<g>
</g>
<g>
</g>
<g>
</g>
<g>
</g>
<g>
</g>
<g>
</g>
<g>
</g>
<g>
</g>
<g>
</g>
</svg>
