<?xml version="1.0" encoding="iso-8859-1"?>
<!-- Generator: Adobe Illustrator 19.0.0, SVG Export Plug-In . SVG Version: 6.00 Build 0)  -->
<svg version="1.1" id="Layer_1" xmlns="http://www.w3.org/2000/svg" xmlns:xlink="http://www.w3.org/1999/xlink" x="0px" y="0px"
	 viewBox="0 0 473.931 473.931" style="enable-background:new 0 0 473.931 473.931;" xml:space="preserve">
<circle style="fill:#D62127;" cx="236.966" cy="236.966" r="236.966"/>
<g>
	<path style="fill:#FFC50B;" d="M345.776,364.672c-10.159,10.099-22.129,15.468-36.508,14.668
		c-10.963-0.614-20.741-4.722-29.781-10.739c-3.832-2.556-7.674-5.1-11.379-7.832c-5.583-4.116-11.73-4.348-18.009-3.326
		c12.509,8.752,25.01,17.496,38.177,26.709c-3.132,2.907-5.122,4.756-8.438,7.835c-1.048-1.714-1.661-3.63-2.963-4.718
		c-10.193-8.505-20.512-16.857-30.806-25.242c-3.139-2.559-6.249-2.009-9.553-0.105c-11.798,6.803-22.151,15.33-31.045,25.635
		c-0.958,1.111-1.901,2.234-3.21,3.775c-2.238-1.777-4.355-3.457-6.945-5.519c11.192-11.641,23.951-20.557,38.869-27.88
		c-7.454-2.806-13.223-0.707-18.585,2.597c-6.159,3.794-11.925,8.206-18.08,12c-20.363,12.55-45.754,9.803-61.211-6.518
		c4.666,1.175,9.194,2.563,13.822,3.435c9.826,1.845,19.259,0.258,28.392-3.708c12.344-5.358,24.523-11.251,38.17-12.726
		c0.49-0.052,0.98-0.262,1.459-0.232c8.73,0.606,17.601,2.507,26.14,1.519c8.864-1.029,17.654-2.934,26.368-0.797
		c8.707,2.129,17.414,4.808,25.605,8.419C312.523,369.083,328.687,372.586,345.776,364.672z"/>
	<path style="fill:#FFC50B;" d="M328.575,342.334c10.425-10.63,13.889-23.629,17.994-36.246c3.57-10.978,9.444-20.516,16.999-29.912
		c-2.309,12.146-3.424,24.06-7.064,35.146c-2.724,8.284-8.711,15.506-14.196,22.937c0.92-0.471,1.882-0.876,2.754-1.426
		c9.56-6.017,18.862-12.486,28.714-17.975c10.851-6.043,21.672-11.858,28.946-24.045
		C395.235,318.285,373.091,337.664,328.575,342.334z"/>
	<path style="fill:#FFC50B;" d="M79.385,294.933c6.395,9.594,15.873,15.008,25.676,20.28c10.234,5.508,20.022,11.843,30.005,17.811
		c1.373,0.823,2.735,1.654,4.299,2.597c0.037-0.651,0.161-1.033,0.049-1.123c-13.687-11.135-16.658-26.918-18.866-43.09
		c-0.565-4.146-1.665-8.221-2.522-12.322c0.445-0.247,0.891-0.494,1.336-0.741c4.801,8.513,10.406,16.681,14.211,25.612
		c5.691,13.358,8.415,28.063,19.468,39.187c-23.453-2.436-45.38-6.66-61.182-25.556C86.225,310.839,81.484,303.685,79.385,294.933z"
		/>
	<path style="fill:#FFC50B;" d="M362.363,314.244c8.108-17.639,6.223-36.613,9.014-54.798c0.864-5.616,2.339-11.139,4.157-16.61
		c2.492,18.2,10.447,36.407-0.767,54.3c-0.213,0.34-0.127,0.872-0.284,2.181c2.028-2.769,3.465-4.932,5.104-6.93
		c6.245-7.607,12.333-15.356,18.907-22.668c6.413-7.132,12.729-14.211,16.756-23.487c-0.378,4.153-0.367,8.385-1.197,12.445
		c-2.896,14.106-10.466,25.609-21.575,34.391C382.861,300.669,372.429,307.228,362.363,314.244z"/>
	<path style="fill:#FFC50B;" d="M107.751,299.812c-13.175-18.222-3.843-37.234-1.583-56.235c1.392,6.597,3.166,13.137,4.09,19.798
		c1.598,11.547,2.331,23.221,4.105,34.739c0.906,5.856,3.282,11.487,5.164,17.792c-15.386-10.282-31.921-18.634-43.086-33.87
		c-6.997-9.549-10.256-20.34-9.414-32.389c4.816,12.554,15.147,20.628,23.712,30.147c4.157,4.621,7.667,9.826,11.465,14.772
		c1.437,1.871,2.862,3.757,4.296,5.635C106.913,300.074,107.332,299.939,107.751,299.812z"/>
	<path style="fill:#FFC50B;" d="M143.762,313.87c7.016,6.354,14.35,12.4,20.984,19.135c9.324,9.467,19.566,17.044,33.077,20.527
		c-14.282,2.683-28.467,6.469-42.873,7.779c-20.179,1.826-35.891-7.446-47.711-23.644c12.243,9.362,26.754,9.83,41.163,10.975
		c9.452,0.748,18.855,2.118,28.49,2.949c-8.329-2.799-16.658-5.837-21.448-13.777c-4.535-7.513-8.58-15.326-12.842-23.012
		C142.988,314.491,143.373,314.181,143.762,313.87z"/>
	<path style="fill:#FFC50B;" d="M284.778,352.418c14.099-2.956,23.981-11.876,33.493-21.62c6.286-6.436,13.152-12.307,19.764-18.428
		c0.355,0.281,0.715,0.561,1.07,0.842c-4.03,7.745-7.73,15.685-12.187,23.18c-4.688,7.891-12.804,11.36-20.976,14.888
		c3.435-0.595,6.855-1.343,10.316-1.762c11.091-1.34,22.204-2.526,33.302-3.835c9.508-1.123,18.189-4.277,25.919-10.529
		c-0.471,0.838-0.894,1.706-1.422,2.499c-0.546,0.819-1.156,1.601-1.8,2.342c-14.331,16.46-32.258,23.364-53.836,19.592
		C307.131,357.615,295.984,354.835,284.778,352.418z"/>
	<path style="fill:#FFC50B;" d="M386.629,272.741c2.69-17.609-6.193-31.558-8.849-46.809c-1.377-7.906-2.731-15.813-3.098-23.981
		c5.384,9.785,11.106,19.405,16.045,29.406c3.517,7.128,3.375,14.963,1.777,22.709c-0.221,1.07-0.389,2.144,0.374,3.442
		c0.812-3.364,1.429-6.788,2.481-10.077c2.593-8.108,5.441-16.138,8.09-24.235c3.035-9.28,5.961-18.6,8.539-26.653
		C421.434,213.254,411.47,246.114,386.629,272.741z"/>
	<path style="fill:#FFC50B;" d="M107.658,204.48c-2.451,12.007-4.546,24.097-7.454,35.992c-2.705,11.087-7.457,21.751-5.287,34.334
		c-14.724-16.479-28.404-32.452-28.112-55.329c0.094-7.143,0.969-14.279,2.327-21.481c0.999,13.83,8.501,25.19,13.036,37.59
		c2.017,5.512,3.012,11.39,4.501,17.096c0.617,2.354,1.306,4.685,2.533,7.083c-6.462-22.353,8.554-38.02,16.898-55.726
		C106.618,204.192,107.142,204.338,107.658,204.48z"/>
	<path style="fill:#FFC50B;" d="M364.152,168.005c11.682,13.627,29.066,21.272,29.541,41.657c0.412-0.228,0.823-0.457,1.235-0.681
		c-0.277-4.037-0.894-8.09-0.767-12.112c0.326-9.998,1.31-19.985,1.414-29.983c0.064-5.991-1.022-11.989-1.527-17.309
		c5.186,4.569,10.567,16.64,11.585,27.15c1.01,10.451-0.037,20.561-4.078,30.428c-2.645,6.462-4.34,13.317-6.47,20.015
		c-2.608-11.345-9.874-20.314-16.819-29.455c-5.807-7.641-10.769-15.708-13.227-25.1
		C364.754,171.541,364.612,170.437,364.152,168.005z"/>
	<path style="fill:#FFC50B;" d="M86.199,227.787c-2.773-7.757-6.062-16.157-8.782-24.733c-5.908-18.612-3.079-35.857,8.056-51.112
		c0,8.071,0,16.512,0,24.95c0,11.454,0,22.907,0,34.361c0.513,0.217,1.025,0.43,1.538,0.644c1.414-19.73,17.336-28.92,28.74-41.391
		c0.434,0.187,0.868,0.378,1.298,0.569c-3.33,7.345-6.185,14.963-10.129,21.964c-4.019,7.132-9.354,13.508-13.642,20.501
		C90.386,218.246,88.313,223.462,86.199,227.787z"/>
	<path style="fill:#FFC50B;" d="M389.315,183.473c-9.003-7.682-17.631-15.184-26.413-22.503
		c-7.457-6.215-12.314-13.889-14.574-24.815c10.005,13.564,26.72,17.773,34.581,32.044c-5.938-14.327-4.677-30.989-14.859-44.194
		c1.654,0.864,3.435,1.557,4.943,2.634c11.296,8.071,16.58,19.124,16.344,32.976C389.199,167.661,389.315,175.717,389.315,183.473z"
		/>
	<path style="fill:#FFC50B;" d="M91.785,186.538c0-12.176-0.947-24.048,0.266-35.696c1.212-11.644,8.984-19.465,19.521-24.4
		c-10.855,13.482-8.281,31.352-15.36,46.203c6.892-16.116,25.014-20.475,34.248-33.923c0.389,0.183,0.778,0.374,1.171,0.558
		c-1.616,3.925-2.473,8.438-4.999,11.644c-5.137,6.522-11.068,12.441-16.868,18.409c-5.351,5.508-10.956,10.761-16.464,16.116
		C92.904,185.838,92.395,186.108,91.785,186.538z"/>
	<path style="fill:#FFC50B;" d="M371.699,149.629c-16.696-10.44-25.893-27.771-38.899-41.522
		C351.684,109.791,370.232,129.521,371.699,149.629z"/>
	<path style="fill:#FFC50B;" d="M108.028,151.122c2.978-22.29,16.108-35.461,38.23-41.743
		C132.844,123.575,124.975,141.48,108.028,151.122z"/>
</g>
<g>
	<polygon style="fill:#EA8500;" points="251.383,177.416 251.383,106.221 221.916,106.221 221.916,178.65 236.958,148.181 	"/>
	<path style="fill:#EA8500;" d="M287.786,166.31v-60.089h-30.013v78.33l11.106,1.613C284.508,176.798,287.786,166.31,287.786,166.31
		z"/>
	<path style="fill:#EA8500;" d="M216.139,106.221h-30.013v60.089c0,0,3.274,10.488,18.911,19.854l11.106-1.613v-78.33H216.139z"/>
</g>
<polygon style="fill:#FFC50B;" points="294.323,204.97 268.879,201.269 257.774,199.657 254.679,199.211 251.383,192.525 
	236.958,163.287 221.916,193.76 219.226,199.211 216.139,199.657 205.034,201.269 179.582,204.97 208.274,232.928 201.494,272.411 
	236.958,253.77 272.415,272.411 265.639,232.928 "/>
<g>
</g>
<g>
</g>
<g>
</g>
<g>
</g>
<g>
</g>
<g>
</g>
<g>
</g>
<g>
</g>
<g>
</g>
<g>
</g>
<g>
</g>
<g>
</g>
<g>
</g>
<g>
</g>
<g>
</g>
</svg>
