<?xml version="1.0" encoding="utf-8"?>
<!-- Generator: Adobe Illustrator 22.0.1, SVG Export Plug-In . SVG Version: 6.00 Build 0)  -->
<svg version="1.1" id="Layer_1" xmlns="http://www.w3.org/2000/svg" xmlns:xlink="http://www.w3.org/1999/xlink" x="0px" y="0px"
	 viewBox="0 0 200 200" style="enable-background:new 0 0 200 200;" xml:space="preserve">
<style type="text/css">
	.st0{fill:#F84E82;}
	.st1{fill:#7956BA;}
	.st2{fill:#FFFFFF;}
	.st3{fill:#FDD33A;}
	.st4{fill:#F8FAFD;}
	.st5{fill:#DDDDDD;}
	.st6{fill:#DD3A71;}
</style>
<path class="st0" d="M22.1,45c-4.8,2.8-8.7,9.5-8.7,15v80c0,5.5,3.9,12.3,8.7,15l69.3,40c4.8,2.8,12.6,2.8,17.3,0l69.3-40
	c4.8-2.8,8.7-9.5,8.7-15V60c0-5.5-3.9-12.3-8.7-15L108.7,5c-4.8-2.8-12.6-2.8-17.3,0L22.1,45z"/>
<path class="st1" d="M32.1,149.1c-4.8-2.8-8.7-9.5-8.7-15V65.8c0-5.5,3.9-12.3,8.7-15l59.3-34.2c4.8-2.8,12.6-2.8,17.3,0l59.3,34.2
	c4.8,2.8,8.7,9.5,8.7,15v68.5c0,5.5-3.9,12.3-8.7,15l-59.3,34.2c-4.8,2.8-12.6,2.8-17.3,0L32.1,149.1z"/>
<path class="st2" d="M42.1,143.6c-4.8-2.8-8.7-9.5-8.7-15v-57c0-5.5,3.9-12.3,8.7-15l49.3-28.5c4.8-2.8,12.6-2.8,17.3,0l49.3,28.5
	c4.8,2.8,8.7,9.5,8.7,15v56.9c0,5.5-3.9,12.3-8.7,15l-49.3,28.5c-4.8,2.8-12.6,2.8-17.3,0L42.1,143.6z"/>
<path d="M100,100"/>
<g>
	<path class="st3" d="M147.3,101.2c0,26.1-21.1,47.3-47.3,47.3s-47.3-21.1-47.3-47.3S73.9,53.9,100,53.9S147.3,75.1,147.3,101.2z"/>
	<path class="st4" d="M100.5,88H76.7C65.8,88,57,96.9,57,107.7c0,7.9,4.6,14.7,11.3,17.8c2.7,1.3,4.4,4,4.4,6.9v4.2
		c0,1.6,2.1,2.3,3,0.9l4.7-6.8c1.4-2.1,3.8-3.3,6.3-3.3h13.9c10.9,0,19.7-8.8,19.7-19.7C120.2,96.9,111.4,88,100.5,88z"/>
	<path class="st5" d="M75.8,125.5c-6.7-3.2-11.3-9.9-11.3-17.8c0-10.9,8.8-19.7,19.7-19.7h-7.5C65.8,88,57,96.8,57,107.7
		c0,7.9,4.6,14.7,11.3,17.8c2.7,1.3,4.4,4,4.4,6.9v4.2c0,1.6,2.1,2.3,3,0.9l4.4-6.5C79.6,128.7,78.1,126.6,75.8,125.5z"/>
	<path class="st1" d="M78.9,108.1c0,2-1.6,3.6-3.6,3.6c-2,0-3.6-1.6-3.6-3.6c0-2,1.6-3.6,3.6-3.6C77.3,104.5,78.9,106.1,78.9,108.1z
		"/>
	<path class="st1" d="M92.2,108.1c0,2-1.6,3.6-3.6,3.6c-2,0-3.6-1.6-3.6-3.6c0-2,1.6-3.6,3.6-3.6C90.6,104.5,92.2,106.1,92.2,108.1z
		"/>
	<path class="st1" d="M105.6,108.1c0,2-1.6,3.6-3.6,3.6s-3.6-1.6-3.6-3.6c0-2,1.6-3.6,3.6-3.6C103.9,104.5,105.6,106.1,105.6,108.1z
		"/>
	<path class="st0" d="M99.3,51.6h23.8c10.9,0,19.7,8.8,19.7,19.7c0,7.9-4.6,14.6-11.3,17.8c-2.7,1.3-4.4,4-4.4,6.9v4.2
		c0,1.6-2.1,2.3-3,0.9l-4.7-6.8c-1.4-2.1-3.8-3.3-6.3-3.3H99.3c-10.9,0-19.7-8.8-19.7-19.7S88.5,51.6,99.3,51.6z"/>
	<path class="st6" d="M121.3,88.4h-13.9c-10.9,0-19.7-8.8-19.7-19.7c0-7.2,3.8-13.4,9.6-16.9c-9.9,1-17.6,9.4-17.6,19.6
		c0,10.9,8.8,19.7,19.7,19.7h13.9c2.5,0,4.9,1.2,6.3,3.3l4.7,6.8c0.9,1.3,3,0.7,3-0.9v-4.2c0-1.3,0.3-2.6,0.9-3.7l-0.5-0.7
		C126.2,89.7,123.8,88.4,121.3,88.4z"/>
	<g>
		<path class="st4" d="M128.2,71.6c0,2-1.6,3.6-3.6,3.6s-3.6-1.6-3.6-3.6s1.6-3.6,3.6-3.6S128.2,69.6,128.2,71.6z"/>
		<path class="st4" d="M114.9,71.6c0,2-1.6,3.6-3.6,3.6s-3.6-1.6-3.6-3.6s1.6-3.6,3.6-3.6S114.9,69.6,114.9,71.6z"/>
		<path class="st4" d="M101.6,71.6c0,2-1.6,3.6-3.6,3.6c-2,0-3.6-1.6-3.6-3.6s1.6-3.6,3.6-3.6C99.9,68,101.6,69.6,101.6,71.6z"/>
	</g>
</g>
</svg>
