<svg height="512" viewBox="0 0 60 60" width="512" xmlns="http://www.w3.org/2000/svg"><g id="Page-1" fill="none" fill-rule="evenodd"><g id="015---Share-Images" fill-rule="nonzero"><g id="color" transform="translate(0 1)"><path id="Shape" d="m30 47h-22.73c-6.44729634-8.1134431-8.07510909-19.0506674-4.27-28.69l11.17 19.27.24.42c3.2156659 5.5696967 9.1586682 9.0005512 15.59 9z" fill="#9d27b0"/><path id="Shape" d="m45.59 38-.19.33-11.17 19.36c-1.4007054.2049677-2.8143781.3085702-4.23.31-8.8621728.0110142-17.2398084-4.0432749-22.73-11h22.73c6.4277589-.0030205 12.3661209-3.4333965 15.58-9z" fill="#673ab7"/><path id="Shape" d="m57 39.69c-3.8183216 9.6287805-12.4824302 16.4899312-22.73 18l11.13-19.36.19-.33c3.2340706-5.5641995 3.2340706-12.4358005 0-18z" fill="#00bcd4"/><path id="Shape" d="m59 29c.019262 3.6581008-.6595388 7.2862908-2 10.69l-11.41-19.69c-3.2156659-5.5696967-9.1586682-9.0005512-15.59-9h22.73c4.069643 5.1159757 6.2804506 11.4627917 6.27 18z" fill="#ff9801"/><path id="Shape" d="m52.73 11h-22.73c-6.4277589.0030205-12.3661209 3.4333965-15.58 9l11.35-19.69c1.4007054-.20496768 2.8143781-.30857017 4.23-.31 8.8621728-.01101421 17.2398084 4.04327487 22.73 11z" fill="#ff5722"/><path id="Shape" d="m14.42 20c-3.2340706 5.5641995-3.2340706 12.4358005 0 18l-.24-.42-11.18-19.27c3.81832162-9.62878053 12.4824302-16.4899312 22.73-18l-11.32 19.69z" fill="#e91e63"/><path id="Shape" d="m48 29c-.0066134 8.1410429-5.476643 15.2641965-13.3401565 17.3717492-7.8635136 2.1075528-16.1627073-1.3252193-20.2398435-8.3717492-3.4384752-5.5786943-3.5733915-12.5853251-.3522271-18.2922542 3.2211645-5.7069292 9.2893859-9.2123202 15.8423431-9.1515461 6.5529572.0607742 12.5551202 3.6781098 15.669884 9.4438003 1.5903113 2.7323956 2.4255098 5.8385058 2.42 9z" fill="#f5f5f5"/><path id="Shape" d="m45.58 20c-3.2138791-5.5666035-9.1522411-8.9969795-15.58-9-.51 0-1 0-1.5.07 9.2902318.8217201 16.4140933 8.6034984 16.4140933 17.93s-7.1238615 17.1082799-16.4140933 17.93c.5 0 1 .07 1.5.07 6.4292698-.0030204 12.3687884-3.4349941 15.5821153-9.0036609 3.213327-5.5686667 3.2125207-12.4284279-.0021153-17.9963391z" fill="#cfd8dc"/><g fill="#e91e63"><circle id="Oval" cx="23" cy="29" r="3"/><circle id="Oval" cx="34" cy="23" r="3"/><circle id="Oval" cx="34" cy="35" r="3"/></g><path id="Shape" d="m57 39.69c-3.8183216 9.6287805-12.4824302 16.4899312-22.73 18l.61-1.06c9.8716298-3.1606123 17.3058086-11.3496462 19.5-21.48z" fill="#00838f"/><path id="Shape" d="m59 29c.019262 3.6581008-.6595388 7.2862908-2 10.69l-2.62-4.54c.4302776-2.0212632.6381806-4.0835263.62-6.15.0104506-6.5372083-2.200357-12.8840243-6.27-18h4c4.069643 5.1159757 6.2804506 11.4627917 6.27 18z" fill="#f57c00"/><path id="Shape" d="m52.73 11h-4c-5.0564974-6.40722363-12.5865721-10.37749452-20.73-10.93.64-.07 1.32-.07 2-.07 8.8621728-.01101421 17.2398084 4.04327487 22.73 11z" fill="#d84315"/></g><g id="outline" fill="#000"><path id="Shape" d="m30 0c-16.5685425 0-30 13.4314575-30 30s13.4314575 30 30 30 30-13.4314575 30-30c0-7.9564947-3.1607052-15.5871121-8.7867966-21.21320344-5.6260913-5.62609135-13.2567087-8.78679656-21.2132034-8.78679656zm20.54 11h-20.54c-3.7379658-.0051029-7.3929653 1.1018398-10.5 3.18l6.89-11.94c1.1970805-.15592239 2.402814-.23608196 3.61-.24 7.8035484-.00225626 15.2519222 3.26139342 20.54 9zm-3.54 19c0 9.3888407-7.6111593 17-17 17s-17-7.6111593-17-17 7.6111593-17 17-17c4.5086803 0 8.8326968 1.7910663 12.0208153 4.9791847 3.1881184 3.1881185 4.9791847 7.512135 4.9791847 12.0208153zm-23.18-27.3-10.28 17.8c-1.6714083 2.8865231-2.5478358 6.1645001-2.54 9.5 0 .41 0 .8.06 1.2l-6.91-12c3.51396103-8.3489062 10.8371292-14.49187898 19.67-16.5zm-20.56 19 10 17.39.24.42c1.877038 3.2300805 4.6578784 5.8405944 8 7.51h-13.73c-5.5231551-7.2118834-7.20449359-16.6549663-4.51-25.33zm6.2 27.3h20.54c3.7379658.0051029 7.3929653-1.1018398 10.5-3.18l-6.89 11.94c-1.1970805.1559224-2.402814.236082-3.61.24-7.8035484.0022563-15.2519222-3.2613934-20.54-9zm26.72 8.3 10.28-17.8c1.6714083-2.8865231 2.5478358-6.1645001 2.54-9.5 0-.4 0-.8-.06-1.2l6.91 12c-3.513961 8.3489062-10.8371292 14.491879-19.67 16.5zm20.56-19-10.28-17.8c-1.877038-3.2300805-4.6578784-5.8405944-8-7.51h13.8c5.5165272 7.2071019 7.1975591 16.6410083 4.51 25.31z"/><path id="Shape" d="m34 28c2.209139 0 4-1.790861 4-4s-1.790861-4-4-4-4 1.790861-4 4c-.0006972.3375913.043011.6738079.13 1l-4.22 2.3c-1.1212072-1.2006948-2.8625458-1.5937776-4.390824-.9911671-1.5282781.6026105-2.5327184 2.0783727-2.5327184 3.7211671s1.0044403 3.1185566 2.5327184 3.7211671c1.5282782.6026105 3.2696168.2095277 4.390824-.9911671l4.22 2.24c-.086989.3261921-.1306972.6624087-.13 1-.0069425 1.9206562 1.3522174 3.575126 3.2376865 3.9411514s3.7649401-.6597303 4.4771318-2.4434767c.7121918-1.7837464.0560378-3.8218945-1.5630399-4.8551204s-3.7439795-.7698282-5.0617784.6274457l-4.22-2.27c.1735211-.6350264.1735211-1.3049736 0-1.94l4.22-2.3c.758426.7956031 1.8108286 1.2440496 2.91 1.24zm0 6c1.1045695 0 2 .8954305 2 2s-.8954305 2-2 2-2-.8954305-2-2 .8954305-2 2-2zm-11-2c-1.1045695 0-2-.8954305-2-2s.8954305-2 2-2 2 .8954305 2 2-.8954305 2-2 2zm11-10c1.1045695 0 2 .8954305 2 2s-.8954305 2-2 2-2-.8954305-2-2 .8954305-2 2-2z"/></g></g></g></svg>