<?xml version="1.0" encoding="utf-8"?>
<!-- Generator: Adobe Illustrator 22.0.1, SVG Export Plug-In . SVG Version: 6.00 Build 0)  -->
<svg version="1.1" id="Layer_1" xmlns="http://www.w3.org/2000/svg" xmlns:xlink="http://www.w3.org/1999/xlink" x="0px" y="0px"
	 viewBox="0 0 200 200" style="enable-background:new 0 0 200 200;" xml:space="preserve">
<style type="text/css">
	.st0{fill:#882E5E;}
	.st1{fill:#D21F3E;}
	.st2{fill:#FFFFFF;}
	.st3{fill:url(#SVGID_1_);}
	.st4{fill:url(#SVGID_2_);}
</style>
<path class="st0" d="M22.1,45c-4.8,2.8-8.7,9.5-8.7,15v80c0,5.5,3.9,12.3,8.7,15l69.3,40c4.8,2.8,12.6,2.8,17.3,0l69.3-40
	c4.8-2.8,8.7-9.5,8.7-15V60c0-5.5-3.9-12.3-8.7-15L108.7,5c-4.8-2.8-12.6-2.8-17.3,0L22.1,45z"/>
<path class="st1" d="M32.1,149.1c-4.8-2.8-8.7-9.5-8.7-15V65.8c0-5.5,3.9-12.3,8.7-15l59.3-34.2c4.8-2.8,12.6-2.8,17.3,0l59.3,34.2
	c4.8,2.8,8.7,9.5,8.7,15v68.5c0,5.5-3.9,12.3-8.7,15l-59.3,34.2c-4.8,2.8-12.6,2.8-17.3,0L32.1,149.1z"/>
<path class="st2" d="M42.1,143.6c-4.8-2.8-8.7-9.5-8.7-15v-57c0-5.5,3.9-12.3,8.7-15l49.3-28.5c4.8-2.8,12.6-2.8,17.3,0l49.3,28.5
	c4.8,2.8,8.7,9.5,8.7,15v56.9c0,5.5-3.9,12.3-8.7,15l-49.3,28.5c-4.8,2.8-12.6,2.8-17.3,0L42.1,143.6z"/>
<path d="M100,100"/>
<g>
	
		<linearGradient id="SVGID_1_" gradientUnits="userSpaceOnUse" x1="67.0246" y1="507.6978" x2="134.8601" y2="439.8623" gradientTransform="matrix(1 0 0 -1 0 564)">
		<stop  offset="0" style="stop-color:#882E5E"/>
		<stop  offset="1" style="stop-color:#D21F3E"/>
	</linearGradient>
	<path class="st3" d="M107.1,128.1H85.9V121c0-3.8,3.1-6.8,6.8-6.8H107c11.7,0,21.3-9.4,21.3-21.1S118.8,72,107.1,72h-0.2l-4.5-0.1
		H57.8l0,0c0-7.8,6.3-14.1,14.1-14.1h30.7l4.6,0.1c19.3,0.1,35.1,15.9,35.1,35.2S126.5,128.1,107.1,128.1z"/>
	
		<linearGradient id="SVGID_2_" gradientUnits="userSpaceOnUse" x1="48.6362" y1="489.3093" x2="116.4716" y2="421.4739" gradientTransform="matrix(1 0 0 -1 0 564)">
		<stop  offset="0" style="stop-color:#882E5E"/>
		<stop  offset="1" style="stop-color:#D21F3E"/>
	</linearGradient>
	<path class="st4" d="M71.9,142.3L71.9,142.3c-7.8,0-14-6.3-14-14V99.6c-0.1-7.6,6-13.7,13.6-13.7H107c3.8,0,7.1,3.1,7.1,7.1l0,0
		c0,3.8-3.1,7.1-7.1,7.1H78.8c-3.8,0-6.9,3.1-6.9,6.9L71.9,142.3L71.9,142.3z"/>
</g>
</svg>
