<?xml version="1.0" encoding="utf-8"?>
<!-- Generator: Adobe Illustrator 22.0.1, SVG Export Plug-In . SVG Version: 6.00 Build 0)  -->
<svg version="1.1" id="Layer_1" xmlns="http://www.w3.org/2000/svg" xmlns:xlink="http://www.w3.org/1999/xlink" x="0px" y="0px"
	 viewBox="0 0 200 200" style="enable-background:new 0 0 200 200;" xml:space="preserve">
<style type="text/css">
	.st0{fill:#367DA9;}
	.st1{fill:#F58237;}
	.st2{fill:#FFFFFF;}
</style>
<path class="st0" d="M22.1,45c-4.8,2.8-8.7,9.5-8.7,15v80c0,5.5,3.9,12.3,8.7,15l69.3,40c4.8,2.8,12.6,2.8,17.3,0l69.3-40
	c4.8-2.8,8.7-9.5,8.7-15V60c0-5.5-3.9-12.3-8.7-15L108.7,5c-4.8-2.8-12.6-2.8-17.3,0L22.1,45z"/>
<path class="st1" d="M32.1,149.1c-4.8-2.8-8.7-9.5-8.7-15V65.8c0-5.5,3.9-12.3,8.7-15l59.3-34.2c4.8-2.8,12.6-2.8,17.3,0l59.3,34.2
	c4.8,2.8,8.7,9.5,8.7,15v68.5c0,5.5-3.9,12.3-8.7,15l-59.3,34.2c-4.8,2.8-12.6,2.8-17.3,0L32.1,149.1z"/>
<path class="st2" d="M42.1,143.6c-4.8-2.8-8.7-9.5-8.7-15v-57c0-5.5,3.9-12.3,8.7-15l49.3-28.5c4.8-2.8,12.6-2.8,17.3,0l49.3,28.5
	c4.8,2.8,8.7,9.5,8.7,15v56.9c0,5.5-3.9,12.3-8.7,15l-49.3,28.5c-4.8,2.8-12.6,2.8-17.3,0L42.1,143.6z"/>
<path d="M100,100"/>
<g>
	<g>
		<path class="st1" d="M75.8,83l9-4.5l11,22.6l4.5-2.3l-11-22.5l8.4-4.2l0.6,0l11,22.3l4.5-2.2l-11-22.6l9-4.2l13.3,27.1l-36.1,17.8
			L75.8,83z"/>
		<path class="st0" d="M117.8,54c11.6,0,21,9.4,21,21v25.9c0,11.6-9.4,21-21,21H82.2c-11.6,0-21-9.4-21-21V74.9c0-11.6,9.4-21,21-21
			H117.8z M117.6,62.8h-35c-7,0-12.7,5.7-12.7,12.7v25c0,7,5.7,12.7,12.7,12.7h35c7,0,12.7-5.7,12.7-12.7v-25
			C130.2,68.5,124.6,62.8,117.6,62.8z"/>
	</g>
	<g>
		<path class="st0" d="M65.1,141.4h-0.6l-3.7-8.5l-3.7,8.5h-0.6l-4.5-12.8h2.4l2.7,8.2l3.3-8.2h0.6l3.4,8.2l2.9-8.2h2.2L65.1,141.4z
			 M76.1,143.3c-0.3,0.8-0.9,1.5-1.8,2c-0.9,0.5-2,0.8-3.1,0.8v-2c0.9,0,1.7-0.2,2.4-0.7c0.7-0.4,1-1,1-1.6c0-0.7-0.1-1.4-0.4-2
			s-0.6-1.5-0.9-2.5l-3.4-8.7h2.3l3.7,9.7l3.3-9.7h2.3L76.1,143.3z M91.2,141.1l-3.9-6.3l-1.9,2v4.3h-2.2v-17.6h2.2v10.9l4.8-5.8
			h2.6l-4,4.7l4.9,7.7H91.2z M94.3,134.9c0-1.9,0.5-3.5,1.5-4.7c1-1.2,2.4-1.8,4.1-1.8c1.8,0,3.2,0.6,4.2,1.7c1,1.1,1.5,2.7,1.5,4.7
			c0,2-0.5,3.6-1.5,4.8c-1,1.2-2.4,1.7-4.1,1.7c-1.8,0-3.2-0.6-4.2-1.8C94.8,138.5,94.3,136.9,94.3,134.9L94.3,134.9z M96.7,134.9
			c0,3.1,1.1,4.7,3.3,4.7c1,0,1.8-0.4,2.4-1.3c0.6-0.8,0.9-2,0.9-3.4c0-3.1-1.1-4.6-3.3-4.6c-1,0-1.8,0.4-2.4,1.2
			C97,132.3,96.7,133.4,96.7,134.9L96.7,134.9z M110.2,140.5v5.6H108v-17.4h2.2v1c0.8-0.8,1.9-1.3,3-1.3c1.8,0,3.2,0.6,4.1,1.7
			c1,1.1,1.5,2.7,1.5,4.9c0,1.9-0.5,3.4-1.5,4.6c-1,1.2-2.4,1.8-4.3,1.8c-0.5,0-1.1-0.1-1.7-0.3
			C110.7,140.9,110.4,140.7,110.2,140.5L110.2,140.5z M110.2,131.4v7.3c0.1,0.2,0.4,0.4,0.9,0.6c0.5,0.2,0.9,0.3,1.3,0.3
			c2.8,0,4.1-1.5,4.1-4.7c0-1.6-0.3-2.7-1-3.5s-1.7-1.1-3.1-1.1c-0.3,0-0.7,0.1-1.1,0.3C110.8,130.8,110.4,131.1,110.2,131.4
			L110.2,131.4z M123.8,137.9c0.5,0,0.9,0.2,1.2,0.5c0.3,0.3,0.5,0.7,0.5,1.2c0,0.5-0.2,0.9-0.5,1.2c-0.3,0.3-0.7,0.5-1.2,0.5
			s-0.9-0.2-1.2-0.5c-0.3-0.3-0.5-0.8-0.5-1.2s0.2-0.9,0.5-1.2C122.9,138,123.3,137.9,123.8,137.9z M132.2,140.5v5.6H130v-17.4h2.2
			v1c0.8-0.8,1.9-1.3,3-1.3c1.8,0,3.2,0.6,4.1,1.7c1,1.1,1.5,2.7,1.5,4.9c0,1.9-0.5,3.4-1.5,4.6c-1,1.2-2.4,1.8-4.3,1.8
			c-0.5,0-1.1-0.1-1.7-0.3C132.8,140.9,132.4,140.7,132.2,140.5L132.2,140.5z M132.2,131.4v7.3c0.1,0.2,0.4,0.4,0.9,0.6
			c0.5,0.2,0.9,0.3,1.3,0.3c2.8,0,4.1-1.5,4.1-4.7c0-1.6-0.3-2.7-1-3.5c-0.7-0.7-1.7-1.1-3.1-1.1c-0.3,0-0.7,0.1-1.1,0.3
			C132.9,130.8,132.5,131.1,132.2,131.4L132.2,131.4z M143.5,137.6v-14.1h2.2v13.7c0,0.7,0.2,1.2,0.6,1.6c0.4,0.4,0.9,0.6,1.5,0.6v2
			C144.9,141.4,143.5,140.1,143.5,137.6L143.5,137.6z"/>
	</g>
</g>
</svg>
