<?xml version="1.0" encoding="utf-8"?>
<!-- Generator: Adobe Illustrator 22.0.1, SVG Export Plug-In . SVG Version: 6.00 Build 0)  -->
<svg version="1.1" id="Layer_1" xmlns="http://www.w3.org/2000/svg" xmlns:xlink="http://www.w3.org/1999/xlink" x="0px" y="0px"
	 viewBox="0 0 200 200" style="enable-background:new 0 0 200 200;" xml:space="preserve">
<style type="text/css">
	.st0{fill:#E91E63;}
	.st1{fill:#673AB7;}
	.st2{fill:#FFFFFF;}
	.st3{fill:#9D27B0;}
	.st4{fill:#00BCD4;}
	.st5{fill:#FF9801;}
	.st6{fill:#FF5722;}
	.st7{fill:#F5F5F5;}
	.st8{fill:#CFD8DC;}
	.st9{fill:#00838F;}
	.st10{fill:#F57C00;}
	.st11{fill:#D84315;}
</style>
<path class="st0" d="M22.1,45c-4.8,2.8-8.7,9.5-8.7,15v80c0,5.5,3.9,12.3,8.7,15l69.3,40c4.8,2.8,12.6,2.8,17.3,0l69.3-40
	c4.8-2.8,8.7-9.5,8.7-15V60c0-5.5-3.9-12.3-8.7-15L108.7,5c-4.8-2.8-12.6-2.8-17.3,0L22.1,45z"/>
<path class="st1" d="M32.1,149.2c-4.8-2.8-8.7-9.5-8.7-15V65.8c0-5.5,3.9-12.3,8.7-15l59.3-34.2c4.8-2.8,12.6-2.8,17.3,0L168,50.8
	c4.8,2.8,8.7,9.5,8.7,15v68.5c0,5.5-3.9,12.3-8.7,15l-59.3,34.2c-4.8,2.8-12.6,2.8-17.3,0L32.1,149.2z"/>
<path class="st2" d="M42.1,143.5c-4.8-2.8-8.7-9.5-8.7-15v-57c0-5.5,3.9-12.3,8.7-15L91.4,28c4.8-2.8,12.6-2.8,17.3,0L158,56.5
	c4.8,2.8,8.7,9.5,8.7,15v56.9c0,5.5-3.9,12.3-8.7,15l-49.3,28.5c-4.8,2.8-12.6,2.8-17.3,0L42.1,143.5z"/>
<path d="M100,100"/>
<g id="Page-1">
	<g id="_x30_15---Share-Images">
		<g id="color" transform="translate(0 1)">
			<path id="Shape" class="st3" d="M100,129.7H61.2c-11-13.9-13.8-32.5-7.3-49L73,113.6l0.4,0.7C78.9,123.9,89,129.7,100,129.7z"/>
			<path id="Shape_1_" class="st1" d="M126.6,114.4l-0.3,0.6L107.2,148c-2.4,0.3-4.8,0.5-7.2,0.5c-15.1,0-29.4-6.9-38.8-18.8H100
				C111,129.7,121.1,123.9,126.6,114.4L126.6,114.4z"/>
			<path id="Shape_2_" class="st4" d="M146.1,117.2c-6.5,16.4-21.3,28.2-38.8,30.7l19-33.1l0.3-0.6c5.5-9.5,5.5-21.2,0-30.7
				L146.1,117.2z"/>
			<path id="Shape_3_" class="st5" d="M149.5,99c0,6.2-1.1,12.4-3.4,18.2l-19.5-33.6c-5.5-9.5-15.6-15.4-26.6-15.4h38.8
				C145.8,77,149.5,87.8,149.5,99L149.5,99z"/>
			<path id="Shape_4_" class="st6" d="M138.8,68.3H100c-11,0-21.1,5.9-26.6,15.4L92.8,50c2.4-0.3,4.8-0.5,7.2-0.5
				C115.1,49.5,129.4,56.4,138.8,68.3z"/>
			<path id="Shape_5_" class="st0" d="M73.4,83.6c-5.5,9.5-5.5,21.2,0,30.7l-0.4-0.7L53.9,80.8C60.4,64.3,75.2,52.6,92.7,50
				L73.4,83.6L73.4,83.6z"/>
			<path id="Shape_6_" class="st7" d="M130.7,99c0,13.9-9.3,26.1-22.8,29.7s-27.6-2.3-34.6-14.3c-5.9-9.5-6.1-21.5-0.6-31.2
				c5.5-9.7,15.9-15.7,27-15.6s21.4,6.3,26.8,16.1C129.3,88.3,130.7,93.6,130.7,99z"/>
			<path id="Shape_7_" class="st8" d="M126.6,83.6c-5.5-9.5-15.6-15.4-26.6-15.4c-0.9,0-1.7,0-2.6,0.1c15.9,1.4,28,14.7,28,30.6
				s-12.2,29.2-28,30.6c0.9,0,1.7,0.1,2.6,0.1c11,0,21.1-5.9,26.6-15.4C132.1,104.9,132.1,93.1,126.6,83.6L126.6,83.6z"/>
			<g>
				<circle id="Oval" class="st0" cx="88" cy="99" r="5.1"/>
				<circle id="Oval_1_" class="st0" cx="106.8" cy="88.8" r="5.1"/>
				<circle id="Oval_2_" class="st0" cx="106.8" cy="109.2" r="5.1"/>
			</g>
			<path id="Shape_8_" class="st9" d="M146.1,117.2c-6.5,16.4-21.3,28.2-38.8,30.7l1-1.8c16.9-5.4,29.5-19.4,33.3-36.7L146.1,117.2z
				"/>
			<path id="Shape_9_" class="st10" d="M149.5,99c0,6.2-1.1,12.4-3.4,18.2l-4.5-7.8c0.7-3.5,1.1-7,1.1-10.5c0-11.2-3.8-22-10.7-30.7
				h6.8C145.8,77,149.5,87.8,149.5,99L149.5,99z"/>
			<path id="Shape_10_" class="st11" d="M138.8,68.3H132c-8.6-10.9-21.5-17.7-35.4-18.7c1.1-0.1,2.3-0.1,3.4-0.1
				C115.1,49.5,129.4,56.4,138.8,68.3z"/>
		</g>
		<g id="outline">
			<path id="Shape_11_" d="M100,48.8c-28.3,0-51.2,22.9-51.2,51.2s22.9,51.2,51.2,51.2s51.2-22.9,51.2-51.2c0-13.6-5.4-26.6-15-36.2
				S113.6,48.8,100,48.8z M135.1,67.6H100c-6.4,0-12.6,1.9-17.9,5.4l11.8-20.4c2-0.3,4.1-0.4,6.2-0.4
				C113.3,52.2,126,57.8,135.1,67.6z M129,100c0,16-13,29-29,29s-29-13-29-29s13-29,29-29c7.7,0,15.1,3.1,20.5,8.5
				C126,84.9,129,92.3,129,100L129,100z M89.4,53.4L71.9,83.8c-2.9,4.9-4.3,10.5-4.3,16.2c0,0.7,0,1.4,0.1,2L55.9,81.6
				C61.9,67.3,74.4,56.8,89.4,53.4z M54.3,85.8l17.1,29.7l0.4,0.7c3.2,5.5,8,10,13.7,12.8H62C52.6,116.7,49.7,100.6,54.3,85.8
				L54.3,85.8z M64.9,132.4H100c6.4,0,12.6-1.9,17.9-5.4l-11.8,20.4c-2,0.3-4.1,0.4-6.2,0.4C86.7,147.8,74,142.2,64.9,132.4z
				 M110.6,146.6l17.5-30.4c2.9-4.9,4.3-10.5,4.3-16.2c0-0.7,0-1.4-0.1-2l11.8,20.5C138.1,132.7,125.6,143.2,110.6,146.6z
				 M145.7,114.2l-17.5-30.4c-3.2-5.5-8-10-13.7-12.8H138C147.4,83.3,150.3,99.4,145.7,114.2L145.7,114.2z"/>
			<path id="Shape_12_" d="M106.8,96.6c3.8,0,6.8-3.1,6.8-6.8s-3.1-6.8-6.8-6.8c-3.8,0-6.8,3.1-6.8,6.8c0,0.6,0.1,1.2,0.2,1.7
				L93,95.4c-1.9-2-4.9-2.7-7.5-1.7s-4.3,3.5-4.3,6.4c0,2.8,1.7,5.3,4.3,6.4c2.6,1,5.6,0.4,7.5-1.7l7.2,3.8
				c-0.1,0.6-0.2,1.1-0.2,1.7c0,3.3,2.3,6.1,5.5,6.7s6.4-1.1,7.6-4.2c1.2-3,0.1-6.5-2.7-8.3c-2.8-1.8-6.4-1.3-8.6,1.1l-7.2-3.9
				c0.3-1.1,0.3-2.2,0-3.3l7.2-3.9C103.2,95.8,105,96.6,106.8,96.6L106.8,96.6z M106.8,106.8c1.9,0,3.4,1.5,3.4,3.4
				s-1.5,3.4-3.4,3.4s-3.4-1.5-3.4-3.4S104.9,106.8,106.8,106.8z M88,103.4c-1.9,0-3.4-1.5-3.4-3.4s1.5-3.4,3.4-3.4
				c1.9,0,3.4,1.5,3.4,3.4S89.9,103.4,88,103.4z M106.8,86.3c1.9,0,3.4,1.5,3.4,3.4c0,1.9-1.5,3.4-3.4,3.4s-3.4-1.5-3.4-3.4
				C103.4,87.9,104.9,86.3,106.8,86.3z"/>
		</g>
	</g>
</g>
</svg>
