<?xml version="1.0" encoding="utf-8"?>
<!-- Generator: Adobe Illustrator 22.0.1, SVG Export Plug-In . SVG Version: 6.00 Build 0)  -->
<svg version="1.1" id="Layer_1" xmlns="http://www.w3.org/2000/svg" xmlns:xlink="http://www.w3.org/1999/xlink" x="0px" y="0px"
	 viewBox="0 0 200 200" style="enable-background:new 0 0 200 200;" xml:space="preserve">
<style type="text/css">
	.st0{fill:#7F54B3;}
	.st1{fill:#35057A;}
	.st2{fill:#FFFFFF;}
</style>
<path class="st0" d="M22.1,45c-4.8,2.8-8.7,9.5-8.7,15v80c0,5.5,3.9,12.3,8.7,15l69.3,40c4.8,2.8,12.6,2.8,17.3,0l69.3-40
	c4.8-2.8,8.7-9.5,8.7-15V60c0-5.5-3.9-12.3-8.7-15L108.7,5c-4.8-2.8-12.6-2.8-17.3,0L22.1,45z"/>
<path class="st1" d="M32.1,149.2c-4.8-2.8-8.7-9.5-8.7-15V65.8c0-5.5,3.9-12.3,8.7-15l59.3-34.2c4.8-2.8,12.6-2.8,17.3,0l59.3,34.2
	c4.8,2.8,8.7,9.5,8.7,15v68.5c0,5.5-3.9,12.3-8.7,15l-59.3,34.2c-4.8,2.8-12.6,2.8-17.3,0L32.1,149.2z"/>
<path class="st2" d="M42.1,143.5c-4.8-2.8-8.7-9.5-8.7-15V71.5c0-5.5,3.9-12.3,8.7-15l49.3-28.5c4.8-2.8,12.6-2.8,17.3,0l49.3,28.5
	c4.8,2.8,8.7,9.5,8.7,15v56.9c0,5.5-3.9,12.3-8.7,15l-49.3,28.5c-4.8,2.8-12.6,2.8-17.3,0L42.1,143.5z"/>
<path d="M100,100"/>
<g>
	<path class="st0" d="M144.7,71.3H55.3c-5.7,0-10.2,4.6-10.2,10.2v34.1c0,5.7,4.6,10.2,10.2,10.2h42.3l19.3,10.8l-4.4-10.8h32
		c5.7,0,10.2-4.6,10.2-10.2V81.6C154.9,75.9,150.3,71.3,144.7,71.3z M90,116.3c0.1,1.1-0.1,2.1-0.5,3c-0.5,1-1.3,1.5-2.4,1.6
		c-1.2,0.1-2.4-0.4-3.5-1.7c-4.2-4.3-7.5-10.6-9.9-19.1c-2.9,5.7-5.1,10.1-6.5,12.9c-2.6,5.1-4.9,7.7-6.8,7.8
		c-1.2,0.1-2.2-0.9-3.1-3.1c-2.3-5.9-4.8-17.2-7.4-34.1c-0.1-1.2,0.1-2.2,0.7-3c0.6-0.9,1.6-1.3,2.8-1.4c2.3-0.2,3.6,0.9,3.9,3.2
		c1.4,9.4,2.9,17.3,4.5,23.8l9.8-18.7c0.9-1.7,2-2.6,3.4-2.7c2-0.1,3.2,1.1,3.7,3.8c1.1,6,2.6,11,4.3,15.3
		c1.2-11.4,3.1-19.6,5.9-24.7c0.7-1.3,1.7-1.9,3-2c1-0.1,2,0.2,2.8,0.9c0.9,0.7,1.3,1.5,1.4,2.6c0,0.8-0.1,1.5-0.4,2.2
		c-1.8,3.2-3.2,8.7-4.4,16.2C90.2,106.5,89.8,112.2,90,116.3z M117.6,109.2c-2.7,4.5-6.2,6.7-10.5,6.7c-0.8,0-1.6-0.1-2.4-0.3
		c-3.2-0.7-5.6-2.4-7.2-5.2c-1.4-2.5-2.2-5.4-2.2-8.9c0-4.6,1.2-8.8,3.5-12.7c2.7-4.5,6.2-6.7,10.5-6.7c0.8,0,1.6,0.1,2.4,0.3
		c3.1,0.7,5.6,2.4,7.2,5.2c1.4,2.4,2.2,5.3,2.2,8.8C121.1,101.1,119.9,105.3,117.6,109.2z M145.7,109.2c-2.7,4.5-6.2,6.7-10.5,6.7
		c-0.8,0-1.6-0.1-2.4-0.3c-3.2-0.7-5.6-2.4-7.2-5.2c-1.4-2.5-2.2-5.4-2.2-8.9c0-4.6,1.2-8.8,3.5-12.7c2.7-4.5,6.2-6.7,10.5-6.7
		c0.8,0,1.6,0.1,2.4,0.3c3.2,0.7,5.6,2.4,7.2,5.2c1.4,2.4,2.2,5.3,2.2,8.8C149.2,101.1,148.1,105.3,145.7,109.2z"/>
	<path class="st0" d="M138,106.7c1.7-1.5,2.8-3.7,3.4-6.6c0.2-1,0.3-2.2,0.3-3.3c0-1.3-0.3-2.7-0.8-4.1c-0.7-1.8-1.6-2.7-2.6-2.9
		c-1.6-0.3-3.2,0.6-4.7,2.8c-1.2,1.7-2,3.5-2.4,5.3c-0.2,1-0.3,2.2-0.3,3.3c0,1.3,0.3,2.7,0.8,4.1c0.7,1.8,1.6,2.7,2.6,2.9
		C135.5,108.4,136.7,107.9,138,106.7z"/>
	<path class="st0" d="M113.3,100.1c-0.6,3-1.8,5.2-3.4,6.6c-1.3,1.2-2.5,1.7-3.6,1.4c-1.1-0.2-2-1.2-2.6-2.9
		c-0.5-1.4-0.8-2.8-0.8-4.1c0-1.1,0.1-2.2,0.3-3.3c0.4-1.8,1.2-3.6,2.4-5.3c1.5-2.2,3.1-3.1,4.7-2.8c1.1,0.2,2,1.2,2.6,2.9
		c0.5,1.4,0.8,2.8,0.8,4.1C113.6,97.9,113.5,99.1,113.3,100.1z"/>
</g>
</svg>
