<?xml version="1.0" encoding="utf-8"?>
<!-- Generator: Adobe Illustrator 22.0.1, SVG Export Plug-In . SVG Version: 6.00 Build 0)  -->
<svg version="1.1" id="Layer_1" xmlns="http://www.w3.org/2000/svg" xmlns:xlink="http://www.w3.org/1999/xlink" x="0px" y="0px"
	 viewBox="0 0 200 200" style="enable-background:new 0 0 200 200;" xml:space="preserve">
<style type="text/css">
	.st0{fill:#012169;}
	.st1{fill:#179BD7;}
	.st2{fill:#FFFFFF;}
	.st3{fill:#36465D;}
	.st4{fill:#3E5C9A;}
	.st5{fill:#29A9E1;}
	.st6{fill:#CD2129;}
	.st7{fill:#117BB8;}
	.st8{fill:#3ABF2C;}
	.st9{fill:#9CA6CC;}
	.st10{opacity:0.6;}
	.st11{opacity:0.5;fill:#D2D7EC;enable-background:new    ;}
</style>
<path class="st0" d="M22.1,45c-4.8,2.8-8.7,9.5-8.7,15v80c0,5.5,3.9,12.3,8.7,15l69.3,40c4.8,2.8,12.6,2.8,17.3,0l69.3-40
	c4.8-2.8,8.7-9.5,8.7-15V60c0-5.5-3.9-12.3-8.7-15L108.7,5c-4.8-2.8-12.6-2.8-17.3,0L22.1,45z"/>
<path class="st1" d="M32.1,149.1c-4.8-2.8-8.7-9.5-8.7-15V65.8c0-5.5,3.9-12.3,8.7-15l59.3-34.2c4.8-2.8,12.6-2.8,17.3,0l59.3,34.2
	c4.8,2.8,8.7,9.5,8.7,15v68.5c0,5.5-3.9,12.3-8.7,15l-59.3,34.2c-4.8,2.8-12.6,2.8-17.3,0L32.1,149.1z"/>
<path class="st2" d="M42.1,143.6c-4.8-2.8-8.7-9.5-8.7-15v-57c0-5.5,3.9-12.3,8.7-15l49.3-28.5c4.8-2.8,12.6-2.8,17.3,0l49.3,28.5
	c4.8,2.8,8.7,9.5,8.7,15v56.9c0,5.5-3.9,12.3-8.7,15l-49.3,28.5c-4.8,2.8-12.6,2.8-17.3,0L42.1,143.6z"/>
<path d="M100,100"/>
<g>
	<g>
		<circle class="st3" cx="143.9" cy="117.5" r="11.5"/>
		<g id="XMLID_203_">
			<g id="XMLID_205_">
				<path class="st4" d="M114.8,98.4L114.8,98.4c-6.4,0-11.5-5.2-11.5-11.6l0,0c0-6.4,5.2-11.5,11.5-11.5l0,0
					c6.4,0,11.5,5.2,11.5,11.5l0,0C126.3,93.3,121.1,98.4,114.8,98.4z"/>
			</g>
			<path id="XMLID_204_" class="st2" d="M113,93.8h2.8v-7.1h2l0.2-2.4h-2.2c0,0,0-0.9,0-1.3c0-0.5,0.1-0.8,0.7-0.8
				c0.5,0,1.5,0,1.5,0v-2.4c0,0-1.6,0-2,0c-2.1,0-3,0.9-3,2.7c0,1.5,0,1.9,0,1.9h-1.5v2.4h1.5V93.8z"/>
		</g>
		<g id="XMLID_200_">
			<g id="XMLID_202_">
				<path class="st5" d="M143.8,98.4L143.8,98.4c-6.4,0-11.6-5.2-11.6-11.6l0,0c0-6.4,5.2-11.5,11.5-11.5l0,0
					c6.4,0,11.5,5.2,11.5,11.5l0,0C155.4,93.3,150.2,98.4,143.8,98.4z"/>
			</g>
			<path id="XMLID_201_" class="st2" d="M137.7,90.7c1.1,0.7,2.4,1.1,3.9,1.1c4.7,0,7.3-4,7.2-7.5c0.5-0.3,0.9-0.8,1.3-1.3
				c-0.5,0.2-0.9,0.3-1.5,0.4c0.5-0.3,0.9-0.8,1.1-1.4c-0.5,0.3-1.1,0.5-1.6,0.6c-0.5-0.5-1.1-0.8-1.8-0.8c-1.6,0-2.8,1.5-2.4,3.1
				c-2.1-0.1-4-1.1-5.2-2.6c-0.7,1.1-0.3,2.6,0.8,3.4c-0.4,0-0.8-0.1-1.1-0.3c0,1.2,0.8,2.2,2,2.5c-0.3,0.1-0.7,0.1-1.1,0.1
				c0.3,1,1.3,1.7,2.4,1.8C140.4,90.5,139,90.9,137.7,90.7z"/>
		</g>
		<g id="XMLID_197_">
			<g id="XMLID_199_">
				<path class="st6" d="M56.6,129.2L56.6,129.2c-6.4,0-11.5-5.2-11.5-11.5l0,0c0-6.4,5.2-11.5,11.5-11.5l0,0
					c6.4,0,11.5,5.2,11.5,11.5l0,0C68.2,124.1,63,129.2,56.6,129.2z"/>
			</g>
			<path id="XMLID_198_" class="st2" d="M52.9,118.8c0.2,0.1,0.3,0,0.4-0.2c0.1-0.1,0.1-0.5,0.1-0.7c0.1-0.2,0-0.3-0.1-0.5
				c-0.3-0.4-0.5-0.9-0.5-1.5c0-2,1.5-3.8,3.9-3.8c2.1,0,3.3,1.3,3.3,3c0,2.3-1,4.2-2.5,4.2c-0.9,0-1.5-0.7-1.3-1.5
				c0.3-1,0.7-2.1,0.7-2.8s-0.3-1.2-1.1-1.2c-0.9,0-1.5,0.9-1.5,2c0,0.7,0.3,1.3,0.3,1.3s-0.9,3.7-1,4.3c-0.3,1.3-0.1,2.8,0,3
				c0,0.1,0.1,0.1,0.2,0.1c0.1-0.1,1.1-1.3,1.5-2.6c0.1-0.3,0.5-2.2,0.5-2.2c0.3,0.5,1.1,1,1.9,1c2.5,0,4.3-2.3,4.3-5.4
				c0-2.4-2-4.5-5-4.5c-3.8,0-5.7,2.7-5.7,4.9C51.3,117.1,51.8,118.3,52.9,118.8z"/>
		</g>
		<g id="XMLID_190_">
			<g id="XMLID_196_">
				<path class="st7" d="M85.7,129.2L85.7,129.2c-6.4,0-11.5-5.2-11.5-11.5l0,0c0-6.4,5.2-11.5,11.5-11.5l0,0
					c6.4,0,11.6,5.2,11.6,11.5l0,0C97.3,124.1,92.1,129.2,85.7,129.2z"/>
			</g>
			<g id="XMLID_191_">
				<g id="XMLID_193_">
					<rect id="XMLID_195_" x="80.4" y="115.1" class="st2" width="2.4" height="7.7"/>
					<path id="XMLID_194_" class="st2" d="M81.6,114.1c0.8,0,1.4-0.7,1.4-1.5c0-0.8-0.7-1.5-1.4-1.5c-0.8,0-1.4,0.7-1.4,1.5
						C80.2,113.5,80.8,114.1,81.6,114.1z"/>
				</g>
				<path id="XMLID_192_" class="st2" d="M86.6,118.8c0-1.1,0.5-1.7,1.5-1.7c0.9,0,1.3,0.6,1.3,1.7c0,1.1,0,4.1,0,4.1h2.4
					c0,0,0-2.8,0-4.9c0-2-1.2-3.1-2.8-3.1c-1.6,0-2.3,1.3-2.3,1.3v-1.1h-2.3v7.7h2.3C86.6,122.8,86.6,119.9,86.6,118.8z"/>
			</g>
		</g>
		<g id="XMLID_183_">
			<g id="XMLID_189_">
				<path class="st8" d="M114.7,129.2L114.7,129.2c-6.4,0-11.5-5.2-11.5-11.5l0,0c0-6.4,5.2-11.5,11.5-11.5l0,0
					c6.4,0,11.5,5.2,11.5,11.5l0,0C126.3,124.1,121.1,129.2,114.7,129.2z"/>
			</g>
			<g id="XMLID_184_">
				<path id="XMLID_186_" class="st2" d="M121.1,117.4c-0.1-3.4-2.8-6-6.2-6c-3.4,0-6.1,2.6-6.2,5.9c0,0.1,0,0.2,0,0.3
					c0,1.2,0.3,2.2,0.9,3.2l-1.1,3.3l3.4-1.1c0.9,0.5,1.9,0.8,3,0.8c3.4,0,6.3-2.8,6.3-6.2C121.1,117.4,121.1,117.4,121.1,117.4z
					 M114.9,122.7c-1.1,0-2-0.3-2.9-0.9l-2,0.7l0.7-1.9c-0.7-0.9-1-1.9-1-3c0-0.2,0-0.3,0-0.5c0.3-2.6,2.5-4.7,5.2-4.7
					c2.8,0,5,2.1,5.2,4.8c0,0.1,0,0.3,0,0.4C120.1,120.4,117.8,122.7,114.9,122.7z"/>
				<path id="XMLID_185_" class="st2" d="M117.7,118.8c-0.1-0.1-0.9-0.5-1.1-0.5c-0.1-0.1-0.3-0.1-0.3,0.1c-0.1,0.1-0.4,0.5-0.5,0.6
					c-0.1,0.1-0.2,0.1-0.3,0.1c-0.1-0.1-0.7-0.3-1.3-0.7c-0.5-0.4-0.8-0.9-0.9-1.1c-0.1-0.1,0-0.3,0.1-0.3c0.1-0.1,0.1-0.2,0.2-0.3
					l0.1-0.1c0.1-0.1,0.1-0.1,0.1-0.2c0.1-0.1,0-0.2,0-0.3c-0.1-0.1-0.3-0.8-0.5-1.1s-0.3-0.3-0.3-0.3s-0.2,0-0.3,0
					c-0.1,0-0.3,0.1-0.4,0.2s-0.5,0.5-0.5,1.3c0,0.2,0,0.3,0.1,0.5c0.1,0.5,0.5,1,0.5,1.1c0.1,0.1,1.1,1.6,2.6,2.3
					c1.6,0.6,1.6,0.4,1.8,0.4s0.9-0.4,1.1-0.7s0.1-0.7,0.1-0.7C118,118.9,117.9,118.8,117.7,118.8z"/>
			</g>
		</g>
		<g id="XMLID_180_">
			<path id="XMLID_181_" class="st2" d="M141.2,121.1c0,0.6,0.1,1.1,0.2,1.4c0.1,0.3,0.3,0.6,0.7,0.9c0.3,0.3,0.7,0.5,1.2,0.7
				s1,0.2,1.6,0.2c0.5,0,1-0.1,1.5-0.1c0.5-0.1,1-0.3,1.5-0.5v-2.2c-0.7,0.5-1.3,0.7-2,0.7c-0.4,0-0.7-0.1-1-0.3
				c-0.2-0.1-0.4-0.3-0.5-0.5c-0.1-0.2-0.1-0.7-0.1-1.5v-3.4h3.1v-2h-3v-3.3h-1.8c-0.1,0.7-0.3,1.3-0.5,1.6
				c-0.2,0.5-0.5,0.8-0.9,1.1c-0.4,0.3-0.8,0.5-1.3,0.7v1.8h1.5L141.2,121.1L141.2,121.1z"/>
		</g>
	</g>
	<g>
		<g>
			<path class="st9" d="M47,88.4v-8h-0.1c-0.2,0.1-2.1,1.4-2.3,1.5v-2.2c0.3-0.2,2.2-1.5,2.4-1.6h2.4v10.3L47,88.4L47,88.4z"/>
			<path class="st9" d="M53.2,88.4v-8h-0.1c-0.2,0.1-2.1,1.4-2.3,1.5v-2.2c0.3-0.2,2.2-1.5,2.4-1.6h2.4v10.3L53.2,88.4L53.2,88.4z"
				/>
			<path class="st9" d="M58.8,85.8c0.7,0,1.4,0.6,1.4,1.4c0,0.7-0.6,1.4-1.4,1.4c-0.8,0-1.4-0.6-1.4-1.4
				C57.4,86.4,58,85.8,58.8,85.8z"/>
			<path class="st9" d="M61.5,81.2v-0.1c0-1.8,1.5-3.2,3.8-3.2c2.2,0,3.6,1.2,3.6,2.9c0,1.2-0.5,2-1.8,3.3l-2,2.2v0.1H69v2h-7.4
				v-1.5l3.7-3.8c0.7-0.7,1.1-1.3,1.1-2c0-0.7-0.5-1.3-1.3-1.3s-1.3,0.6-1.3,1.3c0,0.1,0,0.1,0,0.1L61.5,81.2L61.5,81.2z"/>
			<path class="st9" d="M72.8,88.4h-2.4V77.6h2.4v5.9h0.1l2.2-3.2h2.7l-2.8,3.4l3,4.6h-2.8l-2-3.2l-0.5,0.6L72.8,88.4L72.8,88.4z"/>
		</g>
		<g class="st10">
			<path class="st9" d="M46.2,96c0.1,0.5,0.5,0.9,1.3,0.9c0.7,0,1.2-0.3,1.2-0.9c0-0.4-0.3-0.7-0.9-0.8l-0.9-0.3
				c-0.6-0.1-1.2-0.5-1.2-1.3c0-1,0.9-1.5,1.8-1.5c0.9,0,1.8,0.5,1.8,1.5h-0.7c-0.1-0.5-0.4-0.9-1.1-0.9c-0.7,0-1.1,0.3-1.1,0.9
				c0,0.4,0.2,0.7,0.7,0.8l0.9,0.3c0.8,0.2,1.3,0.6,1.3,1.4c0,1-0.9,1.5-1.9,1.5c-1.4,0-1.8-0.9-1.8-1.5L46.2,96
				C46.2,96,46.2,96,46.2,96z"/>
			<path class="st9" d="M54.1,97.3V95h-2.6v2.4h-0.7v-5.1h0.7v2.2h2.6v-2.2h0.7v5.1H54.1z"/>
			<path class="st9" d="M56.1,97.3l1.8-5.1h0.7l1.8,5.1h-0.7l-0.5-1.5h-1.9l-0.5,1.5H56.1z M58.2,93l-0.8,2.3H59L58.2,93L58.2,93z"
				/>
			<path class="st9" d="M65.3,93.7c0,0.9-0.5,1.3-0.9,1.5l1.1,2.2h-0.7l-0.9-2h-1.3v2h-0.7v-5.1h1.8C64.8,92.2,65.3,92.9,65.3,93.7z
				 M63.5,94.7c0.7,0,1.1-0.3,1.1-0.9c0-0.7-0.4-1-1.1-1h-1.1v1.9H63.5z"/>
			<path class="st9" d="M70,97.3h-3.1v-5.1H70v0.6h-2.4v1.6h2.3V95h-2.3v1.8H70V97.3z"/>
			<path class="st9" d="M71.9,96c0.1,0.5,0.5,0.9,1.3,0.9c0.7,0,1.2-0.3,1.2-0.9c0-0.4-0.3-0.7-0.9-0.8l-0.9-0.3
				c-0.6-0.1-1.2-0.5-1.2-1.3c0-1,0.9-1.5,1.8-1.5c0.9,0,1.8,0.5,1.8,1.5h-0.7c-0.1-0.5-0.4-0.9-1.1-0.9c-0.7,0-1.1,0.3-1.1,0.9
				c0,0.4,0.2,0.7,0.7,0.8l0.9,0.3c0.8,0.2,1.3,0.6,1.3,1.4c0,1-0.9,1.5-1.9,1.5c-1.4,0-1.8-0.9-1.8-1.5L71.9,96L71.9,96L71.9,96z"
				/>
		</g>
	</g>
	<rect x="89" y="70.8" class="st11" width="1.3" height="32.2"/>
</g>
</svg>
