<?xml version="1.0" encoding="utf-8"?>
<!-- Generator: Adobe Illustrator 22.0.1, SVG Export Plug-In . SVG Version: 6.00 Build 0)  -->
<svg version="1.1" id="Layer_1" xmlns="http://www.w3.org/2000/svg" xmlns:xlink="http://www.w3.org/1999/xlink" x="0px" y="0px"
	 viewBox="0 0 200 200" style="enable-background:new 0 0 200 200;" xml:space="preserve">
<style type="text/css">
	.st0{fill:url(#SVGID_1_);}
	.st1{fill:#7B83EB;}
	.st2{fill:#FFFFFF;}
	.st3{fill:#5059C9;}
	.st4{clip-path:url(#SVGID_3_);}
	.st5{fill:url(#SVGID_4_);}
</style>
<linearGradient id="SVGID_1_" gradientUnits="userSpaceOnUse" x1="13.35" y1="100" x2="186.65" y2="100">
	<stop  offset="0" style="stop-color:#5A62C4"/>
	<stop  offset="1" style="stop-color:#3940AB"/>
</linearGradient>
<path class="st0" d="M22.1,45c-4.8,2.8-8.7,9.5-8.7,15v80c0,5.5,3.9,12.3,8.7,15l69.3,40c4.8,2.8,12.6,2.8,17.3,0l69.3-40
	c4.8-2.8,8.7-9.5,8.7-15V60c0-5.5-3.9-12.3-8.7-15L108.7,5c-4.8-2.8-12.6-2.8-17.3,0L22.1,45z"/>
<path class="st1" d="M32.1,149.1c-4.8-2.8-8.7-9.5-8.7-15V65.8c0-5.5,3.9-12.3,8.7-15l59.3-34.2c4.8-2.8,12.6-2.8,17.3,0l59.3,34.2
	c4.8,2.8,8.7,9.5,8.7,15v68.5c0,5.5-3.9,12.3-8.7,15l-59.3,34.2c-4.8,2.8-12.6,2.8-17.3,0L32.1,149.1z"/>
<path class="st2" d="M42.1,143.6c-4.8-2.8-8.7-9.5-8.7-15v-57c0-5.5,3.9-12.3,8.7-15l49.3-28.5c4.8-2.8,12.6-2.8,17.3,0l49.3,28.5
	c4.8,2.8,8.7,9.5,8.7,15v56.9c0,5.5-3.9,12.3-8.7,15l-49.3,28.5c-4.8,2.8-12.6,2.8-17.3,0L42.1,143.6z"/>
<path d="M100,100"/>
<g>
	<g id="small_person">
		<path id="Body_9_" class="st3" d="M123.2,89.7h21.6c2.6,0,4.6,2.1,4.6,4.6v21.1c0,8.5-6.9,15.5-15.5,15.5l0,0
			c-8.5,0-15.5-6.9-15.5-15.5l0,0V94.3C118.5,91.8,120.6,89.7,123.2,89.7z"/>
		<circle id="Head_9_" class="st3" cx="134" cy="73.2" r="10.3"/>
	</g>
	<g id="Large_Person">
		<path id="Body-2_9_" class="st1" d="M82,89.7h40.2c2.6,0,4.6,2.1,4.6,4.6v26.3c0,13.7-11.1,24.7-24.7,24.7s-24.7-11.1-24.7-24.7
			V94.3C77.3,91.8,79.4,89.7,82,89.7z"/>
		<circle id="Head-2_9_" class="st1" cx="102.1" cy="69.1" r="14.4"/>
	</g>
	<g>
		<g>
			<defs>
				<path id="SVGID_2_" d="M122.1,89.7H100v-6.3c7.9,1.1,15.2-4.3,16.3-12.2c1.1-7.9-4.3-15.2-12.2-16.3
					c-7.9-1.1-15.2,4.3-16.3,12.2c-0.1,0.7-0.1,1.4-0.1,2.1c0,2.1,0.5,4.3,1.4,6.2H54.7c-2.3,0-4.1,1.9-4.1,4.1v41.2
					c0,2.3,1.9,4.1,4.1,4.1h23c2,11.7,12.1,20.6,24.4,20.6c13.7,0,24.7-11.1,24.7-24.7V94.3C126.8,91.8,124.7,89.7,122.1,89.7z"/>
			</defs>
			<clipPath id="SVGID_3_">
				<use xlink:href="#SVGID_2_"  style="overflow:visible;"/>
			</clipPath>
			<g id="Back_Plate" class="st4">
				
					<linearGradient id="SVGID_4_" gradientUnits="userSpaceOnUse" x1="55.6267" y1="-81.2673" x2="55.7555" y2="-81.1385" gradientTransform="matrix(384 0 0 384 -21320 31272)">
					<stop  offset="0" style="stop-color:#5A62C4"/>
					<stop  offset="1" style="stop-color:#3940AB"/>
				</linearGradient>
				<path class="st5" d="M54.7,75.3h41.2c2.3,0,4.1,1.8,4.1,4.1v41.2c0,2.3-1.8,4.1-4.1,4.1H54.7c-2.3,0-4.1-1.8-4.1-4.1V79.4
					C50.5,77.1,52.4,75.3,54.7,75.3z"/>
			</g>
		</g>
	</g>
	<g id="Letter_T">
		<polygon class="st2" points="85.5,91.5 77.7,91.5 77.7,112.6 72.8,112.6 72.8,91.5 65.1,91.5 65.1,87.4 85.5,87.4 		"/>
	</g>
</g>
</svg>
