<?xml version="1.0" encoding="utf-8"?>
<!-- Generator: Adobe Illustrator 22.0.1, SVG Export Plug-In . SVG Version: 6.00 Build 0)  -->
<svg version="1.1" id="Layer_1" xmlns="http://www.w3.org/2000/svg" xmlns:xlink="http://www.w3.org/1999/xlink" x="0px" y="0px"
	 viewBox="0 0 200 200" style="enable-background:new 0 0 200 200;" xml:space="preserve">
<style type="text/css">
	.st0{fill:#034377;}
	.st1{fill:#005CB9;}
	.st2{fill:#FFFFFF;}
</style>
<path class="st0" d="M22.1,45c-4.8,2.8-8.7,9.5-8.7,15v80c0,5.5,3.9,12.3,8.7,15l69.3,40c4.8,2.8,12.6,2.8,17.3,0l69.3-40
	c4.8-2.8,8.7-9.5,8.7-15V60c0-5.5-3.9-12.3-8.7-15L108.7,5c-4.8-2.8-12.6-2.8-17.3,0L22.1,45z"/>
<path class="st1" d="M32.1,149.2c-4.8-2.8-8.7-9.5-8.7-15V65.8c0-5.5,3.9-12.3,8.7-15l59.3-34.2c4.8-2.8,12.6-2.8,17.3,0L168,50.8
	c4.8,2.8,8.7,9.5,8.7,15v68.5c0,5.5-3.9,12.3-8.7,15l-59.3,34.2c-4.8,2.8-12.6,2.8-17.3,0L32.1,149.2z"/>
<path class="st2" d="M42.1,143.5c-4.8-2.8-8.7-9.5-8.7-15v-57c0-5.5,3.9-12.3,8.7-15L91.4,28c4.8-2.8,12.6-2.8,17.3,0L158,56.5
	c4.8,2.8,8.7,9.5,8.7,15v56.9c0,5.5-3.9,12.3-8.7,15l-49.3,28.5c-4.8,2.8-12.6,2.8-17.3,0L42.1,143.5z"/>
<path d="M100,100"/>
<g>
	<path class="st1" d="M100,55.7c-24.3,0-44,19.7-44,44c0,11,4,21,10.6,28.7c-2,5.7-5.7,10.7-10.5,14.2c3,1,6.3,1.6,9.7,1.6
		c5.8,0,11.2-1.6,15.8-4.5c5.6,2.6,11.8,4,18.4,4c24.3,0,44-19.7,44-44C144,75.4,124.3,55.7,100,55.7z"/>
	<g>
		<g>
			<path class="st2" d="M93.4,124.5h10.3c0,0,0-14.3,0-25.9h7.7l0.9-10.3h-8.2v-4.1c0-2,1.3-2.5,2.3-2.5c0.9,0,5.8,0,5.8,0v-8.9
				l-8,0c-8.9,0-10.9,6.6-10.9,10.8v4.7h-5.1v10.3h5.2C93.4,110.3,93.4,124.5,93.4,124.5z"/>
		</g>
	</g>
</g>
</svg>
