<svg height="512pt" viewBox="0 0 512 512" width="512pt" xmlns="http://www.w3.org/2000/svg"><g fill="#809399"><path d="m215.425781 4.855469-28.964843 72.40625h139.078124l-28.964843-72.40625c-1.171875-2.933594-4.015625-4.855469-7.171875-4.855469h-66.804688c-3.15625 0-6 1.921875-7.171875 4.855469zm0 0"/><path d="m49.726562 107.105469 30.71875 71.679687 98.339844-98.339844-71.679687-30.71875c-2.902344-1.246093-6.273438-.597656-8.507813 1.636719l-47.234375 47.234375c-2.234375 2.234375-2.882812 5.605469-1.636719 8.507813zm0 0"/><path d="m4.855469 296.574219 72.40625 28.964843v-139.078124l-72.40625 28.964843c-2.933594 1.171875-4.855469 4.015625-4.855469 7.171875v66.804688c0 3.15625 1.921875 6 4.855469 7.171875zm0 0"/><path d="m107.105469 462.273438 71.679687-30.71875-98.339844-98.339844-30.71875 71.679687c-1.246093 2.902344-.597656 6.273438 1.636719 8.507813l47.234375 47.234375c2.234375 2.234375 5.605469 2.882812 8.507813 1.636719zm0 0"/><path d="m296.574219 507.144531 28.964843-72.40625h-139.078124l28.964843 72.40625c1.171875 2.929688 4.015625 4.855469 7.171875 4.855469h66.804688c3.15625 0 6-1.921875 7.171875-4.855469zm0 0"/><path d="m462.273438 404.894531-30.71875-71.679687-98.339844 98.339844 71.679687 30.71875c2.902344 1.246093 6.273438.597656 8.507813-1.636719l47.234375-47.234375c2.234375-2.234375 2.882812-5.605469 1.636719-8.507813zm0 0"/><path d="m507.144531 215.425781-72.40625-28.964843v139.078124l72.40625-28.964843c2.929688-1.171875 4.855469-4.015625 4.855469-7.171875v-66.804688c0-3.15625-1.921875-6-4.855469-7.171875zm0 0"/><path d="m404.894531 49.726562-71.679687 30.71875 98.339844 98.339844 30.71875-71.679687c1.246093-2.902344.597656-6.273438-1.636719-8.507813l-47.234375-47.234375c-2.234375-2.234375-5.605469-2.882812-8.507813-1.636719zm0 0"/></g><path d="m256 39.660156c-119.292969 0-216.339844 97.058594-216.339844 216.339844 0 119.292969 97.046875 216.339844 216.339844 216.339844s216.339844-97.046875 216.339844-216.339844c0-119.28125-97.046875-216.339844-216.339844-216.339844zm0 0" fill="#9cb5bb"/><path d="m256 93.746094c-89.609375 0-162.253906 72.644531-162.253906 162.253906s72.644531 162.253906 162.253906 162.253906 162.253906-72.644531 162.253906-162.253906-72.644531-162.253906-162.253906-162.253906zm0 0" fill="#809399"/><path d="m387.347656 256c0 72.542969-58.804687 131.347656-131.347656 131.347656s-131.347656-58.804687-131.347656-131.347656 58.804687-131.347656 131.347656-131.347656 131.347656 58.804687 131.347656 131.347656zm0 0" fill="#fff"/><path d="m256 155.558594 71.019531 73.121094v-43.699219c-18.171875-18.183594-43.285156-29.421875-71.019531-29.421875zm0 0" fill="#5dc75d"/><path d="m256 155.558594c23.695312 0 44.628906 17.121094 57.175781 43.265625l13.84375 29.855469h-43.699219c-6.996093-6.984376-16.648437-11.3125-27.320312-11.3125l-30.90625-30.90625zm0 0" fill="#aed06d"/><path d="m256 155.558594v61.808594c-10.671875 0-20.324219 4.328124-27.320312 11.3125h-43.699219v-43.699219c18.171875-18.183594 43.285156-29.421875 71.019531-29.421875zm0 0" fill="#5aecff"/><path d="m184.980469 184.980469 43.699219 43.699219c-6.984376 6.996093-11.3125 16.648437-11.3125 27.320312l-30.90625 30.90625-30.902344-30.90625c0-27.734375 11.238281-52.847656 29.421875-71.019531zm0 0" fill="#10beff"/><path d="m223.6875 288.3125-33.019531 33.027344c-3.164063 3.164062-8.390625 3.027344-11.285157-.382813-14.863281-17.515625-23.824218-40.183593-23.824218-64.957031h61.808594c0 8.300781 2.617187 15.984375 7.066406 22.28125 2.203125 3.117188 1.953125 7.335938-.746094 10.03125zm0 0" fill="#2a51ff"/><path d="m356.441406 256-43.265625 15.453125v-72.628906l13.84375-13.84375c18.183594 18.171875 29.421875 43.285156 29.421875 71.019531zm0 0" fill="#ffa433"/><path d="m325.539062 256-12.363281 15.453125-18.542969-15.453125c0-10.671875-4.328124-20.324219-11.3125-27.320312l29.855469-29.855469c7.789063 16.226562 12.363281 35.933593 12.363281 57.175781zm0 0" fill="#ffc43b"/><path d="m325.539062 256-12.363281 57.175781 8.15625 8.15625c3.164063 3.164063 8.390625 3.027344 11.285157-.382812 14.863281-17.511719 23.824218-40.1875 23.824218-64.949219zm0 0" fill="#ff451b"/><path d="m294.632812 256h30.90625c0 21.242188-4.566406 40.949219-12.363281 57.175781l-24.863281-24.863281c-2.699219-2.695312-2.949219-6.914062-.75-10.03125 4.453125-6.296875 7.070312-13.980469 7.070312-22.28125zm0 0" fill="#ff6523"/></svg>