<?xml version="1.0" encoding="utf-8"?>
<!-- Generator: Adobe Illustrator 22.0.1, SVG Export Plug-In . SVG Version: 6.00 Build 0)  -->
<svg version="1.1" id="Layer_1" xmlns="http://www.w3.org/2000/svg" xmlns:xlink="http://www.w3.org/1999/xlink" x="0px" y="0px"
	 viewBox="0 0 200 200" style="enable-background:new 0 0 200 200;" xml:space="preserve">
<style type="text/css">
	.st0{fill:#2626BC;}
	.st1{fill:#8399FE;}
	.st2{fill:#FFFFFF;}
	.st3{fill:url(#SVGID_1_);}
	.st4{opacity:0.1;fill:#2626BC;enable-background:new    ;}
	.st5{fill:#9FB0FE;}
	.st6{fill:#6583FE;}
	.st7{fill:#B7C5FF;}
	.st8{fill:#02FFB3;}
	.st9{fill:#FF5BA8;}
	.st10{fill:#FFDBED;}
	.st11{fill:#00ECA2;}
	.st12{fill:#FF7EB8;}
</style>
<path class="st0" d="M22.1,45c-4.8,2.8-8.7,9.5-8.7,15v80c0,5.5,3.9,12.3,8.7,15l69.3,40c4.8,2.8,12.6,2.8,17.3,0l69.3-40
	c4.8-2.8,8.7-9.5,8.7-15V60c0-5.5-3.9-12.3-8.7-15L108.7,5c-4.8-2.8-12.6-2.8-17.3,0L22.1,45z"/>
<path class="st1" d="M32.1,149.1c-4.8-2.8-8.7-9.5-8.7-15V65.8c0-5.5,3.9-12.3,8.7-15l59.3-34.2c4.8-2.8,12.6-2.8,17.3,0l59.3,34.2
	c4.8,2.8,8.7,9.5,8.7,15v68.5c0,5.5-3.9,12.3-8.7,15l-59.3,34.2c-4.8,2.8-12.6,2.8-17.3,0L32.1,149.1z"/>
<path class="st2" d="M42.1,143.6c-4.8-2.8-8.7-9.5-8.7-15v-57c0-5.5,3.9-12.3,8.7-15l49.3-28.5c4.8-2.8,12.6-2.8,17.3,0l49.3,28.5
	c4.8,2.8,8.7,9.5,8.7,15v56.9c0,5.5-3.9,12.3-8.7,15l-49.3,28.5c-4.8,2.8-12.6,2.8-17.3,0L42.1,143.6z"/>
<path d="M100,100"/>
<g>
	<g>
		
			<linearGradient id="SVGID_1_" gradientUnits="userSpaceOnUse" x1="138.4794" y1="-160.1855" x2="87.4202" y2="-227.8279" gradientTransform="matrix(1 0 0 1 0 314)">
			<stop  offset="0" style="stop-color:#C6D1FF"/>
			<stop  offset="0.5834" style="stop-color:#E6D5F4"/>
			<stop  offset="0.997" style="stop-color:#FFD9EC"/>
		</linearGradient>
		<path class="st3" d="M153.7,77.7c-4.9-12.4-19.9-19.9-32.6-14.9c-14.5,5.6-9.7,28.7-22.9,33.4c-7.1,2.5-17.7-6.9-24.9-8.4
			C60,85.1,48,94.5,45,107.4c-3,13.2,1.8,30.9,16.4,34.5c17.3,4.3,26.3-11.3,40.8-15.8c14.9-4.6,31.5,6.2,43.8-6.9
			C155.1,109.5,158.5,89.9,153.7,77.7L153.7,77.7z"/>
	</g>
	<g>
		<path class="st4" d="M148.2,83.1c0-8.6-7-15.6-15.6-15.6c-6.7,0-12.4,4.2-14.6,10.1H61.6c-2.4,0-4.4,2-4.4,4.4v48.3
			c0,2.4,2,4.4,4.4,4.4h76.9c2.4,0,4.4-2,4.4-4.4V94.9C146.1,92,148.2,87.8,148.2,83.1L148.2,83.1z"/>
		<g>
			<g>
				<path class="st5" d="M138.4,129.2H61.6c-2.4,0-4.4-2-4.4-4.4V76.5c0-2.4,2-4.4,4.4-4.4h76.9c2.4,0,4.4,2,4.4,4.4v48.3
					C142.8,127.2,140.8,129.2,138.4,129.2z"/>
				<g>
					<path class="st1" d="M142.8,76.5v18.4c-2.7,2.4-6.3,3.8-10.2,3.8c-8.6,0-15.6-7-15.6-15.6c0-4.3,1.7-8.2,4.6-11h16.9
						C140.8,72.1,142.8,74.1,142.8,76.5L142.8,76.5z"/>
					<path class="st1" d="M142.8,76.5V82L104,111.8c-1.1,0.9-2.6,1.4-4,1.4c-1.4,0-2.9-0.5-4-1.4L57.2,82v-5.5c0-2.4,2-4.4,4.4-4.4
						h76.9C140.8,72.1,142.8,74.1,142.8,76.5z"/>
					<path class="st1" d="M101.3,92.9l41.5,31.9c0,2.4-2,4.4-4.4,4.4H61.6c-2.4,0-4.4-2-4.4-4.4l41.5-31.9
						C99.5,92.4,100.5,92.4,101.3,92.9L101.3,92.9z"/>
				</g>
				<path class="st6" d="M114.9,103.4l-11,8.4c-1.1,0.9-2.6,1.4-4,1.4c-1.4,0-2.9-0.5-4-1.4l-11-8.4l13.6-10.5
					c0.8-0.6,1.9-0.6,2.7,0L114.9,103.4z"/>
				<path class="st7" d="M98.7,108.4L57.2,76.5c0-2.4,2-4.4,4.4-4.4h76.9c2.4,0,4.4,2,4.4,4.4l-41.5,31.9
					C100.5,109,99.5,109,98.7,108.4z"/>
			</g>
			<g>
				<path class="st8" d="M125.1,123.4h-7c-0.6,0-1.1-0.5-1.1-1.1v-4.8c0-0.6,0.5-1.1,1.1-1.1h7c0.6,0,1.1,0.5,1.1,1.1v4.8
					C126.2,122.9,125.7,123.4,125.1,123.4z"/>
				<g>
					<g>
						<g>
							<path class="st2" d="M112.2,118.9h-6.1c-0.6,0-1.1-0.5-1.1-1.1s0.5-1.1,1.1-1.1h6.1c0.6,0,1.1,0.5,1.1,1.1
								S112.8,118.9,112.2,118.9z"/>
						</g>
					</g>
					<g>
						<g>
							<path class="st2" d="M112.2,123.4H90.8c-0.6,0-1.1-0.5-1.1-1.1s0.5-1.1,1.1-1.1h21.3c0.6,0,1.1,0.5,1.1,1.1
								S112.8,123.4,112.2,123.4z"/>
						</g>
					</g>
				</g>
			</g>
			<g>
				<circle class="st9" cx="132.6" cy="77.7" r="15.6"/>
				<path class="st0" d="M132.6,94.3c9.2,0,16.7-7.5,16.7-16.7S141.8,61,132.6,61s-16.7,7.5-16.7,16.7c0,5.3,2.5,10.1,6.5,13.2
					l-21.7,16.7c-0.4,0.3-0.9,0.3-1.3,0L58.3,76c0.2-1.6,1.6-2.8,3.2-2.8h50.1c0.6,0,1.1-0.5,1.1-1.1c0-0.6-0.5-1.1-1.1-1.1H61.6
					c-3,0-5.5,2.4-5.5,5.5v48.3c0,3,2.4,5.5,5.5,5.5h76.9c3,0,5.5-2.4,5.5-5.5V96c0-0.6-0.5-1.1-1.1-1.1s-1.1,0.5-1.1,1.1v26.6
					l-28.6-22l11.1-8.5C126.7,93.5,129.6,94.3,132.6,94.3L132.6,94.3z M86.8,100.7l-28.6,22V78.7L86.8,100.7z M141.7,125.3
					c-0.2,1.6-1.6,2.8-3.2,2.8H61.6c-1.6,0-3-1.2-3.2-2.8L88.6,102l9.4,7.2c0.6,0.5,1.3,0.7,2,0.7s1.4-0.2,2-0.7l9.4-7.2
					L141.7,125.3z M118.1,77.7c0-8,6.5-14.5,14.5-14.5s14.5,6.5,14.5,14.5s-6.5,14.5-14.5,14.5S118.1,85.7,118.1,77.7z"/>
			</g>
			<path class="st2" d="M125.8,72.3l2.2,5.3l-2.2,5.3c-0.4,0.9,0.5,1.8,1.4,1.4l13.4-5.7c0.9-0.4,0.9-1.6,0-2l-13.4-5.7
				C126.3,70.5,125.4,71.4,125.8,72.3z"/>
			<path class="st10" d="M133.1,78.7l-6.7,2.9l1.6-3.9l-1.6-3.9l6.7,2.9C133.9,77,133.9,78.3,133.1,78.7z"/>
		</g>
		<path class="st11" d="M116.3,62c-0.8,0-1.6-0.3-2.2-0.9c-1.2-1.2-1.2-3.3,0-4.5c1.2-1.2,3.3-1.2,4.5,0c1.2,1.2,1.2,3.3,0,4.5
			C118,61.7,117.1,62,116.3,62z M116.3,57.8c-0.3,0-0.5,0.1-0.7,0.3c-0.4,0.4-0.4,1,0,1.4c0.4,0.4,1,0.4,1.4,0c0.4-0.4,0.4-1,0-1.4
			C116.8,57.9,116.6,57.8,116.3,57.8z"/>
		<path class="st11" d="M91.8,144.4c-0.8,0-1.6-0.3-2.2-0.9c-1.2-1.2-1.2-3.3,0-4.5c1.2-1.2,3.3-1.2,4.5,0c1.2,1.2,1.2,3.3,0,4.5
			C93.5,144.1,92.6,144.4,91.8,144.4L91.8,144.4z M91.8,140.2c-0.3,0-0.5,0.1-0.7,0.3c-0.4,0.4-0.4,1,0,1.4s1,0.4,1.4,0s0.4-1,0-1.4
			C92.3,140.3,92.1,140.2,91.8,140.2z"/>
		<path class="st12" d="M108.5,64.8c-0.3,0-0.6-0.1-0.8-0.3l-1.3-1.3l-1.3,1.3c-0.4,0.4-1.1,0.4-1.5,0c-0.4-0.4-0.4-1.1,0-1.5
			l2.1-2.1c0.4-0.4,1.1-0.4,1.5,0l2.1,2.1c0.4,0.4,0.4,1.1,0,1.5C109,64.7,108.8,64.8,108.5,64.8z"/>
		<path class="st12" d="M140.1,140.2c-0.3,0-0.6-0.1-0.8-0.3l-1.3-1.3l-1.3,1.3c-0.4,0.4-1.1,0.4-1.5,0s-0.4-1.1,0-1.5l2.1-2.1
			c0.4-0.4,1.1-0.4,1.5,0l2.1,2.1c0.4,0.4,0.4,1.1,0,1.5C140.7,140.1,140.4,140.2,140.1,140.2z"/>
		<path class="st6" d="M83.2,141.3c-0.3,0-0.6-0.1-0.8-0.3l-1.3-1.3l-1.3,1.3c-0.4,0.4-1.1,0.4-1.5,0c-0.4-0.4-0.4-1.1,0-1.5
			l2.1-2.1c0.4-0.4,1.1-0.4,1.5,0l2.1,2.1c0.4,0.4,0.4,1.1,0,1.5C83.7,141.2,83.5,141.3,83.2,141.3z"/>
	</g>
</g>
</svg>
