<?xml version="1.0" encoding="utf-8"?>
<!-- Generator: Adobe Illustrator 22.0.1, SVG Export Plug-In . SVG Version: 6.00 Build 0)  -->
<svg version="1.1" id="Layer_1" xmlns="http://www.w3.org/2000/svg" xmlns:xlink="http://www.w3.org/1999/xlink" x="0px" y="0px"
	 viewBox="0 0 200 200" style="enable-background:new 0 0 200 200;" xml:space="preserve">
<style type="text/css">
	.st0{fill:#FA759E;}
	.st1{fill:#6DC9F7;}
	.st2{fill:#FFFFFF;}
	.st3{fill:#E6E7E8;}
	.st4{fill:#D4FBFF;}
	.st5{fill:#3A2C60;}
</style>
<path class="st0" d="M22.1,45c-4.8,2.8-8.7,9.5-8.7,15v80c0,5.5,3.9,12.3,8.7,15l69.3,40c4.8,2.8,12.6,2.8,17.3,0l69.3-40
	c4.8-2.8,8.7-9.5,8.7-15V60c0-5.5-3.9-12.3-8.7-15L108.7,5c-4.8-2.8-12.6-2.8-17.3,0L22.1,45z"/>
<path class="st1" d="M32.1,149.2c-4.8-2.8-8.7-9.5-8.7-15V65.8c0-5.5,3.9-12.3,8.7-15l59.3-34.2c4.8-2.8,12.6-2.8,17.3,0l59.3,34.2
	c4.8,2.8,8.7,9.5,8.7,15v68.5c0,5.5-3.9,12.3-8.7,15l-59.3,34.2c-4.8,2.8-12.6,2.8-17.3,0L32.1,149.2z"/>
<path class="st2" d="M42.1,143.5c-4.8-2.8-8.7-9.5-8.7-15V71.5c0-5.5,3.9-12.3,8.7-15l49.3-28.5c4.8-2.8,12.6-2.8,17.3,0l49.3,28.5
	c4.8,2.8,8.7,9.5,8.7,15v56.9c0,5.5-3.9,12.3-8.7,15l-49.3,28.5c-4.8,2.8-12.6,2.8-17.3,0L42.1,143.5z"/>
<path d="M100,100"/>
<g>
	<path class="st3" d="M148.4,126.1c0.1-0.4,0.1-0.7,0.1-1.1V72.5c0-4.1-3.4-7.5-7.5-7.5H62.5c-4.1,0-7.5,3.4-7.5,7.5V125
		c0,0.4,0,0.7,0.1,1.1c-2.9,0.5-5.2,3.1-5.2,6.2v5.3c0,0.5,0.4,0.9,0.9,0.9h36.3h7.6h58.1c0.5,0,0.9-0.4,0.9-0.9v-5.3
		C153.6,129.2,151.4,126.6,148.4,126.1L148.4,126.1z"/>
	<path class="st2" d="M52.7,123.3h91c0.1,0,0.2,0,0.4,0V69c0-3.6-3-6.6-6.6-6.6H59c-3.6,0-6.6,3-6.6,6.6v54.3
		C52.5,123.3,52.6,123.3,52.7,123.3z"/>
	<path class="st1" d="M137.5,65H59c-3.6,0-6.6,3-6.6,6.6v51.7c0.1,0,0.2,0,0.4,0h91c0.1,0,0.2,0,0.4,0V71.6
		C144.1,68,141.2,65,137.5,65L137.5,65z"/>
	<path class="st4" d="M105.6,73.4H90.7c-1.5,0-2.8,1.2-2.8,2.8v38.2c0,1.5,1.2,2.8,2.8,2.8h14.9c1.5,0,2.8-1.2,2.8-2.8V76.1
		C108.3,74.6,107.1,73.4,105.6,73.4z"/>
	<path class="st0" d="M98.1,84.2c2.1,0,3.7,0.7,4.9,2.2c1.4,1.8,2.1,4.7,2.1,8.8c0,4.1-0.7,7-2.1,8.8c-1.2,1.5-2.8,2.2-4.9,2.2
		c-2.1,0-3.8-0.8-5.1-2.4c-1.3-1.6-1.9-4.5-1.9-8.6c0-4.1,0.7-7,2.1-8.8C94.4,84.9,96,84.2,98.1,84.2z M98.1,87.6
		c-0.5,0-0.9,0.2-1.3,0.5s-0.7,0.9-0.9,1.7c-0.3,1.1-0.4,2.9-0.4,5.4c0,2.5,0.1,4.3,0.4,5.2c0.3,0.9,0.6,1.6,1,1.9
		c0.4,0.3,0.8,0.5,1.3,0.5c0.5,0,0.9-0.2,1.3-0.5c0.4-0.3,0.7-0.9,0.9-1.7c0.3-1.1,0.4-2.9,0.4-5.4c0-2.5-0.1-4.3-0.4-5.2
		c-0.3-0.9-0.6-1.6-1-1.9S98.6,87.6,98.1,87.6L98.1,87.6z"/>
	<path class="st4" d="M133.3,73.4h-14.9c-1.5,0-2.8,1.2-2.8,2.8v38.2c0,1.5,1.2,2.8,2.8,2.8h14.9c1.5,0,2.8-1.2,2.8-2.8V76.1
		C136,74.6,134.8,73.4,133.3,73.4z"/>
	<path class="st0" d="M123.6,73.4c-0.2,0.2-0.3,0.3-0.5,0.5c-1.3,1-2.4,1.7-3.5,2v3.8c2-0.7,3.8-1.7,5.3-3.1V92h4.1V73.4L123.6,73.4
		z"/>
	<path class="st0" d="M125.6,103.5c-1.9,0-3.6,0.5-4.9,1.5c-1.3,1-2.1,2.6-2.3,4.9l4.1,0.4c0.1-1.2,0.4-2.1,0.9-2.6
		c0.5-0.5,1.2-0.8,2.1-0.8c0.9,0,1.6,0.2,2.1,0.7c0.5,0.5,0.7,1.2,0.7,2.1c0,0.8-0.3,1.7-0.9,2.5c-0.4,0.6-1.6,1.8-3.4,3.5
		c-0.4,0.4-0.8,0.8-1.2,1.2h5.6c0.9-0.8,1.5-1.5,1.9-2c0.8-1,1.3-1.9,1.7-2.8c0.3-0.9,0.5-1.8,0.5-2.8c0-1.7-0.6-3.1-1.8-4.3
		C129.4,104.1,127.7,103.5,125.6,103.5z"/>
	<path class="st4" d="M78.1,73.4H63.2c-1.5,0-2.8,1.2-2.8,2.8v38.2c0,1.5,1.2,2.8,2.8,2.8h14.9c1.5,0,2.8-1.2,2.8-2.8V76.1
		C80.8,74.6,79.6,73.4,78.1,73.4z"/>
	<path class="st0" d="M70.6,84.2c2.1,0,3.7,0.7,4.9,2.2c1.4,1.8,2.1,4.7,2.1,8.8c0,4.1-0.7,7-2.1,8.8c-1.2,1.5-2.8,2.2-4.9,2.2
		c-2.1,0-3.8-0.8-5.1-2.4c-1.3-1.6-1.9-4.5-1.9-8.6c0-4.1,0.7-7,2.1-8.8C66.9,84.9,68.5,84.2,70.6,84.2L70.6,84.2z M70.6,87.6
		c-0.5,0-0.9,0.2-1.3,0.5s-0.7,0.9-0.9,1.7c-0.3,1.1-0.4,2.9-0.4,5.4c0,2.5,0.1,4.3,0.4,5.2c0.3,0.9,0.6,1.6,1,1.9
		c0.4,0.3,0.8,0.5,1.3,0.5s0.9-0.2,1.3-0.5c0.4-0.3,0.7-0.9,0.9-1.7c0.3-1.1,0.4-2.9,0.4-5.4c0-2.5-0.1-4.3-0.4-5.2
		c-0.3-0.9-0.6-1.6-1-1.9C71.6,87.8,71.1,87.6,70.6,87.6L70.6,87.6z"/>
	<path class="st0" d="M143.7,123.3h-91c-3,0-5.5,2.4-5.5,5.5v5.3h101.9v-5.3C149.2,125.7,146.8,123.3,143.7,123.3z"/>
	<g>
		<path class="st5" d="M98.1,107.1c2.4,0,4.2-0.9,5.6-2.5c1.6-2,2.3-5,2.3-9.3c0-4.3-0.8-7.4-2.3-9.3c-1.3-1.7-3.2-2.6-5.6-2.6
			c-2.4,0-4.2,0.9-5.6,2.5c-1.6,2-2.3,5-2.3,9.3c0,4.4,0.7,7.4,2.1,9.2C93.8,106.2,95.8,107.1,98.1,107.1L98.1,107.1z M93.9,87
			c1-1.3,2.4-1.9,4.2-1.9c1.8,0,3.2,0.6,4.2,1.9c1.3,1.6,1.9,4.4,1.9,8.2c0,3.9-0.6,6.6-1.9,8.2c-1,1.3-2.4,1.9-4.2,1.9
			c-1.8,0-3.3-0.7-4.4-2.1c-1.2-1.4-1.7-4.2-1.7-8.1C92,91.3,92.7,88.6,93.9,87L93.9,87z"/>
		<path class="st5" d="M96.2,103c0.5,0.4,1.2,0.7,1.9,0.7c0.7,0,1.3-0.2,1.9-0.7c0.5-0.4,0.9-1.2,1.2-2.2c0.3-1.1,0.5-3,0.5-5.6
			c0-2.6-0.1-4.4-0.4-5.4c-0.3-1.1-0.7-1.9-1.3-2.3c-1.1-0.9-2.7-0.9-3.8,0c-0.5,0.4-0.9,1.2-1.2,2.2c-0.3,1.2-0.5,3-0.5,5.6
			c0,2.6,0.1,4.4,0.4,5.4C95.3,101.8,95.7,102.6,96.2,103L96.2,103z M96.7,90c0.2-0.8,0.5-1.1,0.6-1.3c0.2-0.2,0.5-0.3,0.8-0.3
			c0.3,0,0.5,0.1,0.8,0.3c0.1,0.1,0.4,0.4,0.7,1.4c0.2,0.6,0.4,1.9,0.4,5c0,2.4-0.1,4.2-0.4,5.2c-0.2,0.8-0.5,1.1-0.6,1.3
			c-0.5,0.4-1.1,0.4-1.6,0c-0.1-0.1-0.4-0.4-0.7-1.4c-0.2-0.9-0.4-2.5-0.4-5C96.3,92.8,96.5,91,96.7,90L96.7,90z"/>
		<path class="st5" d="M68.7,103c0.5,0.4,1.2,0.7,1.9,0.7c0.7,0,1.3-0.2,1.9-0.7c0.5-0.4,0.9-1.2,1.2-2.2c0.3-1.1,0.5-3,0.5-5.6
			c0-2.6-0.1-4.4-0.4-5.4c-0.3-1.1-0.7-1.9-1.3-2.3c-1.1-0.9-2.7-0.9-3.8,0c-0.5,0.4-0.9,1.2-1.2,2.2c-0.3,1.2-0.5,3-0.5,5.6
			c0,2.6,0.1,4.4,0.4,5.4C67.8,101.8,68.2,102.6,68.7,103L68.7,103z M69.2,90c0.2-0.8,0.5-1.1,0.6-1.3c0.2-0.2,0.5-0.3,0.8-0.3
			c0.3,0,0.5,0.1,0.8,0.3c0.1,0.1,0.4,0.4,0.7,1.4c0.2,0.6,0.4,1.9,0.4,5c0,2.4-0.1,4.2-0.4,5.2c-0.2,0.8-0.5,1.1-0.6,1.3
			c-0.5,0.4-1.1,0.4-1.6,0c-0.1-0.1-0.4-0.4-0.7-1.4c-0.2-0.9-0.4-2.5-0.4-5C68.8,92.8,69,91,69.2,90L69.2,90z"/>
		<path class="st5" d="M70.6,107.1c2.4,0,4.2-0.9,5.6-2.5c1.6-2,2.3-5,2.3-9.3c0-4.3-0.8-7.4-2.3-9.3c-1.3-1.7-3.2-2.6-5.6-2.6
			c-2.4,0-4.2,0.9-5.6,2.5c-1.6,2-2.3,5-2.3,9.3c0,4.4,0.7,7.4,2.1,9.2C66.3,106.2,68.3,107.1,70.6,107.1L70.6,107.1z M66.4,87
			c1-1.3,2.4-1.9,4.2-1.9c1.8,0,3.2,0.6,4.2,1.9c1.3,1.6,1.9,4.4,1.9,8.2c0,3.9-0.6,6.6-1.9,8.2c-1,1.3-2.4,1.9-4.2,1.9
			c-1.8,0-3.3-0.7-4.4-2.1c-1.2-1.4-1.7-4.2-1.7-8.1C64.5,91.3,65.2,88.6,66.4,87L66.4,87z"/>
		<path class="st5" d="M90.7,117.9h14.9c2,0,3.6-1.6,3.6-3.6V76.1c0-2-1.6-3.6-3.6-3.6H90.7c-2,0-3.6,1.6-3.6,3.6v38.2
			C87.1,116.3,88.7,117.9,90.7,117.9L90.7,117.9z M88.8,76.1c0-1,0.8-1.9,1.9-1.9h14.9c1,0,1.9,0.8,1.9,1.9v38.2
			c0,1-0.8,1.9-1.9,1.9H90.7c-1,0-1.9-0.8-1.9-1.9L88.8,76.1z"/>
		<path class="st5" d="M118.4,117.9h14.9c2,0,3.6-1.6,3.6-3.6V76.1c0-2-1.6-3.6-3.6-3.6h-14.9c-2,0-3.6,1.6-3.6,3.6v38.2
			C114.8,116.3,116.4,117.9,118.4,117.9z M128.1,107.1c-0.7-0.7-1.6-1-2.7-1c-1.1,0-2,0.4-2.7,1c-0.5,0.5-0.9,1.3-1,2.2l-2.3-0.2
			c0.3-1.6,0.9-2.7,1.8-3.4c1.1-0.9,2.6-1.3,4.3-1.3c1.9,0,3.4,0.5,4.4,1.5c1,1,1.5,2.2,1.5,3.6c0,0.9-0.2,1.7-0.5,2.4
			c-0.3,0.8-0.8,1.6-1.5,2.5c-0.3,0.4-0.8,1-1.6,1.7h-3c1.7-1.6,2.7-2.7,3.2-3.3c0.7-1,1-2,1-3C129.1,108.7,128.8,107.7,128.1,107.1
			L128.1,107.1z M125.2,75.7c-0.3-0.1-0.7-0.1-1,0.2c-1.1,1-2.4,1.9-3.9,2.5v-1.9c1-0.4,2.1-1.1,3.2-1.9c0.1-0.1,0.2-0.2,0.3-0.3
			h4.2v16.9h-2.4V76.5C125.8,76.1,125.6,75.8,125.2,75.7L125.2,75.7z M116.5,76.1c0-1,0.8-1.9,1.9-1.9h2.5c-0.6,0.3-1.1,0.6-1.6,0.8
			c-0.4,0.1-0.6,0.5-0.6,0.8v3.8c0,0.3,0.1,0.5,0.4,0.7c0.2,0.2,0.5,0.2,0.8,0.1c1.5-0.5,2.9-1.2,4.2-2.1V92c0,0.5,0.4,0.9,0.9,0.9
			h4.1c0.5,0,0.9-0.4,0.9-0.9V74.2h3.4c1,0,1.9,0.8,1.9,1.9v38.2c0,1-0.8,1.9-1.9,1.9h-2.8c0.2-0.2,0.4-0.4,0.5-0.6
			c0.8-1,1.4-2,1.8-3c0.4-1,0.6-2,0.6-3.1c0-1.9-0.7-3.6-2.1-4.9c-1.4-1.3-3.3-2-5.6-2c-2.1,0-3.9,0.6-5.4,1.7
			c-1.5,1.1-2.4,3-2.7,5.5c0,0.2,0,0.5,0.2,0.6c0.1,0.2,0.4,0.3,0.6,0.3l4.1,0.4c0.2,0,0.5-0.1,0.7-0.2c0.2-0.2,0.3-0.4,0.3-0.6
			c0.1-1,0.3-1.7,0.6-2c0.3-0.3,0.8-0.5,1.4-0.5c0.6,0,1.1,0.2,1.4,0.5c0.3,0.3,0.5,0.8,0.5,1.5c0,0.7-0.2,1.3-0.7,2
			c-0.3,0.4-1.1,1.3-3.3,3.4c-0.3,0.3-0.7,0.6-1,0.9h-4c-1,0-1.9-0.8-1.9-1.9L116.5,76.1L116.5,76.1z"/>
		<path class="st5" d="M63.2,117.9h14.9c2,0,3.6-1.6,3.6-3.6V76.1c0-2-1.6-3.6-3.6-3.6H63.2c-2,0-3.6,1.6-3.6,3.6v38.2
			C59.6,116.3,61.2,117.9,63.2,117.9z M61.3,76.1c0-1,0.8-1.9,1.9-1.9h14.9c1,0,1.9,0.8,1.9,1.9v38.2c0,1-0.8,1.9-1.9,1.9H63.2
			c-1,0-1.9-0.8-1.9-1.9L61.3,76.1z"/>
		<path class="st5" d="M91.1,133.2h-7.6c-0.5,0-0.9,0.4-0.9,0.9s0.4,0.9,0.9,0.9h7.6c0.5,0,0.9-0.4,0.9-0.9S91.6,133.2,91.1,133.2z"
			/>
		<path class="st5" d="M145,122.5V69c0-4.1-3.4-7.5-7.5-7.5H59c-4.1,0-7.5,3.4-7.5,7.5v53.6c-2.9,0.6-5.1,3.1-5.1,6.2v5.3
			c0,0.5,0.4,0.9,0.9,0.9h32.1c0.5,0,0.9-0.4,0.9-0.9s-0.4-0.9-0.9-0.9H48.1v-4.4c0-2.5,2.1-4.6,4.6-4.6h91c2.5,0,4.6,2.1,4.6,4.6
			v4.5H95.1c-0.5,0-0.9,0.4-0.9,0.9c0,0.5,0.4,0.9,0.9,0.9h54.1c0.5,0,0.9-0.4,0.9-0.9v-5.3C150.1,125.7,147.9,123.1,145,122.5
			L145,122.5z M59,63.3h78.6c3.2,0,5.7,2.6,5.7,5.7v53.4h-90V69C53.2,65.8,55.8,63.3,59,63.3z"/>
	</g>
</g>
</svg>
