<?xml version="1.0" encoding="utf-8"?>
<!-- Generator: Adobe Illustrator 22.0.1, SVG Export Plug-In . SVG Version: 6.00 Build 0)  -->
<svg version="1.1" id="Layer_1" xmlns="http://www.w3.org/2000/svg" xmlns:xlink="http://www.w3.org/1999/xlink" x="0px" y="0px"
	 viewBox="0 0 200 200" style="enable-background:new 0 0 200 200;" xml:space="preserve">
<style type="text/css">
	.st0{fill:#2D527C;}
	.st1{fill:#CEE8FA;}
	.st2{fill:#FFFFFF;}
</style>
<path class="st0" d="M22.1,45c-4.8,2.8-8.7,9.5-8.7,15v80c0,5.5,3.9,12.3,8.7,15l69.3,40c4.8,2.8,12.6,2.8,17.3,0l69.3-40
	c4.8-2.8,8.7-9.5,8.7-15V60c0-5.5-3.9-12.3-8.7-15L108.7,5c-4.8-2.8-12.6-2.8-17.3,0L22.1,45z"/>
<path class="st1" d="M32.1,149.1c-4.8-2.8-8.7-9.5-8.7-15V65.8c0-5.5,3.9-12.3,8.7-15l59.3-34.2c4.8-2.8,12.6-2.8,17.3,0l59.3,34.2
	c4.8,2.8,8.7,9.5,8.7,15v68.5c0,5.5-3.9,12.3-8.7,15l-59.3,34.2c-4.8,2.8-12.6,2.8-17.3,0L32.1,149.1z"/>
<path class="st2" d="M42.1,143.6c-4.8-2.8-8.7-9.5-8.7-15v-57c0-5.5,3.9-12.3,8.7-15l49.3-28.5c4.8-2.8,12.6-2.8,17.3,0l49.3,28.5
	c4.8,2.8,8.7,9.5,8.7,15v56.9c0,5.5-3.9,12.3-8.7,15l-49.3,28.5c-4.8,2.8-12.6,2.8-17.3,0L42.1,143.6z"/>
<path d="M100,100"/>
<g>
	<path class="st1" d="M111,125.4c-1,0-2-0.6-2.3-1.6l-6.8-18.6l-6.4,18.6c-0.3,1-1.3,1.7-2.3,1.7h-3.7c-1,0-2-0.6-2.3-1.6l-13.8-38
		c-0.3-0.8-0.2-1.6,0.3-2.3c0.5-0.7,1.2-1.1,2-1.1h7.6c1.1,0,2,0.7,2.3,1.7l8.6,25.5l4.5-13.4l-3.8-10.5c-0.3-0.8-0.2-1.6,0.3-2.3
		c0.5-0.7,1.2-1.1,2-1.1h7.7c1.1,0,2,0.7,2.3,1.7l8.4,25c0,0,1.3-4.4,1.3-4.4l0.2-0.7c1.1-3.5,1.9-6,1.9-8.1c0-3-1-5.1-2.1-7
		l-0.3-0.5c-1.4-2.3-2.7-4.4-2.7-7.1c0-3.2,2.4-6.7,6.4-6.8c0,0,0,0,0.1,0c3.3,0,7.3,1.7,8.1,9.8c0.1,0.8,0.1,1.6,0.1,2.3
		c0,3.5-0.7,7-2.3,10.9l-9,26.2c-0.3,1-1.3,1.7-2.3,1.7L111,125.4L111,125.4z"/>
	<g>
		<path class="st0" d="M120.3,77.1c3.3,0,5.1,2.5,5.6,7.5c0.1,0.8,0.1,1.4,0.1,2.1c0,3.2-0.7,6.4-2.1,10l0,0l-9,26.2H111l-9.2-25.1
			l-8.6,25.1h-3.7L75.7,85h7.6l10.9,32.5l7.1-21.2L97.1,85h7.7l10.9,32.4l3.5-11.8l0.2-0.7c1.2-3.7,2-6.4,2-8.8
			c0-3.7-1.3-6.2-2.5-8.3l-0.4-0.6c-1.3-2-2.4-3.8-2.4-5.8C116.3,79.4,117.8,77.1,120.3,77.1 M120.3,72.1c0,0-0.1,0-0.1,0
			c-2.6,0.1-4.9,1.2-6.6,3.2c-1.4,1.7-2.2,3.9-2.2,6.1c0,3.4,1.6,6,3.1,8.4l0.3,0.5c1,1.7,1.8,3.3,1.8,5.8c0,1.3-0.4,2.9-1.1,5
			l-5.9-17.7c-0.7-2-2.6-3.4-4.7-3.4h-7.7c-1.6,0-3.1,0.8-4,2.1c-0.9,1.3-1.1,3-0.6,4.5l3.5,9.7l-1.9,5.6L88,83.4
			c-0.7-2-2.6-3.4-4.7-3.4h-7.6c-1.6,0-3.1,0.8-4,2.1c-0.9,1.3-1.1,3-0.6,4.5l13.8,38c0.7,1.9,2.6,3.2,4.6,3.2h3.7
			c2.1,0,4-1.3,4.7-3.3l4.1-12l4.4,12.1c0.7,1.9,2.6,3.2,4.6,3.2h3.9c2.1,0,4-1.3,4.7-3.3l8.9-26.1c1.7-4.2,2.4-7.9,2.4-11.7
			c0-0.8,0-1.6-0.1-2.5c-0.3-3.5-1.2-6.2-2.7-8.2C126.2,73.5,123.5,72.1,120.3,72.1L120.3,72.1z"/>
		<path class="st0" d="M66,79.8c-1.4,0-2.5-1.1-2.5-2.5V66c0-1.4,1.1-2.5,2.5-2.5h11.3c1.4,0,2.5,1.1,2.5,2.5s-1.1,2.5-2.5,2.5h-8.9
			v8.9C68.4,78.6,67.3,79.8,66,79.8z"/>
		<path class="st0" d="M134,136.5h-11.3c-1.4,0-2.5-1.1-2.5-2.5c0-1.4,1.1-2.5,2.5-2.5h8.9v-8.9c0-1.4,1.1-2.5,2.5-2.5
			c1.4,0,2.5,1.1,2.5,2.5V134C136.5,135.4,135.4,136.5,134,136.5z"/>
		<path class="st0" d="M142.2,144.6H57.8c-1.4,0-2.5-1.1-2.5-2.5V57.8c0-1.4,1.1-2.5,2.5-2.5h84.3c1.4,0,2.5,1.1,2.5,2.5v84.3
			C144.6,143.5,143.5,144.6,142.2,144.6z M60.3,139.7h79.4V60.3H60.3V139.7z"/>
	</g>
</g>
</svg>
