<svg height="512" viewBox="0 0 56 60" width="512" xmlns="http://www.w3.org/2000/svg"><g id="Page-1" fill="none" fill-rule="evenodd"><g id="031---mobile-like" fill-rule="nonzero"><g id="color" transform="translate(1 1)"><path id="Shape" d="m54 14v17c0 3.3137085-2.6862915 6-6 6h-6.09c-.5779417-.0021548-1.1285599.2458058-1.51.68l-4.89 5.6c-.3796661.4305009-.9259988.6771243-1.5.6771243s-1.1203339-.2466234-1.5-.6771243l-4.89-5.6c-.386017-.4395059-.9450977-.6879861-1.53-.68h-6.09c-3.3137085 0-6-2.6862915-6-6v-17c0-3.3137085 2.6862915-6 6-6h28c3.3137085 0 6 2.6862915 6 6z" fill="#ffeb3a"/><path id="Shape" d="m37.4 37.68-4.89 5.6c.3796661.4305009.9259988.6771243 1.5.6771243s1.1203339-.2466234 1.5-.6771243l4.89-5.6c.3814401-.4341942.9320583-.6821548 1.51-.6800139l-3 .0000139c-.5779417-.0021548-1.1285599.2458058-1.51.68z" fill="#fdd834"/><path id="Shape" d="m48 8h-3c3.3137085 0 6 2.6862915 6 6v17c0 3.3137085-2.6862915 6-6 6h3c3.3137085 0 6-2.6862915 6-6v-17c0-3.3137085-2.6862915-6-6-6z" fill="#fdd834"/><path id="Shape" d="m14 14v17c0 3.3137085 2.6862915 6 6 6h6.09c.5779417-.0021548 1.1285599.2458058 1.51.68l4.89 5.6c.3739665.4490864.9256476.7121396 1.51.72v6c0 1.6568542-1.3431458 3-3 3h-28c-1.65685425 0-3-1.3431458-3-3v-47c0-1.65685425 1.34314575-3 3-3h4l2.86 3.05c.5583664.62447418 1.3524003.98704672 2.19 1h9.95c.8375997-.01295328 1.6316336-.37552582 2.19-1l2.81-3.05h4c1.6568542 0 3 1.34314575 3 3v5h-14c-3.3137085 0-6 2.6862915-6 6z" fill="#02a9f4"/><path id="Shape" d="m14 14v17c0 3.3137085 2.6862915 6 6 6h6.09c.5779417-.0021548 1.1285599.2458058 1.51.68l4.89 5.6c.3739665.4490864.9256476.7121396 1.51.72v6c0 1.6568542-1.3431458 3-3 3h-28c-1.65685425 0-3-1.3431458-3-3v-47c0-1.65685425 1.34314575-3 3-3h4l2.86 3.05c.5583664.62447418 1.3524003.98704672 2.19 1h9.95c.8375997-.01295328 1.6316336-.37552582 2.19-1l2.81-3.05h4c1.6568542 0 3 1.34314575 3 3v5h-14c-3.3137085 0-6 2.6862915-6 6z" fill="#02a9f4"/><g fill="#0377bc"><path id="Shape" d="m20 8h-3c-3.3137085 0-6 2.6862915-6 6v17c0 3.3137085 2.6862915 6 6 6h3c-3.3137085 0-6-2.6862915-6-6v-17c0-3.3137085 2.6862915-6 6-6z"/><path id="Shape" d="m31 0h-3c1.6568542 0 3 1.34314575 3 3v5h3v-5c0-1.65685425-1.3431458-3-3-3z"/><path id="Shape" d="m27.6 37.68c-.3814401-.4341942-.9320583-.6821548-1.51-.68l-3-.0000139c.5779417-.0021409 1.1285599.2458197 1.51.6800139l4.89 5.6c.3739665.4490864.9256476.7121396 1.51.72v6c0 1.6568542-1.3431458 3-3 3h3c1.6568542 0 3-1.3431458 3-3v-6c-.5779417.0021548-1.1285599-.2458058-1.51-.68z"/></g><path id="Shape" d="m34 50v5c0 1.6568542-1.3431458 3-3 3h-28c-1.65685425 0-3-1.3431458-3-3v-5c0 1.6568542 1.34314575 3 3 3h28c1.6568542 0 3-1.3431458 3-3z" fill="#607d8b"/><path id="Shape" d="m31 53v2c0 1.6568542-1.3431458 3-3 3h3c1.6568542 0 3-1.3431458 3-3v-5c0 1.6568542-1.3431458 3-3 3z" fill="#37474f"/><path id="Shape" d="m27 0-2.86 3.05c-.5552143.59345073-1.3274375.93626008-2.14.95h-9.9c-.8375997-.01295328-1.6316336-.37552582-2.19-1l-2.91-3z" fill="#607d8b"/><path id="Shape" d="m24 0-2.86 3.05c-.5552143.59345073-1.3274375.93626008-2.14.95h3c.8375997-.01295328 1.6316336-.37552582 2.19-1l2.81-3z" fill="#37474f"/><rect id="Rectangle-path" fill="#e91e63" height="9" rx="1" width="4" x="24" y="22"/><path id="Shape" d="m42 23h-1c1.1045695 0 2 .8954305 2 2s-.8954305 2-2 2h-1c1.1045695 0 2 .8954305 2 2s-.8954305 2-2 2h-2c-3.3559627-.0438239-6.701814-.378409-10-1v-7c1.3116815.0004735 2.537589-.6518443 3.27-1.74 1.5924833-2.3092986 2.7544921-4.8873998 3.43-7.61.1676323-.8134801.9076088-1.380135 1.73666-1.3298895.8290511.0502455 1.4951774.7021188 1.56334 1.5298895v.15c.024692 1.7186937-.3161714 3.4230105-1 5h5c1.1045695 0 2 .8954305 2 2s-.8954305 2-2 2z" fill="#f5f5f5"/><path id="Shape" d="m35 13.85v.15c.024692 1.7186937-.3161714 3.4230105-1 5h3c.6838286-1.5769895 1.024692-3.2813063 1-5v-.15c-.0475063-.7481652-.590567-1.3716431-1.325136-1.5213641-.7345689-.1497211-1.4783275.2114752-1.814864.8813641.0849947.2031088.1324297.4199546.14.64z" fill="#cfd8dc"/><path id="Shape" d="m43.41 22.41c.3755878-.3733503.5877672-.8804232.59-1.41 0-1.1045695-.8954305-2-2-2h-3c1.1045695 0 2 .8954305 2 2s-.8954305 2-2 2h-1c1.1045695 0 2 .8954305 2 2s-.8954305 2-2 2h-1c1.1045695 0 2 .8954305 2 2 .0029529 1.0485473-.8044014 1.9213628-1.85 2h.85 2c1.1045695 0 2-.8954305 2-2s-.8954305-2-2-2h1c1.1045695 0 2-.8954305 2-2s-.8954305-2-2-2h1c.5295768-.0022328 1.0366497-.2144122 1.41-.59z" fill="#cfd8dc"/></g><g id="Icons" fill="#000"><path id="Shape" d="m0 4v52c0 2.209139 1.790861 4 4 4h28c2.209139 0 4-1.790861 4-4v-10.23c.4838505-.1648076.9175673-.45051 1.26-.83l4.9-5.6c.1895698-.2157843.4627728-.3396363.75-.34h6.09c3.8659932 0 7-3.1340068 7-7v-17c0-3.8659932-3.1340068-7-7-7h-13v-4c0-2.209139-1.790861-4-4-4h-28c-2.209139 0-4 1.790861-4 4zm32 54h-28c-1.1045695 0-2-.8954305-2-2v-1.56c.60399287.3635516 1.29504012.5570448 2 .56h28c.7049599-.0029552 1.3960071-.1964484 2-.56v1.56c0 1.1045695-.8954305 2-2 2zm22-43v17c0 2.7614237-2.2385763 5-5 5h-6.09c-.862019-.0068525-1.6853298.3574443-2.26 1l-4.89 5.59c-.1899882.2221664-.4676758.3500769-.76.3500769s-.5700118-.1279105-.76-.3500769l-4.89-5.59c-.5746702-.6425557-1.397981-1.0068525-2.26-1h-6.09c-2.7614237 0-5-2.2385763-5-5v-17c0-2.7614237 2.2385763-5 5-5h28c2.7614237 0 5 2.2385763 5 5zm-28.31-13-1.28 1.37c-.3666957.39030942-.874608.61724897-1.41.63h-9.9c-.5528207.00080487-1.081318-.2272453-1.46-.63l-1.33-1.37zm-23.69 2c0-1.1045695.8954305-2 2-2h3.57l2.56 2.74c.7573641.8055094 1.8143585 1.26160975 2.92 1.26h9.95c1.1056415.00160975 2.1626359-.4544906 2.92-1.26l2.51-2.74h3.57c1.1045695 0 2 .8954305 2 2v4h-13c-3.8659932 0-7 3.1340068-7 7v17c0 3.8659932 3.1340068 7 7 7h6.09c.2872272.0003637.5604302.1242157.75.34l4.9 5.6c.3424327.37949.7761495.6651924 1.26.83v5.23c0 1.1045695-.8954305 2-2 2h-28c-1.1045695 0-2-.8954305-2-2z"/><path id="Shape" d="m31.44 21.71c-.4142386.6097039-1.0423926 1.0415598-1.76 1.21-.367191-.5723203-1.0000158-.9188672-1.68-.92h-2c-1.1045695 0-2 .8954305-2 2v7c0 1.1045695.8954305 2 2 2h2c.6544473-.001077 1.2669654-.3222755 1.64-.86 3.0922917.534167 6.2221443.821739 9.36.86h2c1.6568542 0 3-1.3431458 3-3-.001858-.5166341-.1398233-1.0236567-.4-1.47.8691113-.5479598 1.3973555-1.5025725 1.4-2.53-.001858-.5166341-.1398233-1.0236567-.4-1.47 1.122684-.7153752 1.6396603-2.0850357 1.2696687-3.3638192s-1.5384467-2.1607964-2.8696687-2.1661808h-3.57c.3779595-1.2997217.5698666-2.6464381.57-4v-.18c-.0222377-1.3290981-1.0543398-2.4219121-2.38-2.52-1.3686505-.1299878-2.6150641.792962-2.89 2.14-.6487656 2.6020852-1.7634195 5.0651653-3.29 7.27zm-5.44 9.29v-7h2v7zm10.68-16.14c.0659007-.3591353.3967779-.6072933.76-.57.152961.0025889.298461.0665559.4037784.1775154.1053175.1109595.1616113.2595966.1562216.4124846v.12c.0158627 1.5614112-.2869787 3.1096452-.89 4.55-.1559692.3095182-.1405453.6777279.0407631.9731178.1813083.29539.5026437.4758333.8492369.4768822h5c.5522847 0 1 .4477153 1 1s-.4477153 1-1 1h-2c-.5522847 0-1 .4477153-1 1s.4477153 1 1 1h1c.5522847 0 1 .4477153 1 1s-.4477153 1-1 1h-2c-.5522847 0-1 .4477153-1 1s.4477153 1 1 1h1c.5522847 0 1 .4477153 1 1s-.4477153 1-1 1h-2c-3.0170095-.0423869-6.0261246-.3198941-9-.83v-5.28c1.2644192-.257701 2.3773972-1.0008831 3.1-2.07 1.6698227-2.4122194 2.8832169-5.1101573 3.58-7.96z"/></g></g></g></svg>