<?xml version="1.0" encoding="utf-8"?>
<!-- Generator: Adobe Illustrator 22.0.1, SVG Export Plug-In . SVG Version: 6.00 Build 0)  -->
<svg version="1.1" id="Layer_1" xmlns="http://www.w3.org/2000/svg" xmlns:xlink="http://www.w3.org/1999/xlink" x="0px" y="0px"
	 viewBox="0 0 200 200" style="enable-background:new 0 0 200 200;" xml:space="preserve">
<style type="text/css">
	.st0{fill:#FFCE00;}
	.st1{fill:#FFE600;}
	.st2{fill:#FFFFFF;}
	.st3{fill:url(#SVGID_1_);}
	.st4{fill:url(#SVGID_2_);}
	.st5{fill:url(#SVGID_3_);}
	.st6{fill:url(#SVGID_4_);}
	.st7{fill:#030303;}
</style>
<path class="st0" d="M22.1,45c-4.8,2.8-8.7,9.5-8.7,15v80c0,5.5,3.9,12.3,8.7,15l69.3,40c4.8,2.8,12.6,2.8,17.3,0l69.3-40
	c4.8-2.8,8.7-9.5,8.7-15V60c0-5.5-3.9-12.3-8.7-15L108.7,5c-4.8-2.8-12.6-2.8-17.3,0L22.1,45z"/>
<path class="st1" d="M32.1,149.1c-4.8-2.8-8.7-9.5-8.7-15V65.8c0-5.5,3.9-12.3,8.7-15l59.3-34.2c4.8-2.8,12.6-2.8,17.3,0l59.3,34.2
	c4.8,2.8,8.7,9.5,8.7,15v68.5c0,5.5-3.9,12.3-8.7,15l-59.3,34.2c-4.8,2.8-12.6,2.8-17.3,0L32.1,149.1z"/>
<path class="st2" d="M42.1,143.6c-4.8-2.8-8.7-9.5-8.7-15v-57c0-5.5,3.9-12.3,8.7-15l49.3-28.5c4.8-2.8,12.6-2.8,17.3,0l49.3,28.5
	c4.8,2.8,8.7,9.5,8.7,15v56.9c0,5.5-3.9,12.3-8.7,15l-49.3,28.5c-4.8,2.8-12.6,2.8-17.3,0L42.1,143.6z"/>
<path d="M100,100"/>
<g>
	
		<linearGradient id="SVGID_1_" gradientUnits="userSpaceOnUse" x1="85.3855" y1="443.268" x2="107.3903" y2="396.188" gradientTransform="matrix(1 0 0 -1 1.831055e-04 512)">
		<stop  offset="0" style="stop-color:#FFFC00"/>
		<stop  offset="1" style="stop-color:#FFE600"/>
	</linearGradient>
	<path class="st3" d="M127.9,142c-18.6,2-37.3,2-55.9,0c-7.4-0.8-13.3-6.7-14.1-14.1c-2-18.6-2-37.3,0-55.9
		c0.8-7.4,6.7-13.3,14.1-14.1c18.6-2,37.3-2,55.9,0c7.4,0.8,13.3,6.7,14.1,14.1c2,18.6,2,37.3,0,55.9
		C141.2,135.4,135.4,141.2,127.9,142z"/>
	
		<linearGradient id="SVGID_2_" gradientUnits="userSpaceOnUse" x1="118.3995" y1="402.1299" x2="-8.0001" y2="469.9354" gradientTransform="matrix(1 0 0 -1 1.831055e-04 512)">
		<stop  offset="0" style="stop-color:#FFE600;stop-opacity:0"/>
		<stop  offset="1" style="stop-color:#FFCE00"/>
	</linearGradient>
	<path class="st4" d="M137.3,75.2c-0.7-6.6-5.9-11.8-12.5-12.5c-16.5-1.8-33.1-1.8-49.6,0c-6.6,0.7-11.8,5.9-12.5,12.5
		c-1.8,16.5-1.8,33.1,0,49.6c0.7,6.6,5.9,11.8,12.5,12.5c16.5,1.8,33.1,1.8,49.6,0c6.6-0.7,11.8-5.9,12.5-12.5
		C139,108.3,139,91.7,137.3,75.2z"/>
	
		<linearGradient id="SVGID_3_" gradientUnits="userSpaceOnUse" x1="100.0002" y1="381.179" x2="100.0002" y2="369.7792" gradientTransform="matrix(1 0 0 -1 1.831055e-04 512)">
		<stop  offset="0" style="stop-color:#FFE600;stop-opacity:0"/>
		<stop  offset="1" style="stop-color:#FFCE00"/>
	</linearGradient>
	<path class="st5" d="M57.8,126.1c0.1,0.6,0.1,1.2,0.2,1.8c0.8,7.4,6.7,13.3,14.1,14.1c18.6,2,37.3,2,55.9,0
		c7.4-0.8,13.3-6.7,14.1-14.1c0.1-0.6,0.1-1.2,0.2-1.8H57.8z"/>
	
		<linearGradient id="SVGID_4_" gradientUnits="userSpaceOnUse" x1="121.85" y1="373.8466" x2="104.9626" y2="404.0392" gradientTransform="matrix(1 0 0 -1 1.831055e-04 512)">
		<stop  offset="0" style="stop-color:#FFE600;stop-opacity:0"/>
		<stop  offset="1" style="stop-color:#FFCE00"/>
	</linearGradient>
	<path class="st6" d="M142,127.9c0.7-6.2,1.1-12.5,1.3-18.7L112,77.9c-4.1-4.5-9.5-4.9-11.4-4.9h0c0,0-0.1,0-0.1,0c0,0-0.9,0-1,0
		c-2.4,0-10.4,0.7-14.2,9.1c-1.3,2.9-1,7.7-0.7,11.6c0,0.5,0.1,0.9,0.1,1.4c-0.2,0.1-0.6,0.2-1.1,0.2c-0.8,0-1.6-0.2-2.6-0.7
		c-0.3-0.1-0.6-0.2-0.9-0.2c-1.2,0-2.6,0.8-2.8,1.9c-0.1,0.6,0.1,1.4,1.2,2.2c0.2,0.3,5,5.1,5.4,5.4c-0.5,1.2-4.1,8.3-11.4,9.5
		c-0.6,0.1-1,0.6-1,1.2c0,0.2,0.1,0.4,0.1,0.5c0.2,0.4,0.5,0.8,1,1.1l27.1,27.1c9.5,0,19-0.5,28.4-1.5
		C135.4,141.2,141.2,135.4,142,127.9z"/>
	<path class="st2" d="M100.4,126.4c-0.1,0-0.3,0-0.4,0h0c-0.1,0-0.2,0-0.3,0c-3.3,0-5.5-1.5-7.5-3c-1.4-1-2.8-2-4.4-2.2
		c-0.8-0.1-1.5-0.2-2.3-0.2c-1.3,0-2.4,0.2-3.2,0.4c-0.5,0.1-0.9,0.2-1.2,0.2c-0.3,0-0.7-0.1-0.8-0.6c-0.1-0.4-0.2-0.9-0.3-1.3
		c-0.2-1.1-0.4-1.7-0.9-1.8c-5.3-0.8-6.8-1.9-7.1-2.7c0-0.1-0.1-0.2-0.1-0.3c0-0.3,0.2-0.6,0.5-0.6c8.1-1.3,11.8-9.6,11.9-10
		c0,0,0,0,0,0c0.5-1,0.6-1.9,0.3-2.6c-0.6-1.3-2.4-1.9-3.6-2.3c-0.3-0.1-0.6-0.2-0.8-0.3c-2.4-0.9-2.6-1.9-2.5-2.4
		c0.2-0.8,1.3-1.4,2.2-1.4c0.3,0,0.5,0,0.7,0.1c1.1,0.5,2.1,0.8,2.9,0.8c1.2,0,1.7-0.5,1.7-0.6c0-0.5-0.1-1.1-0.1-1.7
		c-0.2-3.8-0.5-8.6,0.7-11.3c3.6-8.2,11.4-8.8,13.6-8.8c0.1,0,1,0,1,0l0.1,0c2.3,0,10,0.6,13.7,8.8c1.2,2.7,0.9,7.5,0.7,11.3l0,0.2
		c0,0.5-0.1,1.1-0.1,1.5c0.1,0.1,0.5,0.5,1.6,0.5h0c0.8,0,1.7-0.3,2.7-0.8c0.3-0.1,0.6-0.2,0.8-0.2c0.3,0,0.7,0.1,1,0.2l0,0
		c0.8,0.3,1.3,0.9,1.4,1.5c0,0.6-0.4,1.4-2.5,2.2c-0.2,0.1-0.5,0.2-0.8,0.3c-1.2,0.4-3,1-3.6,2.3c-0.3,0.7-0.2,1.6,0.3,2.6
		c0,0,0,0,0,0c0.2,0.4,3.8,8.6,11.9,10c0.3,0,0.5,0.3,0.5,0.6c0,0.1,0,0.2-0.1,0.3c-0.3,0.8-1.8,1.9-7.1,2.7
		c-0.4,0.1-0.6,0.6-0.9,1.8c-0.1,0.4-0.2,0.9-0.3,1.3c-0.1,0.4-0.4,0.6-0.8,0.6h-0.1c-0.3,0-0.7,0-1.2-0.1c-0.9-0.2-1.9-0.3-3.2-0.3
		c-0.7,0-1.5,0.1-2.3,0.2c-1.6,0.3-2.9,1.2-4.4,2.2C105.8,124.9,103.7,126.4,100.4,126.4z"/>
	<path class="st7" d="M100.6,74.2c2.2,0,9.6,0.6,13.1,8.4c1.2,2.6,0.9,7.3,0.6,11c0,0.6-0.1,1.2-0.1,1.7l0,0.2l0.2,0.2
		c0.1,0.1,0.7,0.7,2,0.8l0,0l0,0c0.9,0,1.9-0.3,3-0.8c0.2-0.1,0.4-0.1,0.6-0.1c0.3,0,0.5,0,0.8,0.1l0,0c0.6,0.2,1,0.6,1,0.9
		c0,0.2-0.1,0.9-2.1,1.7c-0.2,0.1-0.5,0.2-0.8,0.3c-1.3,0.4-3.3,1-3.9,2.6c-0.4,0.9-0.3,1.9,0.3,3.1c0.2,0.6,4,9,12.4,10.3
		c0,0,0,0.1,0,0.1c-0.1,0.3-1,1.5-6.7,2.4c-0.9,0.1-1.1,1.1-1.3,2.3c-0.1,0.4-0.2,0.8-0.3,1.3c0,0.1,0,0.1-0.2,0.1c0,0,0,0-0.1,0
		c-0.2,0-0.6-0.1-1.1-0.1c-0.8-0.2-1.9-0.3-3.3-0.3c-0.8,0-1.6,0.1-2.4,0.2c-1.7,0.3-3.1,1.3-4.6,2.3c-2,1.4-4,2.9-7.2,2.9
		c-0.1,0-0.3,0-0.4,0l0,0l0,0c-0.1,0-0.2,0-0.2,0c-3.1,0-5.2-1.5-7.2-2.9c-1.5-1-2.9-2-4.6-2.3c-0.8-0.1-1.6-0.2-2.4-0.2
		c-1.4,0-2.5,0.2-3.3,0.4c-0.4,0.1-0.8,0.2-1.1,0.2c-0.2,0-0.2,0-0.3-0.2c-0.1-0.4-0.2-0.9-0.3-1.3c-0.3-1.1-0.5-2.1-1.3-2.3
		c-5.6-0.9-6.5-2-6.7-2.4c0-0.1,0-0.1,0-0.1c8.4-1.4,12.1-9.8,12.4-10.3c0.6-1.2,0.7-2.2,0.3-3.1c-0.7-1.6-2.6-2.2-3.9-2.6
		c-0.3-0.1-0.6-0.2-0.8-0.3c-1.7-0.7-2.2-1.3-2.1-1.8c0.1-0.5,0.9-1,1.6-1c0.2,0,0.3,0,0.4,0.1c1.2,0.5,2.2,0.8,3.1,0.8
		c1.5,0,2.1-0.7,2.2-0.8l0.2-0.2l0-0.2c0-0.6-0.1-1.1-0.1-1.7c-0.2-3.8-0.5-8.5,0.6-11c3.5-7.8,10.9-8.4,13.1-8.4c0.1,0,1,0,1,0
		C100.5,74.2,100.5,74.2,100.6,74.2 M100.6,73L100.6,73c-0.1,0-0.1,0-0.1,0c0,0-0.9,0-1,0c-2.4,0-10.4,0.7-14.2,9.1
		c-1.3,2.9-1,7.7-0.7,11.6c0,0.5,0.1,0.9,0.1,1.4c-0.2,0.1-0.6,0.2-1.1,0.2c-0.8,0-1.6-0.2-2.6-0.7c-0.3-0.1-0.6-0.2-0.9-0.2
		c-1.2,0-2.6,0.8-2.8,1.9c-0.2,0.8,0.2,2,2.9,3.1c0.2,0.1,0.5,0.2,0.8,0.3c1.1,0.3,2.8,0.9,3.2,1.9c0.2,0.5,0.1,1.3-0.3,2.1
		c0,0,0,0,0,0.1c-0.1,0.3-3.7,8.3-11.5,9.6c-0.6,0.1-1,0.6-1,1.2c0,0.2,0.1,0.4,0.1,0.5c0.6,1.4,3.1,2.4,7.5,3.1
		c0.2,0.2,0.3,0.9,0.4,1.4c0.1,0.4,0.2,0.9,0.3,1.3c0.1,0.5,0.5,1,1.4,1c0.4,0,0.8-0.1,1.3-0.2c0.7-0.1,1.8-0.3,3.1-0.3
		c0.7,0,1.4,0.1,2.2,0.2c1.5,0.2,2.7,1.1,4.1,2.1c2,1.4,4.4,3.1,7.9,3.1c0.1,0,0.2,0,0.3,0c0.1,0,0.3,0,0.4,0c3.5,0,5.8-1.6,7.9-3.1
		c1.4-1,2.7-1.9,4.1-2.1c0.7-0.1,1.5-0.2,2.2-0.2c1.2,0,2.2,0.2,3.1,0.3c0.5,0.1,1,0.2,1.3,0.2l0,0h0c0.7,0,1.1-0.4,1.3-1
		c0.1-0.5,0.2-0.9,0.3-1.3c0.1-0.4,0.3-1.2,0.4-1.4c4.5-0.7,7-1.7,7.5-3.1c0.1-0.2,0.1-0.4,0.1-0.5c0-0.6-0.4-1.1-1-1.2
		c-7.8-1.3-11.3-9.3-11.5-9.6c0,0,0,0,0-0.1c-0.4-0.8-0.5-1.6-0.3-2.1c0.5-1.1,2.1-1.6,3.2-1.9c0.3-0.1,0.6-0.2,0.8-0.3
		c1.9-0.8,2.9-1.7,2.9-2.8c0-0.9-0.7-1.6-1.7-2l0,0c-0.4-0.1-0.8-0.2-1.2-0.2c-0.3,0-0.7,0-1.1,0.2c-0.9,0.4-1.8,0.7-2.5,0.7
		c-0.5,0-0.8-0.1-1-0.2c0-0.4,0-0.8,0.1-1.2l0-0.2c0.2-3.9,0.6-8.8-0.7-11.6C111,73.7,102.9,73,100.6,73z"/>
</g>
</svg>
