<?xml version="1.0" encoding="utf-8"?>
<!-- Generator: Adobe Illustrator 22.0.1, SVG Export Plug-In . SVG Version: 6.00 Build 0)  -->
<svg version="1.1" id="Layer_1" xmlns="http://www.w3.org/2000/svg" xmlns:xlink="http://www.w3.org/1999/xlink" x="0px" y="0px"
	 viewBox="0 0 200 200" style="enable-background:new 0 0 200 200;" xml:space="preserve">
<style type="text/css">
	.st0{fill:#CCDFED;}
	.st1{fill:#FF644D;}
	.st2{fill:#FFFFFF;}
</style>
<path class="st0" d="M22.1,45c-4.8,2.8-8.7,9.5-8.7,15v80c0,5.5,3.9,12.3,8.7,15l69.3,40c4.8,2.8,12.6,2.8,17.3,0l69.3-40
	c4.8-2.8,8.7-9.5,8.7-15V60c0-5.5-3.9-12.3-8.7-15L108.7,5c-4.8-2.8-12.6-2.8-17.3,0L22.1,45z"/>
<path class="st1" d="M32.1,149.2c-4.8-2.8-8.7-9.5-8.7-15V65.8c0-5.5,3.9-12.3,8.7-15l59.3-34.2c4.8-2.8,12.6-2.8,17.3,0L168,50.8
	c4.8,2.8,8.7,9.5,8.7,15v68.5c0,5.5-3.9,12.3-8.7,15l-59.3,34.2c-4.8,2.8-12.6,2.8-17.3,0L32.1,149.2z"/>
<path class="st2" d="M42.1,143.5c-4.8-2.8-8.7-9.5-8.7-15v-57c0-5.5,3.9-12.3,8.7-15L91.4,28c4.8-2.8,12.6-2.8,17.3,0L158,56.5
	c4.8,2.8,8.7,9.5,8.7,15v56.9c0,5.5-3.9,12.3-8.7,15l-49.3,28.5c-4.8,2.8-12.6,2.8-17.3,0L42.1,143.5z"/>
<path d="M100,100"/>
<g>
	<polygon class="st0" points="62,99.6 100,134.1 138,99.6 138,143 62,143 	"/>
	<polygon class="st1" points="62,87.6 100,122.1 138,87.6 	"/>
	<polygon class="st1" points="113.8,78.9 138,78.9 138,57 	"/>
	<polygon class="st1" points="62,57 62,78.9 86.2,78.9 	"/>
</g>
</svg>
