<?xml version="1.0" encoding="utf-8"?>
<!-- Generator: Adobe Illustrator 22.0.1, SVG Export Plug-In . SVG Version: 6.00 Build 0)  -->
<svg version="1.1" id="Layer_1" xmlns="http://www.w3.org/2000/svg" xmlns:xlink="http://www.w3.org/1999/xlink" x="0px" y="0px"
	 viewBox="0 0 260 180" style="enable-background:new 0 0 260 180;" xml:space="preserve">
<style type="text/css">
	.st0{fill:#E9EBFB;}
	.st1{clip-path:url(#SVGID_2_);fill:#DFE0F3;}
	.st2{fill:#C6CBE9;}
	.st3{fill:#81B7FB;}
	.st4{fill:#FFFFFF;}
	.st5{fill:none;stroke:#E7E9F9;stroke-width:0.8987;stroke-linecap:round;stroke-linejoin:round;stroke-miterlimit:10;}
	.st6{fill:#E7E9F9;}
	.st7{fill:#C4C9E7;}
	.st8{fill:#393F5C;}
	.st9{fill:none;stroke:#393F5C;stroke-width:2.4961;stroke-miterlimit:10;}
	.st10{fill:#F0BC99;}
	.st11{fill:#E7AD87;}
	.st12{fill:#816EF5;}
	.st13{fill:#2B3047;}
	.st14{fill:#21283A;}
	.st15{fill:#6138F9;}
	.st16{fill:#EBB28B;}
	.st17{fill:#9AC9FB;}
	.st18{fill:#70A8E9;}
	.st19{fill:#7AB6EE;}
	.st20{fill:#E9F1F4;}
	.st21{fill:#1F2E3B;}
	.st22{fill:#4545D0;}
	.st23{fill:none;stroke:#393F5C;stroke-width:2;stroke-miterlimit:10;}
</style>
<g>
	<g>
		<g>
			<g>
				<g>
					<path class="st0" d="M173.7,72C141,52.2,125.6-8.4,75.2,27.8C24.8,64.1,45.7,138.5,94,156.5c48.3,18,110.5,7.8,128-25.6
						C251.9,73.8,195.6,85.2,173.7,72z"/>
					<g>
						<defs>
							<path id="SVGID_1_" d="M173.7,72C141,52.2,125.6-8.4,75.2,27.8C24.8,64.1,45.7,138.5,94,156.5c48.3,18,110.5,7.8,128-25.6
								C251.9,73.8,195.6,85.2,173.7,72z"/>
						</defs>
						<clipPath id="SVGID_2_">
							<use xlink:href="#SVGID_1_"  style="overflow:visible;"/>
						</clipPath>
						<path class="st1" d="M41.2,142.1c0,0,27.9-27.9,74.4-14.7c46.5,13.3,73.9,1.9,68.1-68.3c0,0,65.4,9.1,57,55.6
							C230.5,171.1,99.2,192.6,41.2,142.1z"/>
					</g>
					<g>
						<g>
							<path class="st2" d="M102.2,27.4v27.2c0,2.3-1.9,4.2-4.3,4.2H39.9c-2.3,0-4.3-1.9-4.3-4.2V27.4c0-2.3,1.9-4.2,4.3-4.2h58.1
								C100.3,23.1,102.2,25,102.2,27.4z"/>
						</g>
						<g>
							<path class="st3" d="M102.2,27.4v2.4H35.6v-2.4c0-2.3,1.9-4.2,4.3-4.2h58.1C100.3,23.1,102.2,25,102.2,27.4z"/>
							<g>
								<circle class="st4" cx="39.4" cy="26.7" r="0.9"/>
								<path class="st4" d="M43.8,26.7c0,0.5-0.4,0.9-0.9,0.9c-0.5,0-0.9-0.4-0.9-0.9c0-0.5,0.4-0.9,0.9-0.9
									C43.4,25.8,43.8,26.2,43.8,26.7z"/>
								<path class="st4" d="M47.4,26.7c0,0.5-0.4,0.9-0.9,0.9s-0.9-0.4-0.9-0.9c0-0.5,0.4-0.9,0.9-0.9S47.4,26.2,47.4,26.7z"/>
							</g>
						</g>
						<path class="st4" d="M58,46.1H44.7c-0.5,0-0.8-0.4-0.8-0.8V34.5c0-0.5,0.4-0.8,0.8-0.8H58c0.5,0,0.8,0.4,0.8,0.8v10.7
							C58.8,45.7,58.4,46.1,58,46.1z"/>
						<g>
							<path class="st4" d="M93,51.9H43.9c-0.5,0-0.9-0.4-0.9-0.9l0,0c0-0.5,0.4-0.9,0.9-0.9H93c0.5,0,0.9,0.4,0.9,0.9l0,0
								C93.9,51.5,93.5,51.9,93,51.9z"/>
						</g>
						<g>
							<path class="st4" d="M93,44.8H63.2c-0.5,0-0.9-0.4-0.9-0.9l0,0c0-0.5,0.4-0.9,0.9-0.9H93c0.5,0,0.9,0.4,0.9,0.9l0,0
								C93.9,44.4,93.5,44.8,93,44.8z"/>
						</g>
						<g>
							<path class="st4" d="M81.6,38.1H63.2c-0.5,0-0.9-0.4-0.9-0.9l0,0c0-0.5,0.4-0.9,0.9-0.9h18.5c0.5,0,0.9,0.4,0.9,0.9l0,0
								C82.6,37.7,82.2,38.1,81.6,38.1z"/>
						</g>
					</g>
					<path class="st5" d="M8.2,79.6c0,0,1.1-1.2,1.8-1.8c1.2-1,2.6-2.9,7-1.5c0.3,0.1,0.7,0.2,1,0.4c0.4,0.2,1.6,0.2,2.8-0.8
						c2-1.5,2.7-2.7,5.4-2.8c3.1,0,3.6,3.8,6,4.8c1.5,0.6,5.6,1.3,6.4,1.5L8.2,79.6z"/>
					<path class="st6" d="M173.4,23.9c0,0,2.1-2.5,3.4-3.6c2.4-2,5.1-5.6,13.7-3c0.7,0.2,1.3,0.5,2,0.8c0.8,0.3,3.1,0.3,5.5-1.6
						c3.8-3,5.3-5.3,10.6-5.4c6.1-0.1,7.1,7.5,11.8,9.5c3,1.2,11,2.5,12.7,3L173.4,23.9z"/>
					<g>
						<path class="st4" d="M126.2,46.7l-0.4-1.3l-0.4,1.3c-0.4,1.1-1.3,2-2.5,2.5l0,0l0,0c1.2,0.5,2.1,1.4,2.5,2.5l0.4,1.3l0.4-1.3
							c0.4-1.1,1.3-2,2.5-2.5l0,0l0,0C127.4,48.6,126.5,47.7,126.2,46.7z"/>
						<path class="st4" d="M86.3,118.9l-0.4-1.3l-0.4,1.3c-0.4,1.1-1.3,2-2.5,2.5l0,0l0,0c1.2,0.5,2.1,1.4,2.5,2.5l0.4,1.3l0.4-1.3
							c0.4-1.1,1.3-2,2.5-2.5l0,0l0,0C87.5,120.9,86.6,120,86.3,118.9z"/>
						<path class="st4" d="M205.8,111.3l-0.3-0.8l-0.3,0.8c-0.2,0.7-0.8,1.3-1.6,1.6l0,0l0,0c0.8,0.4,1.4,0.9,1.6,1.6l0.3,0.8
							l0.3-0.8c0.2-0.7,0.8-1.3,1.6-1.6l0,0l0,0C206.7,112.6,206.1,112,205.8,111.3z"/>
						<path class="st4" d="M67,69.4l-0.3-0.8l-0.3,0.8c-0.2,0.7-0.8,1.3-1.6,1.6l0,0l0,0c0.8,0.4,1.4,0.9,1.6,1.6l0.3,0.8l0.3-0.8
							c0.2-0.7,0.8-1.3,1.6-1.6l0,0l0,0C67.8,70.6,67.2,70.1,67,69.4z"/>
					</g>
					<g>
						<path class="st3" d="M161.5,1h-27.6c-1.5,0-2.7,1.2-2.7,2.7v14.9c0,1.5,1.2,2.7,2.7,2.7h1.5v6.8l6.8-6.8h19.3
							c1.5,0,2.7-1.2,2.7-2.7V3.7C164.2,2.2,163,1,161.5,1z"/>
						<g>
							<path class="st4" d="M137.7,15.6h6.5c0.5,0,0.9,0.4,0.9,0.9l0,0c0,0.5-0.4,0.9-0.9,0.9h-6.5c-0.5,0-0.9-0.4-0.9-0.9l0,0
								C136.8,16,137.2,15.6,137.7,15.6z"/>
						</g>
						<g>
							<path class="st4" d="M137.7,11.1h12c0.5,0,0.9,0.4,0.9,0.9l0,0c0,0.5-0.4,0.9-0.9,0.9h-12c-0.5,0-0.9-0.4-0.9-0.9l0,0
								C136.8,11.5,137.2,11.1,137.7,11.1z"/>
						</g>
						<g>
							<path class="st4" d="M137.7,6.6h20.7c0.5,0,0.9,0.4,0.9,0.9l0,0c0,0.5-0.4,0.9-0.9,0.9h-20.7c-0.5,0-0.9-0.4-0.9-0.9l0,0
								C136.8,7,137.2,6.6,137.7,6.6z"/>
						</g>
					</g>
					<g>
						<path class="st7" d="M144.3,129.1h32c6.4,0,11.8-4.8,12.5-11.2l4.6-48h-32l-0.7,27.9L144.3,129.1z"/>
						<g>
							<path class="st8" d="M144.3,128.6c8.2-0.3,16.4-0.5,24.7-0.6l6.2-0.1c0.5,0,1.1,0,1.5,0c0.5,0,0.9-0.1,1.4-0.1
								c0.9-0.1,1.8-0.4,2.7-0.8c3.4-1.4,6-4.6,6.7-8.2c0.2-0.9,0.2-1.9,0.3-2.9l0.3-3.1l0.6-6.1c0.4-4.1,0.8-8.2,1.3-12.3
								c0.9-8.2,1.8-16.3,2.8-24.5c0.1-0.4,0.4-0.7,0.9-0.7c0.4,0.1,0.7,0.4,0.7,0.8c-0.6,8.2-1.2,16.4-1.9,24.6
								c-0.4,4.1-0.7,8.2-1.1,12.3l-0.6,6.1l-0.3,3.1c-0.1,1-0.2,2-0.4,3.2c-0.9,4.5-4,8.5-8.3,10.1c-1,0.4-2.1,0.7-3.3,0.9
								c-0.6,0.1-1.1,0.1-1.7,0.1c-0.6,0-1,0-1.6,0l-6.2-0.1c-8.2-0.1-16.4-0.3-24.7-0.6c-0.3,0-0.5-0.3-0.5-0.6
								C143.8,128.8,144.1,128.6,144.3,128.6z"/>
						</g>
						<line class="st9" x1="162.6" y1="130.1" x2="162.6" y2="164"/>
					</g>
					<g>
						
							<rect x="65.5" y="98.3" transform="matrix(-1 -1.224647e-16 1.224647e-16 -1 234.1776 198.137)" class="st8" width="103.2" height="1.6"/>
						<polygon class="st10" points="156.5,170.4 157.6,174.3 152.3,175.9 150.6,171.1 						"/>
						<polygon class="st10" points="124.3,167.5 124.3,170.7 129,170.7 129.6,167.5 						"/>
						<g>
							<g>
								<path class="st11" d="M160.6,76.4L153.5,94l-0.2,0.4c-0.4,1-1.4,1.7-2.5,1.7l-20.3-0.1c-0.8,0-1.5-0.7-1.5-1.5
									c0-0.7,0.6-1.4,1.3-1.5l20.1-2.9l-2.7,2.1l4.8-18.4c0.6-2.3,2.9-3.6,5.2-3c2.3,0.6,3.6,2.9,3,5.2
									C160.7,76,160.6,76.2,160.6,76.4z"/>
								<path class="st11" d="M132.7,92.6l-6.9-0.1c-1.7,0-3.1,1.5-3.1,3.5v0h10.1L132.7,92.6z"/>
							</g>
							<g>
								<path class="st12" d="M149.4,78.5l11.1,2.7l1.8-9.9c0.5-2.7-1.4-5.2-4.1-5.6l0,0c-2.3-0.3-4.5,1-5.3,3.1L149.4,78.5z"/>
							</g>
						</g>
						<path class="st13" d="M160.8,97.7l-34.2,17.4c-3.2,1.6-5.1,4.9-4.9,8.5l2.6,43.9h5.2l7.1-47l26.6-18.7L160.8,97.7z"/>
						<path class="st14" d="M154.8,37.7c0,0,9.5-3.2,14.5,5.8c0.3,0.5,0.6,1,1,1.5c1,1.2,3.1,3.4,5.5,4.1
							c9.2,2.8,15.1,20.3-3.3,21.9c-23,1.9-29.6-2.6-26.3-11.8c2.4-6.6,0.3-11.2,0.3-11.2L154.8,37.7z"/>
						<path class="st15" d="M162.4,61.2l-4.9,2.2c-2.9,1.3-4.8,4.2-4.8,7.4c0.1,6.5,1.5,22.5,7,28.6h16.6
							c2.6-11.4,1.1-28.8,1.1-28.8c0.2-4.3-3-8-7.2-8.5L162.4,61.2z"/>
						<g>
							<g>
								<g>
									<path class="st16" d="M162.8,66.5L162.8,66.5c-1.7,0.2-3.3-1-3.5-2.8L158,53.2l6.3-0.7l1.3,10.5
										C165.9,64.7,164.6,66.3,162.8,66.5z"/>
									<path class="st10" d="M157.5,61.1L157.5,61.1c-4.3,0.6-8.2-2.5-8.8-6.7l-1.2-9.1l15.5-2l1.2,9.1
										C164.8,56.6,161.8,60.5,157.5,61.1z"/>
								</g>
								<path class="st14" d="M164.8,48.9l-1.3,2.7c0,0-1.8,1.5-2.3-2.3c-0.4-3.3-2.8-2.7-2.8-2.7s-8.1,6.1-12.8,1.9
									c-3.7-3.3,2.3-9.4,9.2-10.8l9.1,4L164.8,48.9z"/>
								<path class="st10" d="M162.5,51.7c0.2,1.4,1.4,2.4,2.9,2.2c1.4-0.2,2.4-1.4,2.2-2.9c-0.2-1.4-1.4-2.4-2.9-2.2
									C163.4,49.1,162.4,50.3,162.5,51.7z"/>
								<path class="st4" d="M164.6,52.6c0,0.3,0.3,0.4,0.5,0.4c0.3,0,0.4-0.3,0.4-0.5c0-0.3-0.3-0.4-0.5-0.4S164.6,52.4,164.6,52.6
									z"/>
							</g>
							<path class="st4" d="M151.5,56.6l4.4-0.9c0,0,0.2,1.9-2.2,2.2C151.8,58.2,151.5,56.6,151.5,56.6z"/>
						</g>
						<path class="st8" d="M176.3,99.4h-16.6l-26.6,16.1c-3.1,1.9-4.4,5.8-2.9,9.2l20.4,46.4l5.9-0.7l-11-44.8
							c9.2-0.4,26.3-1.8,30.8-6.8C183.9,110.4,176.3,99.4,176.3,99.4z"/>
						<g>
							<path class="st3" d="M119.6,70.3l9.5,25.5H98.3l-8.8-24c-0.3-0.7,0.3-1.5,1-1.5H119.6z"/>
							<path class="st17" d="M119.6,70.3h1.5c0.8,0,1.5,0.5,1.8,1.2l8.9,24.3h-2.7L119.6,70.3z"/>
							<path class="st18" d="M100.7,98.3h28.4v-2.5H98.3v0.1C98.3,97.2,99.4,98.3,100.7,98.3z"/>
							<path class="st19" d="M129.1,98.3h19c0.7,0,1.2-0.5,1.2-1.2l0,0c0-0.7-0.5-1.2-1.2-1.2h-19V98.3z"/>
							<path class="st20" d="M111.9,83c0.6,1.8-0.1,3.6-1.6,4.1c-1.5,0.5-3.1-0.6-3.7-2.3c-0.6-1.8,0.1-3.6,1.6-4.1
								C109.7,80.2,111.3,81.2,111.9,83z"/>
						</g>
						<g>
							<g>
								<path class="st10" d="M173.6,75.9l-7.1,17.9l-0.2,0.4c-0.4,1.1-1.5,1.7-2.5,1.7l-20.3-0.1c-0.8,0-1.5-0.7-1.5-1.5
									c0-0.8,0.6-1.4,1.3-1.5l20.1-3l-2.7,2.1l4.8-18.7c0.6-2.3,2.9-3.7,5.2-3.1c2.3,0.6,3.7,2.9,3.1,5.2
									C173.7,75.5,173.7,75.7,173.6,75.9z"/>
								<path class="st10" d="M145.7,92.4l-6.9-0.1c-1.7,0-3.1,1.6-3.1,3.5l0,0h10.1L145.7,92.4z"/>
							</g>
							<g>
								<path class="st12" d="M162.3,78.1l11.1,2.8l1.8-10.1c0.5-2.7-1.4-5.3-4.1-5.7l0,0c-2.3-0.3-4.5,1-5.3,3.2L162.3,78.1z"/>
							</g>
						</g>
						<path class="st21" d="M148.8,172.2l-2.6,2.6l-5.8,1.4c-0.6,0.1-1.1,0.6-1.3,1.2l-0.3,0.8c-0.1,0.4,0.2,0.9,0.6,0.8l18.7-0.5
							c0.6,0,1.1-0.5,1-1.1l-1.5-5.3l-2.8,0.7c-0.9,0.3-2,0.2-2.8-0.3l-1-0.6C150.3,171.5,149.4,171.6,148.8,172.2z"/>
						<path class="st21" d="M121.9,168.5l-2.6,2.6l-5.8,1.4c-0.6,0.1-1.1,0.6-1.3,1.2l-0.3,0.8c-0.1,0.4,0.2,0.9,0.6,0.8l17-0.4
							c0.6,0,1.1-0.5,1-1.1l-0.4-5.4l-2.1,0.7c-0.9,0.3-2,0.2-2.8-0.3l-1-0.6C123.4,167.8,122.5,167.9,121.9,168.5z"/>
					</g>
					<g>
						<path class="st22" d="M201.4,58.7h47.3c1.7,0,3.1-1.4,3.1-3.1V42.4c0-1.7-1.4-3.1-3.1-3.1h-47.3c-1.7,0-3.1,1.4-3.1,3.1v13.2
							C198.4,57.3,199.7,58.7,201.4,58.7z"/>
						<g>
							<path class="st4" d="M235.3,54.6h9.7c0.5,0,1-0.4,1-1v-9.2c0-0.5-0.4-1-1-1h-9.7c-0.5,0-1,0.4-1,1v9.2
								C234.3,54.1,234.7,54.6,235.3,54.6z"/>
							<g>
								<path class="st4" d="M205,45.8h25.4c0.4,0,0.8-0.4,0.8-0.8l0,0c0-0.4-0.4-0.8-0.8-0.8H205c-0.4,0-0.8,0.4-0.8,0.8l0,0
									C204.2,45.4,204.5,45.8,205,45.8z"/>
								<g>
									<path class="st4" d="M221.5,49.8h8.9c0.4,0,0.8-0.4,0.8-0.8l0,0c0-0.4-0.4-0.8-0.8-0.8h-8.9c-0.4,0-0.8,0.4-0.8,0.8v0
										C220.7,49.5,221.1,49.8,221.5,49.8z"/>
									<path class="st4" d="M205,49.8h10.6c0.4,0,0.8-0.4,0.8-0.8l0,0c0-0.4-0.4-0.8-0.8-0.8H205c-0.4,0-0.8,0.4-0.8,0.8v0
										C204.2,49.5,204.5,49.8,205,49.8z"/>
								</g>
								<path class="st4" d="M211.3,53.8h19.1c0.4,0,0.8-0.4,0.8-0.8l0,0c0-0.4-0.4-0.8-0.8-0.8h-19.1c-0.4,0-0.8,0.4-0.8,0.8l0,0
									C210.5,53.5,210.9,53.8,211.3,53.8z"/>
							</g>
						</g>
					</g>
					<g>
						<path class="st3" d="M82.8,90.5c0,0,7.8,0,6.2-8C89,82.5,80.8,83.3,82.8,90.5z"/>
						<path class="st3" d="M81.8,90.1c0,0-7.9,0-6.3-8.1C75.5,82,83.8,82.8,81.8,90.1z"/>
						<path class="st18" d="M82.2,90.1c0,0-5.8-5.8,1-11C83.2,79.2,88.7,85.9,82.2,90.1z"/>
						<polygon class="st15" points="88.5,89.4 75.8,89.4 77.8,98.3 86.3,98.3 						"/>
					</g>
				</g>
				<line class="st23" x1="113.7" y1="99.9" x2="113.7" y2="162"/>
			</g>
		</g>
	</g>
</g>
</svg>
