<?xml version="1.0" encoding="utf-8"?>
<!-- Generator: Adobe Illustrator 22.0.1, SVG Export Plug-In . SVG Version: 6.00 Build 0)  -->
<svg version="1.1" id="Layer_1" xmlns="http://www.w3.org/2000/svg" xmlns:xlink="http://www.w3.org/1999/xlink" x="0px" y="0px"
	 viewBox="0 0 210 210" style="enable-background:new 0 0 210 210;" xml:space="preserve">
<style type="text/css">
	.st0{fill:#E0E0E2;}
	.st1{fill:url(#SVGID_1_);}
	.st2{fill:url(#SVGID_2_);}
	.st3{opacity:0.35;fill:#AAAAE8;}
	.st4{opacity:9.000000e-02;fill:#AAAAE8;}
	.st5{opacity:0.2;fill:#EEEDF3;}
	.st6{fill:#FF3131;}
	.st7{fill:#FF7373;}
	.st8{fill:#010080;}
	.st9{fill:#F8B7B0;}
	.st10{fill:#E49F98;}
	.st11{fill:#77D2FF;}
	.st12{fill:url(#SVGID_3_);}
	.st13{fill:#4003A9;}
	.st14{fill:url(#SVGID_4_);}
	.st15{fill:#EEFAFF;}
	.st16{fill:#EEEDF3;}
	.st17{fill:#C8C7D9;}
	.st18{opacity:0.1;fill:#3F3F3F;}
	.st19{fill:url(#SVGID_5_);}
	.st20{fill:#FFFFFF;}
	.st21{fill:#E2E2E2;}
	.st22{fill:#F8AA00;}
	.st23{fill:#FFBB33;}
	.st24{fill:#ED9E00;}
	.st25{fill:url(#SVGID_6_);}
	.st26{fill:#FFB6EA;}
	.st27{fill:#FF3158;}
	.st28{fill:#FF7D43;}
	.st29{fill:url(#SVGID_7_);}
	.st30{fill:url(#SVGID_8_);}
</style>
<g>
	<ellipse class="st0" cx="85.7" cy="206" rx="25.6" ry="3.2"/>
	<g>
		<g>
			<g>
				<g>
					<linearGradient id="SVGID_1_" gradientUnits="userSpaceOnUse" x1="101.6171" y1="36.6465" x2="123.6946" y2="205.5394">
						<stop  offset="0" style="stop-color:#00FFFF"/>
						<stop  offset="0.3693" style="stop-color:#0071BC"/>
						<stop  offset="0.7613" style="stop-color:#9E005D"/>
						<stop  offset="1" style="stop-color:#ED1E79"/>
					</linearGradient>
					<path class="st1" d="M163.3,54.4l-61.8-23c-1.9-0.7-3.9,0.3-4.6,2.1L55.1,146.1c-0.7,1.9,0.3,3.9,2.1,4.6l61.8,23
						c1.9,0.7,3.9-0.3,4.6-2.1l41.8-112.5C166.1,57.2,165.1,55.1,163.3,54.4z"/>
				</g>
			</g>
		</g>
	</g>
	<linearGradient id="SVGID_2_" gradientUnits="userSpaceOnUse" x1="217.8291" y1="176.0663" x2="0.7348" y2="-23.3664">
		<stop  offset="0" style="stop-color:#00FFFF"/>
		<stop  offset="0.3693" style="stop-color:#0071BC"/>
		<stop  offset="0.7613" style="stop-color:#9E005D"/>
		<stop  offset="1" style="stop-color:#ED1E79"/>
	</linearGradient>
	<path class="st2" d="M94.8,22c-4.3,1.8-20.9,8.7-30.1,26.5c-2,3.8-11.2,21.6-4.4,37.4c9,20.9,36.5,15.8,49.1,35.4
		c10.8,16.9-11.6,33.5-2,53.6c5,10.5,16.7,19.3,27.4,20.1c33.6,2.5,93.9-69.8,69.4-126.6C186.4,27.2,129.4,7.6,94.8,22z"/>
	<path class="st3" d="M128.4,188.8c-1,0-1.9,0-2.8-0.1c-17.4-0.9-31.1-6.8-38.4-16.7c-7.9-10.6-6.2-22-4.3-33.9
		c1.6-10.7,3.3-21.7-2.3-32.5c-4.9-9.6-14.4-11.5-24.3-13.4c-10.2-2-20.7-4-27.8-14.4c-7.4-10.9-9.1-27.1-4-37.7
		c7.6-15.6,33.6-28,64.9-30.9c40.6-3.7,76,9.3,94.9,34.9c30.1,40.8,16.1,105.9-16.5,130.7l0,0l-0.3-0.4l0.3,0.4
		C152.8,186.1,138.5,188.8,128.4,188.8z M103,9.5c-4.4,0-8.9,0.2-13.5,0.6c-30.9,2.9-56.6,15-64.1,30.3c-5,10.3-3.3,26.1,3.9,36.7
		c6.8,10,17.1,12,27.1,14c10.2,2,19.9,3.9,25,13.9c5.7,11.1,4,22.3,2.3,33.1c-1.8,11.8-3.5,22.9,4.2,33.2
		c7.2,9.7,20.5,15.5,37.7,16.3c10,0.5,25.3-1.5,41.6-13.8l0.3,0.4l-0.3-0.4c32.2-24.5,46.1-88.9,16.3-129.3
		C167,22.2,137.5,9.5,103,9.5z"/>
	<path class="st4" d="M126.2,112c-1.6,0-3.1,0-4.7-0.1c-24-1.3-43.6-12-52.4-28.6C55,56.9,68.8,20.1,90,8.4
		c10.7-5.9,20-5.7,25.9-4.6c10.1,2,17.6,6.7,21,13.1c3.7,6.9,1.7,13.3-0.4,20.2c-1.9,6.1-3.8,12.4-1.5,19.2c2.1,6.1,7.4,8,13.1,10
		c5.8,2,11.8,4.2,15,10.8c3.4,7,3,16.6-1,22.4C156.8,107.2,142.7,112,126.2,112z M109.2,3.7c-5.3,0-11.8,1.2-19,5.1l0,0
		c-21,11.5-34.7,48-20.7,74.2c8.7,16.4,28.2,27,52,28.3c18.3,1,34.5-3.9,40.1-12.2c3.8-5.6,4.2-15,0.9-21.9
		c-3.1-6.4-9-8.5-14.7-10.5c-5.8-2-11.3-4-13.4-10.3c-2.4-7-0.4-13.4,1.5-19.5c2.1-6.7,4-13.1,0.4-19.8
		c-3.4-6.3-10.7-10.9-20.6-12.8C113.9,4,111.7,3.7,109.2,3.7z M90.1,8.7L90.1,8.7L90.1,8.7z"/>
	<g>
		<polygon class="st5" points="148.3,48.9 141.5,53.4 81.7,93.6 72.2,99.9 85.2,64.8 94.7,58.5 116.2,44.1 123,39.5 		"/>
		<polygon class="st5" points="161.9,53.9 155.1,58.5 74.6,112.5 74.6,112.5 65.2,118.9 69.8,106.5 69.8,106.5 79.2,100.1 
			79.2,100.1 146.2,55.2 153,50.6 		"/>
	</g>
	<g>
		
			<rect x="128.4" y="117.6" transform="matrix(0.9875 -0.1573 0.1573 0.9875 -18.8513 25.8683)" class="st6" width="51.1" height="28.9"/>
		<polygon class="st7" points="154,132 177,113.8 126.5,121.8 		"/>
	</g>
	<g>
		<path class="st8" d="M109.2,72c2-1.7,3.7-10-0.7-7.9c-4.4,2.1-1,8-1,8L109.2,72z"/>
		<path class="st9" d="M110.4,90.1c4,1,6.8-0.9,7.7-1.8c0.9-0.9-1.5-2.3-2.3-3.4c-0.3-0.5-0.4-1.2-0.3-2.1c0.1-1.2,0.6-2.8,1.1-4.5
			l-7.9-2.4c0,0-0.2,4.1-0.4,5.6c0,0.3-0.1,0.5-0.2,0.7c-0.4,0.9-1.4,1.2-3.1,2.2C102.9,85.7,106.5,89,110.4,90.1z"/>
		<path class="st10" d="M108.3,81.4c0,0.1,0,0.2,0,0.3c0.8,1,1.7,1.7,2.6,1.8c1.3,0.2,3-0.3,4.8-1.5c0.2-1.1,0.6-2.4,1-3.8l-7.9-2.4
			C108.7,75.8,108.5,79.9,108.3,81.4z"/>
		<path class="st9" d="M119.5,73.4c-0.9,3.9-1.4,5.7-3.3,7.1c-1.9,1.4-3.8,1.9-5.2,1.8c-1.8-0.2-4-3.3-4.3-5.1
			c-0.3-1.8-0.3-6.3,0.8-10.5c0.6-2.1,3.6-4.5,6.4-4.1C116.6,63,121.7,63.9,119.5,73.4z"/>
		<path class="st9" d="M105.9,72.4c0.1,1.5,0.9,2.6,1.6,2.5c0.8-0.1,1.3-1.3,1.1-2.8c-0.1-1.5-0.9-2.6-1.6-2.5
			C106.3,69.7,105.8,70.9,105.9,72.4z"/>
		<path class="st11" d="M111.7,87.7"/>
		<linearGradient id="SVGID_3_" gradientUnits="userSpaceOnUse" x1="118.228" y1="130.301" x2="100.0175" y2="75.504">
			<stop  offset="0" style="stop-color:#3301A0"/>
			<stop  offset="1" style="stop-color:#6A01A0"/>
		</linearGradient>
		<path class="st12" d="M143,110.4l-18.2,4.8l-4.9-13.8c0,0-3.8,23.1-4.5,25.7c-0.7,2.6-1.4,2.7-2.5,2.5l-18.4-3.2
			c-1.3-0.2-1.9-1.7-1.3-4.1c0.5-1.9,4.5-17.5,5.2-24.7c0,0-2.3,5.5-5.9,10.9l-17.3-6.6l1.9-5.3l12.1,3.3c0,0,4.1-8.4,8.6-13.4
			c1.4-1.5,5.2-3.4,7.6-3.8c0.7-0.1,1.3-0.2,1.8-0.2c0.1,2.2,2,3.7,3.7,4c1.6,0.3,4.9-0.2,5.3-1.9c0.6,0.2,1.2,0.6,1.9,1
			c2.3,1.5,3.8,2.1,4.8,4.1c1.6,3.3,6.7,17.8,6.7,17.8l13.7-3.1L143,110.4z"/>
		<g>
			<path class="st13" d="M102,198.8c0.4,0.8,2.2,2.8,4.9,4.2c2.7,1.4,8.3,2.6,5,3.5c-3.4,0.8-5.6,0.7-10.7-1
				c-2.1-0.6-1.9-0.7-4.2-0.6c-2.3,0.1-4,0.7-2.9-3.7C95.2,196.7,100.8,196.1,102,198.8z"/>
			<path class="st13" d="M62.6,180.2c-0.2,0.9-2.5,2.9-4.8,4.8c-2.3,1.9-5.1,3-3.2,4c3.2,1.7,4.8,0.2,9.4-2.5c2-1.1,1.9-0.7,4-1.5
				c1.5-0.6,2.7-1.3,2-4.2C69,176.3,63.2,177.4,62.6,180.2z"/>
			<linearGradient id="SVGID_4_" gradientUnits="userSpaceOnUse" x1="87.2402" y1="203.1013" x2="89.7233" y2="127.116">
				<stop  offset="0" style="stop-color:#F7631E"/>
				<stop  offset="1" style="stop-color:#FEBC66"/>
			</linearGradient>
			<path class="st14" d="M115.2,128.7c0,0-2.6,17.7-4.3,28.4c-0.2,1.2-0.4,2.3-0.5,3.3c-0.2,1.4-0.4,2.5-0.6,3.1
				c-0.3,1.2-0.7,3.4-1.3,6.2c-0.2,1-0.4,2.1-0.7,3.2c-1.9,9.3-4.4,21.7-4.5,23.3c-0.1,1.6-0.1,2.9,0,3.6c0,0.2-0.2,0.4-0.4,0.3
				l-2.5-1.2c-0.1,0-0.2,0-0.2,0c-0.8,0.3-5.5,2.1-6.2,2.9c-0.8,0.9,0.3-2.2,0.6-5.5c0.2-2.5,3.1-17.2,5-26.5
				c0.2-1.2,0.5-2.3,0.7-3.2c0.4-1.9,0.7-3.3,0.8-4c0.2-1,0.3-3,0.5-5.6c0-1.1,0.1-2.2,0.1-3.4c0.2-6.2,0.2-13.5,0.2-14.9
				c0-0.1-0.1-0.3-0.2-0.3l-4.1-1.1c-0.1,0-0.1,0-0.2,0c-1.1,0.5-10.5,5.1-15,9c-1.1,0.9-1.9,1.8-2.2,2.6c0,0.1-0.1,0.2-0.1,0.3
				c-0.9,3.6-1.8,6.6-2.5,8.7c-0.3,0.8-0.5,1.5-0.8,2c-0.1,0.3-0.3,0.6-0.4,1c-1.7,4-5.4,14-6,15.9c-0.4,1.2,0,2.1,0,2.9
				c0,1.4-2.3,2.1-3.5,1.5c-0.9-0.4-2.7-1.6-3.7-1.4c-0.2,0-0.4-0.1-0.4-0.4c0.7-2.8,3.2-13.1,5.4-21.6c0.3-1.1,0.6-2.1,0.8-3.2
				c1.2-4.3,2.2-7.7,2.7-9c0.3-0.7,1-1.6,1.9-2.8c5.4-6.4,19-18.5,19-18.5s0.5-1.5,1.3-1.4c1.8,0.3,1.9,0.6,10.9,2.4
				C114.3,127.7,115.5,126.7,115.2,128.7z"/>
		</g>
		<path class="st8" d="M118.8,66.7c-5.4-0.6-9.1-1.4-11-3.9c-1.8-2.5-0.1-2.8,1.2-1.9c0,0,0.9-2.3,3-0.8c0,0,2.7-1.8,4.7,1
			c0,0,3.7-1.1,4,1.8C120.8,62.9,123.6,67.3,118.8,66.7z"/>
		<path class="st8" d="M121.3,65.6c1.5,2.1,1.1,10.6-2.6,7.5c-3.7-3.1,0.5-7.4,0.5-7.4L121.3,65.6z"/>
		<path class="st9" d="M118.3,73.1c-0.7,1.3-0.8,2.6-0.1,3c0.7,0.4,1.8-0.4,2.5-1.6c0.7-1.3,0.8-2.6,0.1-3
			C120.2,71.1,119.1,71.8,118.3,73.1z"/>
		<path class="st8" d="M115.1,128.6l-22.5-4.1c-0.2,0-0.2-0.2-0.2-0.3l0.8-2.2c0-0.1,0.2-0.2,0.3-0.2l22.1,3.9
			c0.1,0,0.2,0.2,0.2,0.3l-0.4,2.4C115.4,128.5,115.3,128.6,115.1,128.6z"/>
		<path class="st15" d="M118,85.7c-1.7,2.1-4.3,3.2-6.9,2.7c-2.8-0.5-5-2.7-5.7-5.5c0.7-0.1,1.3-0.2,1.8-0.2c0.1,2.2,2,3.7,3.7,4
			c1.6,0.3,4.9-0.2,5.3-1.9C116.7,84.9,117.4,85.3,118,85.7z"/>
		<path class="st8" d="M122.6,65.6c0.3-0.6,0.1-1.3-0.5-1.6l-1.1,2.1C121.6,66.4,122.3,66.1,122.6,65.6z"/>
		<path class="st8" d="M109.9,65.8c2-0.6,3-2.7,2.4-4.7l-7.1,2.3C105.8,65.3,107.9,66.4,109.9,65.8z"/>
		<path class="st8" d="M112.9,66.5c1-0.9,1.1-2.5,0.2-3.5l-3.7,3.3C110.3,67.3,111.9,67.4,112.9,66.5z"/>
		<path class="st8" d="M122.4,67.1c0.6-0.1,1.1-0.7,0.9-1.4l-2.3,0.5C121.2,66.8,121.8,67.2,122.4,67.1z"/>
	</g>
	<path class="st16" d="M163.3,54.4l-1.4-0.5l-8.9-3.3l-4.7-1.7L123,39.5l-21.6-8c-1.9-0.7-3.9,0.3-4.6,2.1L85.2,64.8l-13,35.1
		l-2.4,6.5v0l-4.6,12.4L55.1,146c-0.1,0.3-0.2,0.7-0.2,1c-0.1,1.5,0.8,3,2.3,3.6l11.5,4.3l8.7,3.2l22.8,8.5l8.3,3.1l10.5,3.9
		c1.9,0.7,3.9-0.3,4.6-2.1l41-110.4l0.8-2C166.1,57.2,165.1,55.1,163.3,54.4z M157.4,61.4l-0.9,2.3l-35.3,95.1
		c-0.4,1-1.5,1.5-2.5,1.1l-7.8-2.9l-9.4-3.5l-19.4-7.2l-8.9-3.3l-7.1-2.6c-0.8-0.3-1.2-1-1.3-1.7c0-0.2,0-0.5,0.1-0.8l9.5-25.6v0
		l4.6-12.4v0l2.4-6.5l13-35.1l6.6-17.8c0.4-1,1.5-1.5,2.5-1.1l12.3,4.6l25.3,9.4l4.7,1.7l8.9,3.3l1.2,0.4
		C157.3,59.3,157.8,60.4,157.4,61.4z"/>
	<g>
		<path class="st0" d="M99.5,169.9l8.3,3.1c0.2-1.1,0.5-2.2,0.7-3.2l-8.3-3.1C100,167.6,99.8,168.7,99.5,169.9z"/>
		<path class="st0" d="M67.8,158.1l8.3,3.1c0.2-0.4,0.3-0.8,0.4-1c0.2-0.5,0.5-1.2,0.8-2l-8.7-3.2C68.4,156,68.1,157,67.8,158.1z"/>
	</g>
	<g>
		<g>
			<path class="st17" d="M86.4,157.5L86.4,157.5c-1.8-0.7-2.6-2.6-2-4.4l0,0c0.7-1.8,2.6-2.6,4.4-2l0,0c1.8,0.7,2.6,2.6,2,4.4l0,0
				C90.1,157.3,88.1,158.2,86.4,157.5z"/>
		</g>
	</g>
	<path class="st9" d="M72.5,99.2c0.9,0.2,2.3-0.1,2.9-0.4c0.7-0.3,1.3-2.4,1.5-3.8c0.2-1.5-1.7-1.3-1.7-1.3s0.7-0.3,1.9-0.5
		c1.2-0.2,1.7-1.5-0.1-1.5c-1.7,0-3.4,0.8-5,4.1c0,0-1.6,3.1,0,4.4L72.5,99.2z"/>
	<path class="st9" d="M151.1,101.9c0-1.2-2-3-2.5-2.3c-0.6,0.7-2.1,3.4-1.8,4.7c0.3,1.3,0.9,2.3,0.9,2.3l-0.4,1
		C147.3,107.7,151.1,106.9,151.1,101.9z"/>
	<g>
		<path class="st18" d="M120.1,16.4L45,22.6c-1.8,0.1-3.2,1.7-3,3.6l1.8,22c0.1,1.8,1.7,3.2,3.6,3l7.4-0.6l3.6-0.3
			c0.7,0.8,2.5,2.7,3.3,3.4c0.7,0.6,1.8,0.5,2.4-0.2c0.6-0.8,2.1-3.1,2.7-3.9L84.9,48l37.6-3.1c1.8-0.1,3.2-1.7,3-3.6l-1.8-22
			C123.5,17.6,121.9,16.2,120.1,16.4z"/>
		<path class="st18" d="M172.9,15.1l-23.7-2.8c-1-0.1-1.9,0.6-2.1,1.6l-2.8,23.7c-0.1,1,0.6,1.9,1.6,2.1l23.7,2.8
			c1,0.1,1.9-0.6,2.1-1.6l2.8-23.7C174.6,16.2,173.9,15.2,172.9,15.1z"/>
		<path class="st18" d="M69.5,64.8c-0.7-2.3-3.1-3.5-5.4-2.8l-27.6,8.8c-2.3,0.7-3.5,3.1-2.8,5.4l5.7,18c0.7,2.3,3.1,3.5,5.4,2.8
			l2.7-0.9c0,0,5,3.5,6.8,4.5c1.3,0.7,3,0.2,3.6-1.1c0.8-1.9,2.9-7.6,2.9-7.6l11.6-3.7c2.3-0.7,3.5-3.1,2.8-5.4L69.5,64.8z"/>
		<path class="st18" d="M162.2,72.9c-0.3-1.1-1.8-1.4-2.4-0.4l-2.5,4.1l-1.4-5.9c-0.3-1.2-1.5-1.9-2.7-1.6l-16.2,3.9
			c-1.2,0.3-1.9,1.5-1.6,2.7l3.9,16.2c0.3,1.2,1.5,1.9,2.7,1.6l16.2-3.9c1.2-0.3,1.9-1.5,1.6-2.7l-1.4-5.9l4.1,2.5
			c1,0.6,2.2-0.3,2-1.4L162.2,72.9z"/>
		<path class="st18" d="M16.3,45.8c-0.8-1.8-3.4-1.6-4,0.2L7.1,60.7c-0.7,1.8,1.3,3.6,3,2.7l10-4.8c1.1-0.5,1.6-1.8,1-2.9L16.3,45.8
			z"/>
		<path class="st18" d="M21.6,5.5c-3.4,1.1-5.3,4.7-4.2,8.1c1.1,3.4,4.7,5.3,8.1,4.2c3.4-1.1,5.3-4.7,4.2-8.1
			C28.6,6.3,25,4.4,21.6,5.5z"/>
		<path class="st18" d="M198.4,168.4c-1.9-1.4-4.6-1-6,0.9s-1,4.6,0.9,6c1.9,1.4,4.6,1,6-0.9C200.7,172.5,200.3,169.8,198.4,168.4z"
			/>
		
			<ellipse transform="matrix(0.6618 -0.7497 0.7497 0.6618 25.3796 159.2142)" class="st18" cx="189.1" cy="51.5" rx="8.1" ry="8.1"/>
		<path class="st18" d="M56.8,110.5c-5.8,1.8-9.1,8-7.3,13.9c1.8,5.8,8,9.1,13.9,7.3c5.8-1.8,9.1-8,7.3-13.9
			C68.8,112,62.6,108.7,56.8,110.5z"/>
	</g>
	<g>
		<g>
			<linearGradient id="SVGID_5_" gradientUnits="userSpaceOnUse" x1="105.8817" y1="70.8795" x2="49.5121" y2="-27.9538">
				<stop  offset="0" style="stop-color:#00FFFF"/>
				<stop  offset="1" style="stop-color:#9E005D"/>
			</linearGradient>
			<path class="st19" d="M121.4,11l-80.6,6.7c-1.9,0.2-3.4,1.9-3.2,3.8l1.9,23.6c0.2,1.9,1.9,3.4,3.8,3.2l7.9-0.7l3.9-0.3
				c0.8,0.8,2.7,2.9,3.5,3.7c0.7,0.7,2,0.6,2.6-0.2c0.7-0.9,2.2-3.3,2.8-4.2L83.6,45l40.3-3.3c1.9-0.2,3.4-1.9,3.2-3.8l-1.9-23.6
				C125.1,12.3,123.4,10.9,121.4,11z"/>
			<path class="st20" d="M57.2,32.5c0.7-0.8,1.1-1.8,1.1-3l-0.2-1.9c-0.2-2.1-2-3.8-4.1-3.7c-2.2,0.1-3.9,2-3.7,4.2l0.2,2.1
				c0.1,1.1,0.7,2.1,1.5,2.8c-2.5,1.1-4.4,3.4-4.9,6.2c-0.2,1.1,0.7,2,1.8,1.9l12.6-1c1.1-0.1,1.8-1.2,1.5-2.2
				C62.1,35.1,59.9,33.1,57.2,32.5z"/>
			<g>
				<path class="st20" d="M89.7,20.9l-16.1,1.3c-1.3,0.1-2.3,1.3-2.2,2.6l0.7,7.9c0.1,1.3,1.3,2.3,2.6,2.2l1.6-0.1
					c0,0,2.3,2.5,3.1,3.3c0.6,0.6,1.6,0.5,2.1-0.2c0.7-0.9,2.5-3.8,2.5-3.8l6.7-0.6c1.3-0.1,2.3-1.3,2.2-2.6L92.3,23
					C92.2,21.7,91,20.7,89.7,20.9z"/>
				<path class="st21" d="M75.4,26.2c-0.5,0-0.9-0.4-1-0.9c0-0.5,0.4-1,0.9-1.1l13-1.1c0.5,0,1,0.4,1.1,0.9c0,0.5-0.4,1-0.9,1.1
					L75.4,26.2C75.5,26.2,75.5,26.2,75.4,26.2z"/>
				<path class="st21" d="M75.7,29.6c-0.5,0-0.9-0.4-1-0.9c0-0.5,0.4-1,0.9-1.1l13-1.1c0.5-0.1,1,0.4,1.1,0.9c0,0.5-0.4,1-0.9,1.1
					L75.7,29.6C75.8,29.6,75.8,29.6,75.7,29.6z"/>
				<path class="st21" d="M76,33c-0.5,0-0.9-0.4-1-0.9c0-0.5,0.4-1,0.9-1.1l5.9-0.5c0.5,0,1,0.4,1.1,0.9c0,0.5-0.4,1-0.9,1.1L76,33
					C76.1,33,76,33,76,33z"/>
			</g>
			<path class="st20" d="M119.9,31.8c-0.1-1.6-0.8-3.1-1.8-4.2l-0.1-1.7c-0.2-2.9-2.5-5.1-5.3-5.3l0-0.5c0-0.6-0.5-1-1.1-0.9
				c-0.6,0-1,0.5-0.9,1.1l0,0.5c-2.7,0.7-4.6,3.3-4.3,6.1l0.1,1.7c0,0,0,0,0,0c-0.8,1.3-1.2,2.8-1.1,4.4l0.1,0.7
				c0,0.4,0.4,0.7,0.7,0.6l2.9-0.2c0,0.2,0.1,0.4,0.3,0.6c1,0.6,2.3,1,3.5,0.8c1.3-0.1,2.5-0.6,3.4-1.4c0.2-0.2,0.2-0.4,0.2-0.6
				l2.9-0.2c0.4,0,0.7-0.4,0.6-0.7L119.9,31.8z"/>
		</g>
		<path class="st6" d="M107.5,33.4c0.1,1.7-1.1,3.2-2.8,3.3c-1.7,0.1-3.2-1.1-3.3-2.8c-0.1-1.7,1.1-3.2,2.8-3.3
			C105.9,30.5,107.4,31.7,107.5,33.4z"/>
	</g>
	<g>
		<path class="st22" d="M174.5,39l-25.4-3c-1.1-0.1-1.9-1.1-1.7-2.2l3-25.4c0.1-1.1,1.1-1.9,2.2-1.7l25.4,3c1.1,0.1,1.9,1.1,1.7,2.2
			l-3,25.4C176.6,38.3,175.6,39.1,174.5,39z"/>
		<path class="st23" d="M150.3,32.1l2.6-21.5c0.1-0.7,0.7-1.1,1.3-1.1l21.5,2.6c0.7,0.1,1.1,0.7,1.1,1.3L174.2,35
			c-0.1,0.7-0.7,1.1-1.3,1.1l-21.5-2.6C150.7,33.4,150.2,32.8,150.3,32.1z"/>
		<path class="st24" d="M164.1,24.8l-2.6,2.1c-0.5,0.4-1.2,0.3-1.6-0.2l0,0c-0.4-0.5-1.1-0.6-1.6-0.2l-3.9,3.1
			c-0.8,0.6-0.4,1.9,0.6,2l0.5,0.1l9.2,1.1l5.2,0.6c1,0.1,1.6-1,1-1.8l-5.2-6.6C165.3,24.5,164.6,24.4,164.1,24.8z"/>
		<path class="st24" d="M159.4,20.3c-0.1,1.1-1.1,1.9-2.2,1.7s-1.9-1.1-1.7-2.2c0.1-1.1,1.1-1.9,2.2-1.7
			C158.7,18.3,159.5,19.2,159.4,20.3z"/>
	</g>
	<g>
		<linearGradient id="SVGID_6_" gradientUnits="userSpaceOnUse" x1="77.8511" y1="81.0762" x2="35.4703" y2="76.4408">
			<stop  offset="0" style="stop-color:#00FFFF"/>
			<stop  offset="0.6927" style="stop-color:#9E005D"/>
			<stop  offset="1" style="stop-color:#ED1E79"/>
		</linearGradient>
		<path class="st25" d="M59.4,57.8l-29.6,9.4c-2.4,0.8-3.8,3.4-3,5.8l6.1,19.3c0.8,2.4,3.4,3.8,5.8,3l2.9-0.9c0,0,5.4,3.8,7.3,4.9
			c1.4,0.8,3.2,0.2,3.9-1.2c0.9-2,3.2-8.2,3.2-8.2l12.4-3.9c2.4-0.8,3.8-3.4,3-5.8l-6.1-19.3C64.4,58.4,61.8,57.1,59.4,57.8z"/>
		<path class="st26" d="M59.5,67.9l-24,7.6c-0.8,0.2-1.6-0.2-1.9-1c-0.2-0.8,0.2-1.6,1-1.9l24-7.6c0.8-0.2,1.6,0.2,1.9,1
			C60.7,66.8,60.3,67.6,59.5,67.9z"/>
		<path class="st26" d="M61.6,74.6l-24,7.6c-0.8,0.2-1.6-0.2-1.9-1c-0.2-0.8,0.2-1.6,1-1.9l24-7.6c0.8-0.2,1.6,0.2,1.9,1
			C62.8,73.6,62.4,74.4,61.6,74.6z"/>
		<path class="st26" d="M50.6,85.6L39.7,89c-0.8,0.2-1.6-0.2-1.9-1c-0.2-0.8,0.2-1.6,1-1.9l10.8-3.4c0.8-0.2,1.6,0.2,1.9,1
			C51.8,84.5,51.4,85.4,50.6,85.6z"/>
	</g>
	<g>
		<path class="st27" d="M161.8,68.1l-2.7,4.4l-1.5-6.3c-0.3-1.3-1.6-2.1-2.9-1.8l-17.4,4.1c-1.3,0.3-2.1,1.6-1.8,2.9l4.1,17.4
			c0.3,1.3,1.6,2.1,2.9,1.8l17.4-4.1c1.3-0.3,2.1-1.6,1.8-2.9l-1.5-6.3l4.4,2.7c1.1,0.7,2.4-0.3,2.1-1.5l-2.3-9.8
			C164.1,67.3,162.4,67.1,161.8,68.1z"/>
		<polyline class="st20" points="145.6,72.8 151.9,76.7 148,83 		"/>
	</g>
	<g>
		<path class="st28" d="M15.2,53.3l-5.1-10.7c-0.9-1.9-3.6-1.7-4.3,0.2L0.1,58.6c-0.7,2,1.3,3.8,3.2,2.9l10.7-5.1
			C15.3,55.8,15.8,54.4,15.2,53.3z"/>
		<path class="st20" d="M11.9,51.5l-1.2-2l0.1-0.2c0.1-0.3,0-0.6-0.3-0.7c-0.3-0.1-0.6,0-0.7,0.3L8,53.9c-0.3-0.3-0.8-0.6-1.3-0.8
			c-1.3-0.5-2.6-0.1-2.9,0.7c-0.3,0.9,0.5,1.9,1.8,2.4c1.3,0.5,2.6,0.2,2.9-0.7c0,0,0,0,0,0l1.2-3.4l0.7,1.1
			c0.3,0.4,0.9,0.4,1.1-0.1l0.4-1C12,51.9,12,51.7,11.9,51.5z"/>
	</g>
	<g>
		<path class="st6" d="M26.2,5.6c1.2,3.6-0.9,7.5-4.5,8.7c-3.6,1.2-7.5-0.9-8.7-4.5c-1.2-3.6,0.9-7.5,4.5-8.7
			C21.2-0.1,25.1,2,26.2,5.6z"/>
		<path class="st20" d="M22.3,4.3c-1.2-0.7-2.8-0.2-3.4,1c-1.2-0.6-2.8-0.1-3.4,1.2c-0.6,1.2,0,2.6,1.2,3.2l3.5,1.8
			c0.5,0.2,1.1,0.1,1.3-0.4l1.8-3.5C23.8,6.5,23.5,5,22.3,4.3z"/>
	</g>
	<g>
		<path class="st6" d="M203.3,177.6c-1.5,2-4.4,2.5-6.5,0.9c-2-1.5-2.5-4.4-0.9-6.5c1.5-2,4.4-2.5,6.5-0.9
			C204.4,172.6,204.8,175.5,203.3,177.6z"/>
		<path class="st20" d="M202.4,175c-0.1-0.9-0.9-1.6-1.9-1.5c-0.1-0.9-1-1.6-1.9-1.4c-0.9,0.2-1.4,1-1.3,1.9l0.4,2.6
			c0.1,0.4,0.4,0.6,0.7,0.5l2.6-0.4C201.9,176.6,202.5,175.9,202.4,175z"/>
	</g>
	<g>
		<linearGradient id="SVGID_7_" gradientUnits="userSpaceOnUse" x1="185.334" y1="61.7758" x2="237.4823" y2="-21.6615">
			<stop  offset="0" style="stop-color:#00FFFF"/>
			<stop  offset="0.6927" style="stop-color:#9E005D"/>
			<stop  offset="1" style="stop-color:#ED1E79"/>
		</linearGradient>
		<circle class="st29" cx="195" cy="46.4" r="8.7"/>
		<g>
			<path class="st20" d="M198.1,41.9c-0.3-0.4-0.9-0.5-1.3-0.1c0,0-1.1,1.1-2.6,2.1l-0.8-0.3c-0.1,0-0.1,0-0.2,0.1l-1.8,4.4
				c0,0.1,0,0.1,0.1,0.2l0.6,0.3c0.1,0.9,0.7,1.6,1.5,1.9l0.4,0.1l2.4,1l0.5,0.2c0.5,0.2,1,0,1.2-0.5c0.1-0.2,0.1-0.5,0-0.7l0.4,0.2
				c0.5,0.2,1,0,1.2-0.5c0.1-0.3,0.1-0.6-0.1-0.8c0.4,0,0.8-0.2,0.9-0.6c0.2-0.5,0-1-0.5-1.2l0,0c0.2-0.1,0.4-0.3,0.5-0.5
				c0.2-0.5,0-1-0.5-1.2l-3.4-1.4C197.5,43.5,198.7,42.5,198.1,41.9z"/>
			<path class="st20" d="M189.4,47.5l1.1,0.5c0.2,0.1,0.4,0,0.5-0.2l1.8-4.5c0.1-0.2,0-0.4-0.2-0.5l-1.1-0.5c-0.2-0.1-0.4,0-0.5,0.2
				l-1.8,4.5C189.1,47.3,189.2,47.5,189.4,47.5z"/>
		</g>
	</g>
	<g>
		<linearGradient id="SVGID_8_" gradientUnits="userSpaceOnUse" x1="23.8364" y1="155.4873" x2="119.1932" y2="57.4818">
			<stop  offset="0" style="stop-color:#00FFFF"/>
			<stop  offset="0.6927" style="stop-color:#9E005D"/>
			<stop  offset="1" style="stop-color:#ED1E79"/>
		</linearGradient>
		<circle class="st30" cx="55.1" cy="123.3" r="11.9"/>
		<g>
			<path class="st20" d="M54.5,115.8c-0.7-0.1-1.4,0.3-1.5,1c0,0-0.2,2.1-0.9,4.4l-1.2,0.4c-0.1,0-0.2,0.1-0.1,0.2l1.9,6.1
				c0,0.1,0.1,0.2,0.2,0.1l0.9-0.3c0.8,0.8,2.1,1.1,3.2,0.8l0.5-0.2l3.4-1l0.8-0.2c0.7-0.2,1.1-0.9,0.9-1.6
				c-0.1-0.3-0.4-0.6-0.7-0.8l0.5-0.2c0.7-0.2,1.1-0.9,0.9-1.6c-0.1-0.4-0.4-0.7-0.8-0.8c0.4-0.3,0.6-0.9,0.5-1.4
				c-0.2-0.7-0.9-1.1-1.6-0.9l0,0c0.2-0.3,0.2-0.7,0.1-1c-0.2-0.7-0.9-1.1-1.6-0.9l-4.7,1.5C55.3,118.1,55.8,116,54.5,115.8z"/>
			<path class="st20" d="M50.2,129.4l1.6-0.5c0.2-0.1,0.4-0.3,0.3-0.6l-2-6.2c-0.1-0.2-0.3-0.4-0.6-0.3l-1.6,0.5
				c-0.2,0.1-0.4,0.3-0.3,0.6l2,6.2C49.7,129.3,50,129.5,50.2,129.4z"/>
		</g>
	</g>
</g>
</svg>
