<?xml version="1.0" encoding="UTF-8"?>
<svg width="115" height="134" version="1.1" viewBox="0 0 115 134" xmlns="http://www.w3.org/2000/svg" xmlns:cc="http://creativecommons.org/ns#" xmlns:dc="http://purl.org/dc/elements/1.1/" xmlns:rdf="http://www.w3.org/1999/02/22-rdf-syntax-ns#">
 <metadata>
  <rdf:RDF>
   <cc:Work rdf:about="">
    <dc:format>image/svg+xml</dc:format>
    <dc:type rdf:resource="http://purl.org/dc/dcmitype/StillImage"/>
    <dc:title/>
   </cc:Work>
  </rdf:RDF>
 </metadata>
 <g transform="translate(-17.882 -31.642)">
  <path d="m118.83 158.03h-85.359c-7.7422-0.46439-4.2712-5.8101-3.0445-9.5192l40.458-95.131c0.2123-0.58553 0.55985-1.5241 0.97649-2.5788l-0.0086-0.0013c0.701-1.9509 2.2353-5.1143 2.2353-5.1143l0.0075-6.44e-4c0.15683-0.29572 0.35391-0.60985 0.58621-0.88444 0.12865-0.14024 0.27754-0.28435 0.37891-0.3796 0.0032-0.0019 0.0058-0.0039 0.0091-0.0058 0.37346-0.29822 0.81466-0.45393 1.3165-0.30527 0.01546 0.0039 0.06842 0.0098 0.08433 0.01475 0.0013 6.44e-4 0.0058 0.0013 0.0084 0.0019 0.07319 0.02229 0.12957 0.04272 0.16434 0.05638 1.8159 0.90467 4.4129 7.8692 4.8209 9.036 0.83283 1.8852 1.5145 3.6134 1.9262 4.6536l14.76 34.694h-33.855v8.6375h46.482l-3.6775-8.6375-22.46-52.75c-0.5203-1.089-1.2197-2.4819-1.86-3.525-6.0178-8.7873-11.336-2.9872-13.437 0.092963-0.51825 0.90058-1.0181 1.8873-1.4109 2.6999l-49.158 115.45c-1.4513 4.3874-2.261 11.316 6.8962 11.675h107.5v-8.1829z" fill="#ff3e7d"/>
 </g>
</svg>
